/* XPM */
static char * blood_xpm[] = {
"64 64 7 1",
" 	c #5B0000",
".	c #4F0000",
"+	c #670000",
"@	c #730000",
"#	c #470000",
"$	c #7F0000",
"%	c #8B0000",
"##....  +$+  ....####.#... .     ++ ++ ++  ........... +$$@+++.#",
" ....    +$@@+.....###.... ..     .           .. ...... @+++    ",
" ..  ++ .+@$$@++++      .   .  ........      . ......... +   ...",
"..    .. ++@@$$@@+   ....    ..............+ + +. ....      ....",
"...    ..  @@$$@@@+         .  .......... .+++++ .. . ...   ....",
"......      @@@$@@+ ...     . ...........   ++++  ........... ..",
"  ......    +@@@@@+  .... . .. ...    ++   +++ + +............. ",
".   ....   +++++++  + .....  .        ......  +++   ............",
"..    . .   +++    ....   ...    +    .....    @+   . ..... ....",
"   ...###..  ++    ......  ++   . .    ...    ++$@+             ",
"+   ...###..   +    ........ ++   . .         $@$@++         +  ",
"   +      ..        .........   .......   ++++@@$$+ ........... ",
"    +++              ..... . .+. ...       +@$$$@@   ..##...... ",
".  +++++++++++      ..... .. .   ...  .     ++ +++ +  .#####....",
" ++++++  +      +     .#......        ...         +      .#.... ",
" ++$@+  .  .  ....  ........ ..       ........     .     ++  +  ",
"...  +  .  .  .......    ..  ..        ........     .   ++    ..",
".     .. +      ....    +  ....         . ###..  +   +  +++   ..",
"   . ...... +++++        +    ... .    .    .   ++ + +++@@@+++  ",
"    .....##..++@+++@@@+  +++ +    + +++ +  .... +++ .     +@++++",
"+ + ...####....+++$$%%%$@@++++  . .  +++++ .. +++++   ...  +++++",
"+ +++ ........  +@@$@++  +++++   ...... +++    ++++  .......  ++",
"+ +@   +++   + +@++   .....   ++  ....... ++ +++++ ..........   ",
" ++@@++++++@+@@+++ +........    ..   ..... ++@++++ ...........  ",
"  + ++        +  +   ..... .   . .#..     +++@$$@@   ..#.....   ",
"   ++          +        .   .  ...#.#.   .   ++++++ +           ",
"    +          ++ +  ....      ....... +              ... +     ",
"    +          +++@++  ....   +      . +++              ..   +  ",
"+ ++++  . .     @@$@++       ....  +++@++@@+   ...       ..   +@",
" +@$+    ... .  +++  ...    .......  ++@+++++++ ...        ++   ",
"   +@@+..      ...  .......  .....++ @   ......... .     ++     ",
".    + + + +  ....#........  + + + @+ + ....... ....++++++++   .",
"##...    ++  ........ . ..                 ..... ....  +$$++++..",
" ....     ++@ ........   . ..  .. ....       .... ..    @+++  ..",
"...  +   ++@@+@@++     +  . ....... ... . .  . ..  ..    @+   ..",
"........ ++++@@@@+          ...........# .  + .+.      +++ +  ..",
".... ..... +@$$@@++      +  .  .#.......   + +++     +  ++++  ..",
"............+@@$@@++      +    .....     +  + +  +...        +  ",
"  . ........ +@@@@@+++   +     .    ++++++++++    ......        ",
"    ....       +++++$@+            ++      ...     ......    +  ",
"   +  . .  .  .  +++++++++    .  + +++    .....     ..###..     ",
"  + ....#...  . ++@++++++++++   . .        ...  ++            ++",
"+++   ........  +++++++  +  +++   . .  +      ++@+++         +++",
" ++@+++   ....  +++           ++ .......  +++++@$$+ ........    ",
"  ++@+++++++    ++    ....    +  ........   +@@@++   ..##....   ",
"  ++@++++++@++++     .... ..  .    .......  ++     +  .####..   ",
" +++@++  + +++++++  ........  ....   ....    + ..        .....  ",
"+++@@  ..    ++    +..##....  ....      . .     ....     ++  +++",
"    .   .. ..           ...   .......              ..   ++   +  ",
"      ..     .          + ...  .... .   .  .         ++ +@++    ",
"  .  ...... +++@+++++    +  . ........  +   .+     + +++@@@+++  ",
"  .  ....###. +@$@+@@@+ +@++   .      ++++ . ... ..     +++@++++",
"+    ..#.#.##. +@@%$%%%$@@@++  ....   ++++ ..............  +++++",
"+     .......   $%$%$@@  +++++    ....  @++  ..............+++++",
"+    .       + +$$$++  ....   +++    . ++ +   .............  +++",
"++         ++$$@@$@@+   ..    .   ++  +++  +   ...###.....    ++",
"+++ . .......+++@@@@+  ...    ...  + +@+@@@+++++   ..#.....  +++",
"++   ......... +@+++   +       ....  +@@++                 +++ +",
"  ++ ......... +@+++ ...   +   ....  ++@+       ......... +++++ ",
"     .......   +@+$+@  ...          ++@$$+ ..... ........   ++  ",
"+  + + ....     ++@+++       .... +$+$$@@++  ..##.......      ++",
"  ++            +    ...       .   +@$@@+       ##.       ++    ",
"...  @+     +  ............      ++@+@++ ......... .     ++  ...",
"#....  + + +  ...####.....   +@++++@++@  ........... ++@@@@+ ..#"};
