/* XPM */
static char * demon0_xpm[] = {
"59 63 47 1",
" 	c None",
".	c #000000",
"+	c #7C0000",
"@	c #880000",
"#	c #980000",
"$	c #700000",
"%	c #580000",
"&	c #A40000",
"*	c #B00000",
"=	c #400000",
"-	c #BC0000",
";	c #640000",
">	c #4C0000",
",	c #050000",
"'	c #EC0000",
")	c #E00000",
"!	c #C80000",
"~	c #FC0000",
"{	c #2C2C2C",
"]	c #FC2020",
"^	c #D40000",
"/	c #400040",
"(	c #6C0070",
"_	c #580058",
":	c #202020",
"<	c #840084",
"[	c #480048",
"}	c #9C009C",
"|	c #047000",
"1	c #A800FC",
"2	c #045800",
"3	c #484848",
"4	c #7C7C7C",
"5	c #545454",
"6	c #989898",
"7	c #383838",
"8	c #646464",
"9	c #9C4C00",
"0	c #E46C00",
"a	c #744C28",
"b	c #4C4C4C",
"c	c #5C5C5C",
"d	c #543C1C",
"e	c #B45400",
"f	c #303030",
"g	c #404040",
"h	c #343434",
"..............................................++++.........",
".............................................@#$%+.........",
"..........&&+...............................@*#$=+.........",
".........&--*@..............................#*#$=%%%+......",
".........*--**@............................;#+$%===>%+.....",
".....%$+#*--***@..........................;##%==,,=>>+.....",
"....%$+#++#*@***@........................;#@$===,,>>%......",
".....%##=%+#@@***@......................;+@$=,===,>>+......",
".....%##;%;#=;@***@;..')!.-~~)!-*.~''..;@@+=,,=====>>+.....",
"....%+#%#+;+#{;@***@;'])#*^**##@#']'--;+++/(,===,==,=%.....",
"....%#+=+;++#={{@*+=*'~)*$*~~^-&@~'-@;>>++((_===,,=,,%+....",
"....;#$>;+{;$%{{>@=+**'~)#*###@@-^-@;;;>==((_/=,,,==,%++...",
"...$#$=;+{{:$;={{@+#!!&!##;#^*##-#@#$$;;>=((_/=,,,,=,,=+...",
"...$#==+{{{<__={{>+#!!*#'-;@+++@^#+$++$;>=@@[[/,,,,,=,=>+..",
"..;#$=+{:{{}(//{{{+@*+##!~&+*##)'#;$+;$;>=@@%//,,,,,=,==>+.",
".;##$:::{:_}<_/{{{+@@;##)@@;$+@#++;+@;$;>;@@/%/,,,,,=>,==>+",
";##$=::{:{<}}(//{{{++;#^#*!;&#@-*;+*@%;>,;@@%//,,,,,,>,,==;",
";##==$:::_<}}&_%:{{{$;-@'*!+;;@-#;*$#=>,,@@@%%/,,,,,,>===;.",
".;#$##::=<}}-}&%%:::;%-%''!#++^*#^*%#=>!!!&@%%,,,,,,,====;.",
".;%##%:=<}}-}-&$%=::%>&+|1^#--*#^12++,=+++++++%>,,,,===+...",
"..%%%$%=<}}}-&&+%==;@&&&&++#+$++$++++;;>;=%+++++;>,,===+...",
".....%%=(}}-&&&&%&&;;@&$%+$$%=%$$;%+;;%>;;+#####++>,==+....",
"......$%:_<&&&&!!&++>;@;>$#@;$#@;%>>;%>==+#**###+;%===+....",
"......%$:::@#&!!&&&#+>>;>;@=;$@=;>=>>>===#***##+;>>%%=.....",
".......$:**#+$!+###+++%%;$@;$+@;$>==>===;######+;>$@$=.....",
".......=#*^*+$;@##;;;;;;;*+$$+@@*$====;;++++++++;$;$@=.....",
"........+***#+;;$$;;;;%%343$===@35{=;;+++$$$$+;;$@;;$==.=..",
"........+***#+$;;;%%%%%%467==>>=747=;$$+%==>;;+%>$++;%====.",
".......@$$;+++$;;%%%%;$+3485>>%465{>++%>>>=,>>>;%%;$+$%=;=.",
"......@*!*$;;+$;>>>$;%>==========;==>;>>=>=,,>>>>;;%%>@;;#.",
".....@*!*@;%+;;======%%>=,,,,,,,,,,>;=%==>,,,,,>>;;%%>>@#$.",
".....#**@@%*$>@=============,,,==========,,,,,,,,>>+>>>#@>.",
"....@**@+;**;;;%>=,=======,,,,,,,,======,,,,,,,,,,>>>>>@*>.",
"$#..**#+;**@;;%%>==,,,,,====,,,=======,,,===,,,,,,,>>%+##;.",
"&+##**;+**@;;%>>=====,,,,,,,,=,,,,,,,,,,,====,,==,,;###+;;.",
"&+!!#$+*;@$;%>====>>===,,,,==.==,,,,,,==,=%%=>,===..#*!#$;%",
"&+!#!>>%==>>===%;%>=======%=...===,,,===,=%%%>>,===.#!!#$;%",
".;#+!>%==>====%;%>========%.....==,,,===,=%%%%>====.*!!@$%%",
".;;!^##;>>===>>>>====.===.........========$;%;>=%==..*!@$%%",
"..@~~!*#>>>=>>======.................=;===$;;;>=%%==.#*@$%.",
".#$-~^!#+>>=======...................=;;==@$$;>=%%==..#@$%.",
".-)@!~!*+>>>=........................=;+;=+@++>=%===..#@%%.",
".--$@!~~*+>>==.......................=;+;==++;======.##@%%.",
".###$@#!^^~**+==......................=;===========.9~~^%..",
".$##%;;#~~##**%=......................==;=$$=;%====.^0^^%%.",
"..$$%%#~~~#$*9%=.......................=;$##$;%===..~9$#%%.",
"....$>~~&~^#0$%=........................=@!!;;%====.^&$$%%.",
"....&+~&~&#$9$%,=.......................=@!!;;%=%==..^%%%%.",
"....&+-~&-$$$%%%=.......................=@!*;;%=%==...@%%%.",
".....&+-&$$$%%%%=.......................>=*@+;%=%==........",
"......$%$...#;=>>%==.....................>>+@;%=%=.........",
".............@$==;;$=.....................;+@;%===.........",
".............##==;;$>.....................;+@;%==..........",
"..............-#;@>>>......................;@;%=...........",
"..............-#;#>=......................+$;*@=;..........",
"..............-#;#>......................+@@;@$$%..........",
"............-^-^-^;;.....................$@*@=$==..........",
"...........--->->a*;7bbbbbbbbbb555cc8888.;$*@>$=...........",
"..........8-da=9=e+;{{{{{ffffff7777777g355;*@>@>c8.........",
"........88cc5b3g77hhh{{{{{{{{{{{{{{{{{777g3*@%*>35cc88.....",
"..........8cc5b3g777hhhffffff{{{{{{{{{{{{f;**+@++=3bcc88...",
"............8cc555bgggg7777777hhhh{{{{{{{{**a>;>;;=7g35c8..",
"...................................85bb3g7*+e=9=ad=77gb5c8."};
