/* XPM */
static char * demon2_xpm[] = {
"61 62 61 1",
" 	c None",
".	c #000000",
"+	c #585400",
"@	c #9C9C00",
"#	c #706C00",
"$	c #848400",
"%	c #B4AC00",
"&	c #C800CC",
"*	c #CCC400",
"=	c #EC0000",
"-	c #404000",
";	c #4C0000",
">	c #E4D800",
",	c #D40000",
"'	c #BC0000",
")	c #880000",
"!	c #FCF420",
"~	c #580058",
"{	c #980000",
"]	c #E00000",
"^	c #840084",
"/	c #6C0070",
"(	c #FC2020",
"_	c #B00000",
":	c #FC0000",
"<	c #7C0000",
"[	c #700000",
"}	c #400040",
"|	c #E46C00",
"1	c #580000",
"2	c #9C009C",
"3	c #400000",
"4	c #8C8C8C",
"5	c #707070",
"6	c #A40000",
"7	c #640000",
"8	c #545454",
"9	c #B45400",
"0	c #B400B4",
"a	c #FCA85C",
"b	c #9C4C00",
"c	c #383838",
"d	c #FC8820",
"e	c #744C28",
"f	c #543C1C",
"g	c #C80000",
"h	c #7C7C7C",
"i	c #989898",
"j	c #D0D0D0",
"k	c #646464",
"l	c #00000",
"m	c #CC6000",
"n	c #A8A8A8",
"o	c #2C2C2C",
"p	c #484848",
"q	c #5C4020",
"r	c #FC20FC",
"s	c #5C5C5C",
"t	c #1C1C1C",
"u	c #E000E4",
"v	c #FC00FC",
".............................................................",
".............................................................",
".............................................................",
".............................................................",
".............................................................",
".............................................................",
".............................................................",
".............................................................",
".............................................................",
".............................................................",
".............................................................",
".............................................................",
".............................................................",
".............................................................",
".............................................................",
".............................................................",
".............................................................",
".............................................................",
".............................................................",
".............................................................",
".............................................................",
".............................................................",
".............................................................",
".............................................................",
".............................................................",
".............................................................",
".............................................................",
".............................................................",
".............................................................",
".............................................................",
".............................................................",
".............................................................",
".............................................................",
"......................................+..@#..................",
".......................+@............#$%$$#+%.$..............",
".....................##$%$%%..........&$#*$+@$+.$+..=#=......",
"....................@***..%$.&$.+-.@...++$%#+#+.$.$=..;......",
"=...................#**+$.+$.$+.>$%>$$-#@@**$@...++@,'));....",
"=............*#....#.+..$.@#...+!!@$$@!$!#**~$.+.*-)$..{.....",
"...]@+#......$*$.#@#%..^+#+@$@%**!++#~!@%/%.+#%#%#)]#].......",
".>(._>>$....$***..$+$$.%*$+$$+@**@@#%$/%!!&/%~+.+##{#.)......",
".:._$>>@.$*%$**!%#..>::$!!$*!.~>$$@$>>!%!!%^/.%.%#]]*__......",
".==+$>*@$.**$$$**$#-%:<[!%$%-..$*+%+#::#%$.#^>~.+#=$$...'=...",
".....+%!.-...+#+%...$[&[%#+.^.*%.>*$+:_[^>!&%>}|,_%#1*.)..'..",
".._.=@{..$%*-*..@.$$...&2^^^>^,_{.!~%[[[}!^/@^|,,!_),.._)....",
"......1..@@...333.$*..^2245^^&:_%[>>~.>}!>^!&!,>*_1[6,,.=)]_.",
".......@@.@#.3333$..72^^~58^2&__<9''@!@$>%#+#@_!!11[<6_,$*_).",
"....==@$@>@.#1111337)20^^#~20&[<|!!,>!2%@!%@'!'{))a_a_ab,,...",
"...._=_+#@+#3[cc[37))2^^_)&2,,;,&,'>''>')[@{>,00,(d[b[ef66<..",
"....)>$+=_+.1[cc_'{{,=====,___,~'')))));3>))'00^'(333333[<<;.",
".......{+=+.[[ggg{_=====,,'__),~;)7''';7[''')02]](333333777;.",
"............{gg_g_,_]____{{)[[[_,37)));7[)))^0]]]_<33333;;;;{",
"........$ggggg)<g_]]___))<<7711),33300333;;}/0]]__3333333;;;[",
".......'g]]g)717<_',],''_{{)<___}hijk333333}/0]]__33333l3333;",
".......m{_{)11[7<__'',,,,__)<{[}}8k4n333333}/2]]__33333l33333",
".......bb[[[[[737_<_''''__{<[77}}o}pp33333}}/2]7/132333llll33",
".......bq7;;;33337~<<))))<[101;}^}}333333/}}r^[_r1333r3l2ll33",
"........ff33333~}~7~1;^;};};;};;}}}}33333~r}^r2[1233233ll/333",
".........kkss88888~~1~~~^~}3}}~~3~~0~33~^22/^rr2/^32~3l/33332",
"...........kss88802~~0^^^^^0^^^^^^^^^^^^2&00&&2^~~~~~}/t~}}}}",
".............ku&00000&&&&&&&&&&&&&&&&&&&&&&&022~~}}}}}}}}}}}}",
"................vvuuuuu&&&&000222222^^^^^^^^^^^^^^~^^///~}}.."};
