/* XPM */
static char * demon3_xpm[] = {
"60 63 56 1",
" 	c None",
".	c #000000",
"+	c #7C0000",
"@	c #880000",
"#	c #980000",
"$	c #700000",
"%	c #580000",
"&	c #B00000",
"*	c #400000",
"=	c #A40000",
"-	c #BC0000",
";	c #050000",
">	c #4C0000",
",	c #640000",
"'	c #EC0000",
")	c #E00000",
"!	c #FC0000",
"~	c #D40000",
"{	c #400040",
"]	c #6C0070",
"^	c #580058",
"/	c #480048",
"(	c #840084",
"_	c #C80000",
":	c #9C009C",
"<	c #202020",
"[	c #047000",
"}	c #A800FC",
"|	c #045800",
"1	c #2C2C2C",
"2	c #404000",
"3	c #046400",
"4	c #049800",
"5	c #9C9C00",
"6	c #706C00",
"7	c #9C4C00",
"8	c #585400",
"9	c #7C7C7C",
"0	c #484848",
"a	c #545454",
"b	c #044C00",
"c	c #047C00",
"d	c #646464",
"e	c #989898",
"f	c #383838",
"g	c #848400",
"h	c #044000",
"i	c #E46C00",
"j	c #744C28",
"k	c #4C4C4C",
"l	c #5C5C5C",
"m	c #543C1C",
"n	c #B45400",
"o	c #303030",
"p	c #404040",
"q	c #343434",
"..............................................++++..........",
".............................................@#$%%+.........",
"............................................&&#$**+.........",
"............................................&&#$**%%++......",
"..........==+..............................@#+$%***%%+......",
".........=--&@.............................##$%*;**>%+......",
".........&--&&@...........................##@$**;*>%+.......",
".....,+##&--&&&@..........................##$%%;***>%.......",
"....,+##++#&@&&&@.....'')&.&!!~-=.!'-@..@@#@$*;***;*%.......",
"....,+##*%+#@@&&&@...&')!)#+###@@~~-@,-,$##$*;{]^/;*%+......",
".....,##,%,#(^^&&&@,+&))'#_&,~~#-~~+&@,>+$$*;;]]/{;;%+......",
"....,+#%#+,+:]{@&&&+#__'@'_&+$#@!#,'$#,,>***;{]^{{*;*,......",
"....+#+*+,+^:(^{@&++#_+=%''_#++'&#'_%#+,,>*;;]]{{{*;;,+.....",
"....@#$>,+<(::]{@@*+@&,=+[}~#-'&#'}|++,$,>*;;]]%{{**;*,.....",
"...$#$*,+<^(::]{%||+@@,-#$$)_+>)_,%$--,$,>*;++%{{{{*;**+....",
"...@#**+11^2|3]{1443++,#,%@&*,$&*,+%##%$,>;>++%>{{{;*;*,....",
"..+#$*+<11^|[4[31456|$-@>,##,$##,$#>$$+,>;;@@$>{>{{;;**>+...",
".+@#$<<111^3457414774@@$>&&+@&&&@&&+$%*>;;>@@%%*{{{;;;*>+...",
"+@#$*<<111^3477434784,,%&90$;;;;;@0a,>>>___=$%%**{;;;;**>+..",
",##+<<2b||134784c4784>>>*d9a;;;;;9e01>>*+++++++%>;;;;;;**,..",
".+##+<b44c[c472747724|3%***;;;;;;;***>,,,,,%%++++,>;;;**,...",
".,+#+<|45644c72837224343***;;;;;;;****>>>,,%*&&##++>;**%,...",
"..%##+|c677828288223c464|**f;;;;;1****>***$+##&##+,%;***....",
"...%#+.|4727882822277g84|**a;;;;;f***>****,$+###+,%%%%**....",
"....%|||[47222222222224b%>>$>{{;>,>>*>***%%,$+##+,%$@$*.....",
".....|444778822222223[b%,>>@>^^{>@>>***>>>%%,++++,$,$@*.....",
".....|c6582222222222|h%%%>=>>^^{>>@>*>>>>>%%,$+,,$@,,$*..*..",
"......|ccc888222222|h$$$%#d,,+++,>a@*>>>>>**>,,+%>$++,%****.",
".......|||cc82222||h**%>+@#=+++++@@@>>>>>>>*;>>>,%%,$+$%*,*.",
".........|3[[3|||hh**;***>,,>>>>>,,>*>>>**>*;;>>>>,,%%>@,,#.",
"..........bbbbbbh#,,***;;;;;;;;;;;;*******>;;;;;>>%,%%>>@#$.",
"..........@,<1f@*++,,******;;;;***********;**;;;;;>>%>>>#@>.",
"...........+,><,%>*%%%;*****;;;;*********;***;;;;;;;>+@@+,,.",
"............>>$%*>******;;;;;;;;;;******;*;;;;;;;;;;>@&&#$,%",
"...........##+,,>*>;;;******;;;*****;;;;;;;;;;;;;;;,.#&&#$,%",
"..........##+,>**;;;;*;;;;;;;;;;;;;;**;;;;***;;***...&&&@$%%",
".........-=#,***%***;;*;****;;;;***;*;;;;******;***...&&@$%%",
"........=-#+%*%,%*;;;;;;;;;;;*;;;;;;;;;;;*%%%******...#&$%%.",
".......&)_#+*%,,*;**;**;;;;**.**;;;;;**;;*%%%>**%**..7!!~%%.",
"......&_)=#$%*,+**%%>******%*..***;;**>***%%%%**%%**.~i~~%%.",
"......_))#@$%*%,*>,%*******%<...**;;**%>*>%$,,**%$**.!7$#%%.",
".....&))_#+$>*,**>***.****<<<.....****%$>*,++,**%+**.~=$$%%.",
".....-))&+$>>>>**>>%*....>><<<......**%$%*%$,,**%,**.~=$$%%.",
"....#)))&@,,>%**>>>*......>>><<......**%%**%%*******..~%%%%.",
"...#&)))=%$$@**%%%>*.........>>.......*****,,*%>****...@%%..",
"...-)___#$@#$**,$,*....................**,*++$,%****........",
"...--===@$#@$**,,,*....................**+,+##,%>****.......",
"...##$##$#$*******......................*%%@&#+,%*%**.......",
"...$$$##$$>**>>%.........................**,&#@,,*%**.......",
"....$$++****>,,,...........................*+#@,,*%**.......",
".....&#&$&#>*>,............................>>>$$$*%*........",
"......#+>+**%%..............................,,$#+***........",
"........>$+%$%...............................,$#+%**........",
".........-#,@>................................,#&%*.........",
".........-#,#>................................$~-@*,........",
".........-#,#>*..............................,@-@$$%*.......",
".......-~-~-~,,*.............................,@&*$***.......",
".......-->->j&,*kkkkkkkkkkkkkkkkaaalldddddd..,@&,@***.......",
".....d.mj*7*n+,*1111111111oooooofffffffp000aa.@&$#>*d.......",
".........ddllak0pffqqq11111111111111111fffffp0@&+&>*ald.....",
"...........dllak0pfffqqqoooooo11111111111111o,~~&&&+*0ldd...",
".............dllaaakppppfffffffqqqq1111111111&~j>,>,,*0ald..",
"....................................dakk000pf&+n*7*jm*pkald."};
