/* XPM */
static char * demon1_xpm[] = {
"61 62 56 1",
" 	c None",
".	c #000000",
"+	c #FC2020",
"@	c #E00000",
"#	c #880000",
"$	c #700000",
"%	c #980000",
"&	c #E4D800",
"*	c #D40000",
"=	c #9C9C00",
"-	c #EC0000",
";	c #A40000",
">	c #7C0000",
",	c #FC0000",
"'	c #BC0000",
")	c #B00000",
"!	c #706C00",
"~	c #640000",
"{	c #4C0000",
"]	c #580000",
"^	c #585400",
"/	c #B4AC00",
"(	c #400000",
"_	c #C80000",
":	c #CCC400",
"<	c #580058",
"[	c #050000",
"}	c #404000",
"|	c #400040",
"1	c #2C2C2C",
"2	c #840084",
"3	c #6C0070",
"4	c #9C009C",
"5	c #480048",
"6	c #B400B4",
"7	c #202020",
"8	c #848400",
"9	c #646464",
"0	c #484848",
"a	c #383838",
"b	c #989898",
"c	c #7C7C7C",
"d	c #C800CC",
"e	c #545454",
"f	c #FC20FC",
"g	c #E000E4",
"h	c #9C4C00",
"i	c #E46C00",
"j	c #744C28",
"k	c #4C4C4C",
"l	c #5C5C5C",
"m	c #543C1C",
"n	c #B45400",
"o	c #303030",
"p	c #404040",
"q	c #343434",
".................................+..@#.......................",
"......................@$........+%...........................",
".........................&..&..+%$*..........................",
"............................=.&&$&$*.=--.....................",
"........;;>...........-@=&....&&$=$$,&'''..........>>>>......",
".......;''%#.........-+@)!.&!,==!!$=*'##~{........#%$]>......",
".......;'')%##......)-,,=&!^!!/!&!!-%#%~~~{......#)%$(>......",
".......;'')))%#>...>))-_!&&/:=!^!^&'%=:$$~~{$$###%)%$(]......",
"...]$>%)%)#%)))%>>.%__=%!=&=^&^!&&!&~>)>>$~({%%%%#>$]((]]>...",
"..]$>%>>>%##%))))%>%__)*=!=!=!/^&&!>~)$>~$~{<%##$$](([[({]>..",
"..]]%%(]~%(~#%%)))%#)>%#-)!&}!!!!!~>:*]#~$~{<|((((((([[({{>..",
"...]%%~]~>%1~2>>>%#>#)>%#-=!}!&!&%&)$>~$~{(3<|(([[[((([{{]...",
"..]>%]%>>>%(143||>{>##~%=-)_:}>=!%#*]#~$~{(#55|[[[((((({{>...",
"..]%>(>~1~]]142|_111>>~%>;&*=}=!%&*;~#]&{{(#]||[[(((([(({{>..",
"..~%${~>11]]244||1_11$~':#>;_}$;_$>~}%({[{~#|]|[[(([[[[([(>..",
"..$%$(~>111]444||617~#;;8:^*(:$*(~^^}>~~{[~#]||[(([[[[[([(>..",
"..$%$(>1111]444;]726~~#;))~#(}$#(~)>{~~]{[##]]|[([[[[[[([(>..",
"..~%$(>1711144';]_7(>{~)90)$~}>##)$0a~]{((~4>>>>~[[[[[[([(>..",
".~%%$7771711'4';$2(<%>{9b0$0[((([0#cc1((((>>%%%%>>([[[[([(>..",
"~%%$(77171174';2_]2#>>>cba[{[|[[|{[aba(((~%%d)4%%>~([[[([(({>",
"~%%(($777777;;;;_6<#$]{0cb{|[[|[[]]be1||(4%)))%%>~({[[[{[(({>",
".~%$%%777777#@;__;;$$]{{{{{$<||<[${{(||<3>%4%%%%~(({([[{[[((~",
".~]%%]7777))@@$_>3%3~~~~>{<#|<<||#<{{||<34$%d%%>~((~~([{(((~.",
"..]]]${777)*@>|<$d#]~~~]]{#{|<3<|{#{]~|<<2d3>>>~~6<346][(((~.",
"...$$$]{))@@@|32<3$]]~]{{@c~;####{c#({~<d(3<~~~>]{333<$(((...",
"....$$))>>#_@|6f24~3]{]]{';;~~~~~###(~4<<(((4{{6~34<4<%~{....",
".....))#@@)#>>3363]|${{{{{~~{{[{{~~{{{{3<(d({~{{{32g>|%%~....",
".$%.))#@@@)$~~4<32|3({{{{{{{{([({{{{{4{4<(23[{{({626#>%6~{...",
".;>%%))@@_#~]|d<<4<3((({{{{{{([({{{{{((4<(([[[(({3<;g#$6~{{{{",
".;>__%$)))#~]|2<<4<|(((((([[[[[[[[[((((d<([[[[[g(|<~;#$%%~{{{",
".;>_%_%#]~~]|||<(d|<[(((((((([[[((((((((|[[[[[[[[||{{$%%>~~{{",
"..~%>_**')~||~|(]{(<[[[|(((([[[[[(((([[[|[[[[[[[[||{$%_%#$~].",
"..~~_))*-*))#3|3[[[[4[[[[[[[[[[[[[[[[[[[|[[[[[[[[||%__%%#$~].",
"...#*>%***)#~3|([[4[[[[|{{{(([[(({{(([[[[[[[[[[[[[|___%%$~]..",
"...#)%>***')#]|(3<4|[4([[4([[[[[[(([[[[[(([|||[|[[|___%#$~]..",
"....#))#)**,,,,,>|224[[((||(([[(((((([[[[((|||{g(((__%#$~]...",
"......$$#*,,,,%,,34d3d|4[((([[[[(((([[[[(23<<26{<g_%%#$$]....",
"........#,,,,,))h<|43|[[3[[[[[[[[[[[[[[6((6<g<<((_%%#$$].....",
"......#_%,,,%)%i${4<|4[|[[[([[[[[[[[([(((g[<g2%%#~~##].......",
".....%$#%,,;)$$h$]4|{|((d(3[[[[([[[[[((~2(436h,,*%~~]........",
".....'@#)'))$$$$]((|3|(||[[[[((.(([[[((2(6263*i**%~~~(.......",
".....''#]>'$$$$]]|3|(|((|(((].....(([[(_6~g26,h$%~~~~(.......",
".....%%]~~{{{((((((|(|3((((.........((((>~22|*;$$~~~~(.......",
".....$%#~~$${(((]]((.|...............g((6(6<2|*~~~~~~(.......",
".......#$~#$]{((]]((.|................(((~2$<(~#~~~~(........",
".......#$~#$${((]](..<.................((~3%%$~](|(((........",
"........#$~>$]{(](((.2..................((3#__>~]|]((........",
".........;;#$]](](((.2...............g....3#_)#>]|]((........",
"...........;>$]((((.......................3()%#>]|](.........",
"............;$~(({](......................3{#%%>]|]..........",
".............#$((~~$......................<~>#%>(|(..........",
".............%%((~~{........................~>%>](|..........",
"..............'%~#{(........................~~#>](...........",
"..............'%~%{........................>>$~)#(~..........",
"..............'%~%{........................>##~#$$]..........",
".............'*'*'*~.......................$%)#($(...........",
"............'''{'{j)~akkkkkkkkkkeeell9999..$%)#{$(...........",
"...........9'mj(h(n>~11111ooooooaaaaaaap0ee~);{$#l9..........",
".........99llek0paaqqq11111111111111111aaap0)#]){0ell99......",
"...........9llek0paaaqqqoooooo111111111111o~))>#>>(0kll99....",
".............9lleeekppppaaaaaaaqqqq11111111))j{~{~~(ap0el9...",
"....................................9ekk0pa)>n(h(jm(aapkel9.."};
