/* XPM */
static char * south_xpm[] = {
"64 64 45 1",
" 	c #2B230F",
".	c #2F2F2F",
"+	c #373737",
"@	c #4F3B2B",
"#	c #3F2B1B",
"$	c #473323",
"%	c #372313",
"&	c #332B13",
"*	c #A70000",
"=	c #BF0000",
"-	c #B30000",
";	c #574333",
">	c #533F2F",
",	c #3F472B",
"'	c #43331B",
")	c #2F371F",
"!	c #CB0000",
"~	c #272727",
"{	c #4B371B",
"]	c #2F1B0B",
"^	c #4F3B23",
"/	c #4F3B27",
"(	c #1F170B",
"_	c #D70000",
":	c #7F0000",
"<	c #373F27",
"[	c #E30000",
"}	c #5B472B",
"|	c #8B0000",
"1	c #474747",
"2	c #9B0000",
"3	c #474F33",
"4	c #53573B",
"5	c #232B0F",
"6	c #EF0000",
"7	c #1B1B1B",
"8	c #6B4727",
"9	c #5F4B37",
"0	c #67533F",
"a	c #872300",
"b	c #432F1B",
"c	c #FF0000",
"d	c #675333",
"e	c #3F2F17",
"f	c #575757",
"+#++#--===!--* .( $*-=!!!--**-!!=!==!=!!=!=!!=!-.& .. %@#.+%+. .",
"+&+. +--=!=!=----*====!![6[!!==**.#>@#**-!!!==-*. .+ %.+%++. #+ ",
".+#%.+,*-!=!-*&;;>&@**-=66_==* .#;.$#+$;*-=!=-%+ .+ ..5+.+ .@&+ ",
".+@%.@++*=-*+,+++#&$#$$*_6[* .@;&@% %.+;@*=!-*  +...+) + . $&..7",
" .%@#  ;*-*^  $ +%>^#%.*==*+.+ ++ + +  #@*!!* . # + . @%+ +. .. ",
"&+@ %&%++** %.#@}#$% *===$&+@  . .+&+&.@&#=!* . )+ & +%$@&.] .+&",
"+..+ ,$ ;*-#%%$# +*==!=-)+@ .   .%.+&$&@&@=!*$#+ $~+  .%#$ . . &",
"... %.%%+.**. @*-!!=* . +&$  +$ .. $&+&&+#-!*.%.( ~ $ <$ # ..++$",
"+ . &@%{#;*--===!=@  +@% '&+ .  . +%,#&$&)*=* +  +~ .%+#$%$  +. ",
"%$ +%+@$ ;.-!-!*]++%+ #,+ &.& +  . $$.. &*-=*& ]+]]+< ., # &..)$",
"].. .&&& @&*!-* +$;..,%.%  '&. . &.#>#%$*![!-%   .   +... ^#..&&",
"#+  @ &^..@&*!-  + %. @%%& $ . .%%%@  *-![[[=+#(+ + & +. $# &(&.",
"& ).& $&...+.*!**@ @.<',  $%. @$#%.--====![!=.%@$$ ++ {++.+  ]' ",
"/&+ +#$]+  %9+*!***.%$%# . #$%@'+*-==**{@/#-=*$ $# & +.$&$. .) .",
"&+ ... $. &%@+ =!=-*+ @#${@$@@%+*=***+ ';+;+@!-*$&$ $ +&.&.+ $ ]",
"+  $+& %+  @#$%--==!-*.%+&^$ .-==**#@/@'+;;;&*!=-%@@ . .%$%. )@ ",
"/&+ #' &&^#$@@*a=!* *=!!-*, ----*,@#++%/+%.'+@%!=*]%$8{$  &+].,.",
"&+. .% $%;@#$ -_=*&  $#*!*---!* @#,@%@ &<.)+.++*=!-& $8#$,)] '+ ",
".% .#$#>@{%.**!!!*# %.%%*===!=*. . +%#@#+.+%$+#.*!!=*$#d{$$ &&..",
" @&&#;'.%**---=----=!-==!==-=!-.+ &$#@+. @ %# &#$-==!=*%;^$ &..$",
".)#@{{*-=-***./ ]%@##@@#@##*=!=*...'+++..&&++ .  *---=!*@$#$ (# ",
"$'@%%*-===-*.@..#@+$>;$;$@;&*=!=**&/++%@@%+%+  7|**&&*=!=*${^#  ",
"%$%*-==-=**.+@.+..$#@&#@#;1#@***!=*#+#@&.       **&'@&@-!=*##%%$",
".*--!*$*=- +$ . ]~+++#@@#.$10#+||==*.. @$#,  % |** @@;$+>-!**@#%",
"---.. ..-=*~+' @(%+ +$##'%&@;@;}.|==* ,#%$ @& +**. ++%#4%#*-*==-",
"@&'+@;.+*=-  ..  $+ +##>+'$.+#$;;+|-=*..^>$$ +*--#@+ .+@$;@.{+@ ",
"&@@$;++9 --*~. +.@%@ @@%@&.  + #@1>|=!*/.##.+*-!-++ ]% @..#@;#+#",
" $+&#,%;@*--.$)... ++.+#+%##   ^&;@+|!=*.. **=!!-&>+++ .#.&+#@@.",
" + $% %@@ ==*.@%. + . @##@#. . ...;;;|-!_---=[!!-]@ .~+ $%/.(@+ ",
"]&+. ).&;&*--@'&+%~ +.&.+@ .. .+ '@$;#**!!==[6[!-@+&.+#'$%# ..+ ",
"+$.+ $/ @; --*$%.+ +&@$@#+.   . +&++$1|*!!===[!!-:+>+.+).@7. .  ",
".+   &. @; *=-+$%  .&&$.+ .  &. $.%&&;&*!-*.%**=-*:.>.+&     +.+",
"@ $   %<#+ *-*+## +%&,++.@%+ && ,%, @#&*=*.5@.+*-**: %+ +.+  +. ",
"%.#+  ..#..-=- > .+&.%#}@%+...+& ,&$.#>*** +5~)&*--2:%#+ .. + ..",
"].$~$&.  +|=!= $$ ,.@@#&.. ^+) $+&$&/&*** +..(.+#;*--2##$.@.&+] ",
" .&)$% <  |=!= #$+%#@.>'++7. $ .. %^#&**@%   +  @#;@*=2.#+& $   ",
"%.+$.  %+.#|-=-$%@.+@+.+.&. ..+# %@#'-**.+++ . +#@+;;-=2+@$   .(",
"$&+'@++  +. +|--@#+..+)+'@~.+&.##@#$-**%+@ . +.   #;@;-!2+@%+. .",
"&+&+## .7.+#@ -=-# &@++.. . .@#$#{*-**&#+%@+ +.&~ % ;@;-*%#>%+  ",
"+ .@@  ++ %@#.|=!##, ++%$%.{%$#$*-=** $..+@+ +.~ 7.+.;/*=* $#++ ",
"}.@.@/    % +@(*=*@$@.@' ]^{/#*--**2.$.+~    @ @ +~ .>@;*=-+#@..",
").@)~+   .+%#..|==-#{8##+%$>&*---*.,%@)#>  @  + @+ .  @+**-*]@@ ",
"+ #$   . ..+#>.|=!!-$8//{>;#*-**..%.%#.#++.&.) .%@.+ .%3#*=-*.{%",
" +..%+ .%%$@@@$*=__-*$;/;;@-=-%&+  @%^@@.+      +  .)#+%+#*-=*&>",
"# .@ #$#@$@%#%*=_6_===*@;$-!_! %$ .^.&+#.. $~ . .  +.)++;@*==*&%",
"@'@##>#@$#*=!!-==_==!!=!!!!_c_*$%>#@$# +@ + +  . +  )$  &#+==-* ",
"#>###%#*-*====*@+@;$0@$;&*==_!**$ $$>#}%+ && .% +,    $#+ 2-!--*",
" '#+--*--*#---$###+@$.>@$>#@*__=--*$.$b>$.@&# . .. $$,...2**==!-",
"-----**%@.**=*$ .%. ++.%@.4>#-__!=---* @@$^+$ .  +~. $+ 2***-!_-",
"---** .;$;.*=* ...< {'%.+.+;>-_=4+@--=-*.$#'$ .+$%'%#< *-*@$**!-",
"-**+#3@.@#<*=>  +]+.%.%@# #3#!=>&}>14**-*%@>$#%#'%$  *** +@.+*-*",
"*$'4$#& .;&-*%+%  @ {@#@.+@#-!0&+.@@9>@*-*+#@@%#^  *-**+@@&@&*--",
"++@,%@ .+&*=*+ (  &e+.@&@%.-!=}+..+@+1f;>--*&,.2**--*@.@#.%@**-*",
".%%. . +. *=@@.(.. @$&..$ *!=@+.  #{'$>1@$=!=!!!**+$ +@&+&@:--,.",
"%+%+ ... +-*$   .%%$&>.+& ==@; ~$#$&@$@&@@+-!!!*#@;##@ $@%:--,  ",
" ++@(5( ~*=@') # @&%@&+ &@=-;.   +$&.+3&.#$&-!* ++$..&$ :=-* ;##",
".@&.+(5%+--%+  .~ .+&+%,+-=$&  %+  $$#.$%.#;&--:~. @/%:==- +.]#%",
"$ &+ ~+&.=a. .$ &+ +.&$$#=*. +   +.$.&.%.+.>#/*-:&%$:*==*%;+#$. ",
". &%+(%+*=#+.++.++)+%.$%-=@ & &~ $  %  + .$&;+@=!:.:=!!* > ..%%#",
" ++%+%#.=-# .7+.. /.,$ &=*%. ~ &+&%%++..+ $&+#+*=!!!!!* $%^+ +( ",
"#+. @b^*=* ..7. . +.+$$*=+%... ...,&. .$)@.+ &@*--=!!=*%%@%%$ +&",
"$@}{#> =-{+  .%. .  %,*--%@ &+&  + & ,. @&,. 3+*-=!!---*)% #%%{^",
".+~.~ =--{ ,( +$ . .$#*-**%^&&@$@@#$$$@$&@#^@#*-=** +.*--**  )+&",
"==-====!-*@%&&%.. . **-!-**    $ .  +     ' &-=!- @;+@/@ **----*"};
