/* XPM */
static char *_aac896fc8264fe5d9a0cb239c5a90a9iOGgszW3LpoIK6AC[] = {
/* columns rows colors chars-per-pixel */
"64 64 96 2 ",
"   c #050000",
".  c #202020",
"X  c #2C2C2C",
"o  c gray19",
"O  c #343434",
"+  c gray22",
"@  c #4C0000",
"#  c #640000",
"$  c #700000",
"%  c #7C0000",
"&  c #403018",
"*  c #483818",
"=  c #543C1C",
"-  c #706C00",
";  c #5C4020",
":  c #6C4824",
">  c #744C28",
",  c #000040",
"<  c #00004C",
"1  c #000058",
"2  c #280040",
"3  c #340058",
"4  c #000064",
"5  c #000070",
"6  c #00007C",
"7  c #400040",
"8  c #440070",
"9  c #004040",
"0  c #005858",
"q  c #006C6C",
"w  c #007070",
"e  c gray25",
"r  c #484848",
"t  c #4C4C4C",
"y  c gray33",
"u  c #646464",
"i  c #880000",
"p  c #980000",
"a  c #A40000",
"s  c #B00000",
"d  c #BC0000",
"f  c #C80000",
"g  c #D40000",
"h  c #E00000",
"j  c #EC0000",
"k  c #FC0000",
"l  c #FC2020",
"z  c #80502C",
"x  c #885830",
"c  c #905C34",
"v  c #9C6038",
"b  c #A0643C",
"n  c #FC7800",
"m  c #A86840",
"M  c #B47044",
"N  c #BC7848",
"B  c #FC5C5C",
"V  c #C87C4C",
"C  c #FC7C7C",
"Z  c #848400",
"A  c #9C9C00",
"S  c #B4AC00",
"D  c #FC8820",
"F  c #CCC400",
"G  c #E4D800",
"H  c #FCF400",
"J  c #FCF420",
"K  c #D08050",
"L  c #DC8854",
"P  c #FC9840",
"I  c #E88C58",
"U  c #F0945C",
"Y  c #FCA85C",
"T  c #FC9C60",
"R  c #FCA470",
"E  c #FCF440",
"W  c #FCFC7C",
"Q  c #000088",
"!  c #000098",
"~  c #0000A4",
"^  c #0000B0",
"/  c #500084",
"(  c #60009C",
")  c None",
"_  c #008484",
"`  c gray55",
"'  c gray66",
"]  c #B4B4B4",
"[  c #FC9C9C",
"{  c #FCB080",
"}  c #FCB890",
"|  c #FCBC9C",
" . c #FCC4A4",
".. c #FCD4BC",
"X. c #C0C0C0",
"o. c #FCE0D0",
/* pixels */
") ) ) ) ) ) ) ) ) ) ) ) ) ) ) ) ) ) ) ) ) ) ) ) ) ) ) ) ) ) ) ) ) ) ) ) ) ) ) ) ) ) ) ) ) ) ) ) ) ) ) ) ) ) ) ) ) ) ) ) ) ) ) ) ",
") ) ) ) ) ) ) ) ) ) ) ) ) ) ) ) ) ) ) ) ) ) ) ) ) H W W W W W E E E E E G G G S ) ) ) ) ) ) ) ) ) ) ) ) ) ) ) ) ) ) ) ) ) ) ) ) ",
") ) ) ) ) ) ) ) ) ) ) ) ) ) ) ) ) ) ) ) ) ) ) ) ) H H W W W W W J J G G G F S A ) ) ) ) ) ) ) ) ) ) ) ) ) ) ) ) ) ) ) ) ) ) ) ) ",
") ) ) ) ) ) ) ) ) ) ) ) ) ) ) ) ) ) ) ) ) ) ) ) ) H H H H H H H G F F F F S S A ) ) ) ) ) ) ) ) ) ) ) ) ) ) ) ) ) ) ) ) ) ) ) ) ",
") ) ) ) ) ) ) ) ) ) ) ) ) ) ) ) ) ) ) ) ) ) ) ) ) n H H H H H H G F F F F S S n ) ) ) ) ) ) ) ) ) ) ) ) ) ) ) ) ) ) ) ) ) ) ) ) ",
") ) ) ) ) ) ) ) ) ) ) ) ) ) ) ) ) ) ) ) ) ) ) ) ) n H R R R H H G F F R R U A n ) ) ) ) ) ) ) ) ) ) ) ) ) ) ) ) ) ) ) ) ) ) ) ) ",
") ) ) ) ) ) ) ) ) ) ) ) ) ) ) ) ) ) ) ) ) ) ) ) ) D R R U U L R R R L U U U L D ) ) ) ) ) ) ) ) ) ) ) ) ) ) ) ) ) ) ) ) ) ) ) ) ",
") ) ) ) ) ) ) ) ) ) ) ) ) ) ) ) ) ) ) ) ) ) ) ) M D R R R R R K K K R R R U L D x ) ) ) ) ) ) ) ) ) ) ) ) ) ) ) ) ) ) ) ) ) ) ) ",
") ) ) ) ) ) ) ) ) ) ) ) ) ) ) ) ) ) ) ) ) ) ) ) M P  .b = N L R { R L N = b V P x ) ) ) ) ) ) ) ) ) ) ) ) ) ) ) ) ) ) ) ) ) ) ) ",
") ) ) ) ) ) ) ) ) ) ) ) ) ) ) ) ) ) ) ) ) ) ) ) z Y  .X.! k % N M c % ^ k ' V Y : ) ) ) ) ) ) ) ) ) ) ) ) ) ) ) ) ) ) ) ) ) ) ) ",
") ) ) ) ) ) ) ) ) ) ) ) ) ) ) ) ) ) ) ) ) ) ) ) M L R  .{ T T R } N I I I T V M x ) ) ) ) ) ) ) ) ) ) ) ) ) ) ) ) ) ) ) ) ) ) ) ",
") ) ) ) ) ) ) ) ) ) ) ) ) ) ) ) ) ) ) ) ) ) ) )   L T }  . .{ K K b R | | T V M   ) ) ) ) ) ) ) ) ) ) ) ) ) ) ) ) ) ) ) ) ) ) ) ",
") ) ) ) ) ) ) ) ) ) ) ) ) ) ) ) ) ) ) ) ) ) ) r   L T I { } R U U U T } U M V M     ) ) ) ) ) ) ) ) ) ) ) ) ) ) ) ) ) ) ) ) ) ) ",
") ) ) ) ) ) ) ) ) ) ) ) ) ) ) ) ) ) ) ) ) ) ) r + V R K U { ' ......' R L b V >     ) ) ) ) ) ) ) ) ) ) ) ) ) ) ) ) ) ) ) ) ) ) ",
") ) ) ) ) ) ) ) ) ) ) ) ) ) ) ) ) ) ) ) ) ) ) X r X R K U R @ @ % p p R L b V       ) ) ) ) ) ) ) ) ) ) ) ) ) ) ) ) ) ) ) ) ) ) ",
") ) ) ) ) ) ) ) ) ) ) ) ) ) ) ) ) ) ] ] ) ) )       R K U R ' o.o.o.' R L M V       ) ) ) ) ] ] ) ) ) ) ) ) ) ) ) ) ) ) ) ) ) ) ",
") ) ) ) ) ) ) ) ) ) ) ) ) ) Q Q Q Q ` ` Q Q 5       x R U U U R R R U U L V =       1 1 5 Q ` ` Q Q Q Q ) ) ) ) ) ) ) ) ) ) ) ) ",
") ) ) ) ) ) ) ) ) ) ) Q Q ! ! ! ! X.[ [ ` Q Q 1     , R R R R I V I R R L m <     1 1 1 5 X.[ [ ` Q Q Q Q Q Q ) ) ) ) ) ) ) ) ) ",
") ) ) ) ) ) ) ) ) Q Q ! ! ! Q Q Q k B B k Q Q 5 1 1 , x M m v c > c z z z : , < 1 1 1 5 5 k B B k 6 6 6 Q Q 5 4 4 ) ) $ ) ) ) ) ",
") ) ) ) ) ) ) ) Q Q ! ! ! Q $ 6 6 6 6 6 6 6 6 6 5 5 4 1 4 5 4 4 1 < < < < , 4 4 5 5 6 Q Q Q Q Q Q Q Q 6 6 6 Q 5 5 1 $ ) ) ) ) ) ",
") ) ) ) ) ) ) Q Q ! ! ! Q Q % 6 6 6 6 6 6 6 6 6 6 6 6 6 6 4 1 , , , , , , 4 6 6 6 6 / / / / / / / / / Q Q 6 6 5 i $ i ) ) ) ) ) ",
") ) ) ) ) ~ ~ ~ ~ ~ ~ ~ Q Q i Q Q Q Q Q Q 6 6 6 6 6 6 6 6 6 6 < 4 4 Q 6 6 Q Q Q / $ ( ( ( ( ( ( ( 8 / ! ! ! ! i $ i 5 5 , ) ) ) ",
") ) ) ) ) 5 5 4 1 1 1 , , a p $ / / / / / Q Q 6 6 6 6 6 6 6 6 < 4 4 Q 6 Q Q Q / ( ( $ i ( ( ( + _ w + + , , i d i         ) ) ) ",
") ) ) ) ) )           + + a f i < ( ( ( ( / Q Q Q 6 6 6 5 5 5 < 4 4 Q Q Q Q / / ( ( i $ i + + _ . . 0 9 i d d i         ) ) ) ) ",
") ) ) ) ) ) Q Q Q $ $ $ w f f p 0 + $ $ ( ( / / Q Q 6 6 5 5 5 < 4 4 Q Q Q / / ( ( ( ( i d d p w g + i i d k d q y 4 , , ) ) ) ) ",
") ) ) ) ) Q Q Q + $ f i w f - s 9 i f $ ( ( ( / / / 6 6 5 5 5 < 4 4 Q Q / / / ( ( ( ( p d j d d k i d k k d i . 0 9 4 , , ) ) ) ",
") ) ) ) Q Q Q + % w i d d f - s d f i $ < % ( / / / / 6 5 5 5 < 4 4 Q / / / / ( ( ( ( _ d d g k k g k - k d i 9 0 0 4 1 , ) ) ) ",
") ) ) ) Q Q Q + w _   d - s - j g g i   0 7 7 7 7 7 7 7 , , ,         7 7 7 7 7 7 7 + w p d s Z C k Z k d i 0 9 . 0 9 1 , ) ) ) ",
") ) ) Q Q Q $ i p s g g g j Z - j g s p i $ $                                       + . 0 i s B G G B g g a 9 . . 0 9 X , , ) ) ",
") ) $ % i p a d l l j - - Z G Z - - j - d s a p i % $ . . . . . . . . . . . . . . a + a a g g k G G B k k g a a . 9 9 X , , ) ) ",
") ) 1 1 5 5 $ $ $ i g g j j Z - s d d a p i $ e e e e + + O O o X X e + + + e e e e + . _ i s k k B Z h i w 9 . . 9 X X , , ) ) ",
") ) 1 1 5 4 + . 9 0 i d d j - j j d # w . + + e + + + + X X X . X X O X X O + + + + + _ . s k s s f h h l p 0 9 . X X     , ) ) ",
") ) 1 1 1 1 + . 0 i g d d s j s d d i $ 0 + + + X X X . . . . . X X X . . . X X X X   w i g s i i i f l l i p 9 X X X       ) ) ",
") ) ) 1 1 < < . 0 i g g i s j s # i g # 9 + + + + + + + + + O O O o o O O + + + + + . + $ i 9 _ . . p p i d i . X X 1 1     ) ) ",
") ) ) < < < 5 . $ g i i 0 p d p 0 $ # # . X e r t y y y y t t r r r r t t y y y y r o X . . . w . + 0 9 p p $ p X 1 1 , ,   ) ) ",
") ) ) ) < < 5 5 $ $ $ . 0 $ l i 9 . . ) ) . . . . . X e e r r r r r e e + X               . . . 0 0 9 . . . i $ 1 , , ,   ) ) ) ",
") ) ) ) ) < 5 5 N ; . . 9 0 s $ . . ) 5 8 8 8 8 8 3 . .     X O O O O O                     < . . . . . & * ,   $     ) ) ) ) ) ",
") ) ) ) ) ) 5 5 N N ; . . . p $ ) ) 5 < 2 2 2 2 3 8 8 < . .                                 . 5 v > > > = & , , , ) ) ) ) ) ) ) ",
") ) ) ) ) ) 5 5 x N v v v z i ) ) 5 < 8 / ( ( / < 2 2 . < < . . . .       2 3 3 8 8 8 8 8 3 < 5 v > > > = , , ) ) ) ) ) ) ) ) ) ",
") ) ) ) ) ) ) 5 Q N v v v z % ) 5 < 8 / ( ( / / 8 < < < . . < , . .   1 3 3 . . . . . . . . . . . , X . . . ) ) ) ) ) ) ) ) ) ) ",
") ) ) ) ) ) ) ) ) ) ) ) ) ) $ 5 5 8 / ( ( ( / / 8 < < < , , . ,     , . . . < < 3 3 3 3 3 < < < , , ) ) ) ) ) ) ) ) ) ) ) ) ) ) ",
") ) ) ) ) ) ) ) ) ) ) ) ) ) ) 5 8 8 / ( ( / / 8 8 < < < , , , ,     . , , < < < 3 3 3 3 3 < < , , , + ) ) ) ) ) ) ) ) ) ) ) ) ) ",
") ) ) ) ) ) ) ) ) ) ) ) ) ) 5 5 8 / ( ( ( / / 8 3 < , , , a # , ) ) , , , < < < 3 3 3 3 < < < , , , + ) ) ) ) ) ) ) ) ) ) ) ) ) ",
") ) ) ) ) ) ) ) ) ) ) ) ) ) 5 8 8 / ( ( ( / / 8 3 < , , , # r + ) ) + # # < < < < 3 3 < < < < , , , , ) ) ) ) ) ) ) ) ) ) ) ) ) ",
") ) ) ) ) ) ) ) ) ) ) ) ) ) 5 8 / ( ( ( / / 8 8 3 < , , , , X ) ) ) X + # < < < < < < < < < < , , , @ , ) ) ) ) ) ) ) ) ) ) ) ) ",
") ) ) ) ) ) ) ) ) ) ) ) ) 5 5 8 / ( ( ( / / 8 3 < , , , , , , ) ) ) ) , , , < < < < < < < < < , , , + , ) ) ) ) ) ) ) ) ) ) ) ) ",
") ) ) ) ) ) ) ) ) ) ) ) ) 5 5 8 / ( ( ( / / 8 3 < , , , a # ) ) ) ) ) X # , , < < < < < < < , , , ,   , , ) ) ) ) ) ) ) ) ) ) ) ",
") ) ) ) ) ) ) ) ) ) ) ) )                 , , < , , , , # + ) ) ) ) ) X + , , , , < < < < , , , , ,   , , ) ) ) ) ) ) ) ) ) ) ) ",
") ) ) ) ) ) ) ) ) ) ) )   8 8 / / / 8 8 3 , ,     , , , + ) ) ) ) ) ) ) ,   , , , , , , , , , , ,   , , , ) ) ) ) ) ) ) ) ) ) ) ",
") ) ) ) ) ) ) ) ) ) ) 5 5 8 8 / / / 8 8 3 < , ,     , ) ) ) ) ) ) ) ) ) , 6   , , , , , , , , ,   , ,   , ) ) ) ) ) ) ) ) ) ) ) ",
") ) ) ) ) ) ) ) ) ) ) 5 5 8 8 / / 8 8 3 3 < , ,     ) ) ) ) ) ) ) ) ) ) ) , 6                   , , ,   , ) ) ) ) ) ) ) ) ) ) ) ",
") ) ) ) ) ) ) ) ) ) ) 5 5 5 8 8 8 8 8 3 3 < , ,     ) ) ) ) ) ) ) ) ) ) ) ) 4 1 1 , , , , , , , , ,     , ) ) ) ) ) ) ) ) ) ) ) ",
") ) ) ) ) ) ) ) ) ) ) )                           ) ) ) ) ) ) ) ) ) ) ) ) ) ) 6 1 , , , , , , ,         , ) ) ) ) ) ) ) ) ) ) ) ",
") ) ) ) ) ) ) ) ) ) ) 5 5 5 5 4 4 1 1 < < < , , ) ) ) ) ) ) ) ) ) ) ) ) ) ) ) ) 6 1 , ,               , ) ) ) ) ) ) ) ) ) ) ) ) ",
") ) ) ) ) ) ) ) ) ) ) < < < < < < < , ,         ) ) ) ) ) ) ) ) ) ) ) ) ) ) ) ) ) ) 1 ,               ) ) ) ) ) ) ) ) ) ) ) ) ) ",
") ) ) ) ) ) ) ) ) ) ) 5 5 5 5 5 1 1 < < < , , , ) ) ) ) ) ) ) ) ) ) ) ) ) ) ) ) ) ) ) 1 , ,         , ) ) ) ) ) ) ) ) ) ) ) ) ) ",
") ) ) ) ) ) ) ) ) ) ) 5 5 5 5 5 1 1 < < < u r ) ) ) ) ) ) ) ) ) ) ) ) ) ) ) ) ) ) ) ) 1             , ) ) ) ) ) ) ) ) ) ) ) ) ) ",
") ) ) ) ) ) ) ) ) ) ) ) 5 5 5 1 1 < < , , r r ) ) ) ) ) ) ) ) ) ) ) ) ) ) ) ) ) ) ) ) , , , , , ,   , , ) ) ) ) ) ) ) ) ) ) ) ) ",
") ) ) ) ) ) ) ) ) ) ) ) < < < < < < < , , , ) ) ) ) ) ) ) ) ) ) ) ) ) ) ) ) ) ) ) ) 6 6 1 1 1         , ) ) ) ) ) ) ) ) ) ) ) ) ",
") ) ) ) ) ) ) ) ) ) ) < 6 6 6 6 6 6 5 < < ) ) ) ) ) ) ) ) ) ) ) ) ) ) ) ) ) ) ) ) ) 1 1 , , , , , , , , ) ) ) ) ) ) ) ) ) ) ) ) ",
") ) ) ) ) ) ) ) ) ) ! ! 5 5 5 5 1 1 1 6 1 , ) ) ) ) ) ) ) ) ) ) ) ) ) ) ) ) ) ) ) ) , , , , , , , , , , X X X X + + + + r r u ) ",
") ) ) ) ) ) ) ) ) ) ! 5 ! ! ! ! ! 6 6 6 1 , ) ) ) ) ) ) u u u u y y y r r r r + + + + + + X X X X X X X X X X X + r r y y u ) ) ",
") ) ) ) ) ) ) ) ) ) ! ! 5 5 1 1 1 6 6 1 4 , u y r r r r + + X X X X X X X X X X X X X X X X X X X X X X X X + + r y y u u u ) ) ",
") ) ) ) ) ) ) ) ) ) ! 5 ! ! 6 6 6 1 6 4 1 X X X X X + + + + + + + r r r y u u ) ) ) ) ) ) ) ) ) ) ) ) ) ) ) ) ) ) ) ) ) ) ) ) ) "
};
