/* XPM */
static char * gargola_xpm[] = {
"57 64 17 1",
" 	c None",
".	c #000000",
"+	c #686860",
"@	c #505040",
"#	c #787870",
"$	c #383830",
"%	c #181818",
"&	c #101008",
"*	c #404038",
"=	c #282820",
"-	c #202018",
";	c #989890",
">	c #909080",
",	c #000008",
"'	c #B0B0A8",
")	c #202020",
"!	c #680000",
"..................++@@...........@@++....................",
".................#$%%.............%%$#...................",
"................+$%.................%$+..................",
"...............@$%...................%$@.................",
"..............@$&.....................&$@................",
"..............@&%.....................%&@................",
".............+@&%@...................@%&@+...............",
"............@@@&&&$$...............$$&&&@@@..............",
"............$$@$&&&&$.............$&&&&$@$$..............",
"...........$$$*$&&&&&.............&&&&&$*$$$.............",
"...........$$=$*$&&.................&&$*$=$$.............",
".........=====$=$$&.................&$$=$=====...........",
".........$=$%%=$=$$.................$$=$=%%$=$...........",
".........$%$=-=$@$$@...............@$$@$=-=$%$...........",
".........==$=%==$@=$$.............$$=@$==%=$==...........",
".........=%$=%%=$$@=%%.....;.....%%=@$$=%%=$%=...........",
"..........%$$%==%$@#$=%..&+>+&..%=$#@$%==%$$%............",
"..........%$@-=%%%$@#*=%-%$#$%-%=*#@$%%%=-@$%............",
"...........=@$==-%-$>#$$$$&+&$$$$#>$-%-==$@=.............",
"...........%@*%$$=%%@#@@*$,$,$*@@#@%%=$$%*@%.............",
"............$#%&&===-@#@$$&*&$$@#@-===&&%#$..............",
"............%>$&&%$$%$+@==+'+==@+$%$$%&&$>%..............",
".............=>%&&=*-%$+@==@==@+$%-*=&&%>=...............",
"..............==&,,@@%=*@@&@&@@*=%@@,,&==................",
".................,,,#$$=$+=@=+$=$$#,,,...................",
".................,,,@@$$$@+'+@$$$@@,,,...................",
"................&,,,,*=$*$@+@$*$=*,,,,&..................",
"................,,,,,%$=%%&+&%%=$%,,,,,..................",
"..........,&&...,&&&,,=$$=%@%=$$=,,&&&,...&&,............",
".........&%$%,..,&&&&,,$@-+;+-@$,,&&&&,..,%$%&...........",
".........&%*$%,.,&&&&&,%$-%$%-$%,&&&&&,.,%$*%&...........",
".........&&%$%&&&%=$%&,,%$&$&$%,,&%$=%&&&%$%&&...........",
"........,&&%==&&%$$@@%&,&==+==&,&%@@$$%&&==%&&,..........",
"........,&&&%$&&,%%%@@&,%$+;+$%,&@@%%%,&&$%&&&,..........",
"........,&&&%%&&,,&&%%&%=%-@-%=%&%%&&,,&&%%&&&,..........",
"........,&&%&%&&,,,&&-&&=-$@$-=&&-&&,,,&&%&%&&,..........",
"........,&&-&&-&&,,,,-=,-=$@$=-,=-,,,,&&-&&-&&,..........",
"........,&&%&&%=&&&,,%$---$@$---$%,,&&&=%&&%&&,..........",
"........,&&=&&%)&,&&,%$$@$$@$$@$$%,&&,&)%&&=&&,..........",
"........,&%=%&%%%,&&,&$@+@@%@@+@$&,&&,%%%&%=%&,..........",
"........,,&)%&&%&,&%,&=@++@%@++@=&,%&,&%&&%)&,,..........",
".........,&%$&&&&,,,,&%%@+@%@+@%%&,,,,&&&&$%&,...........",
".........,&%=-&&&,,,,&%%%$+,+$%%%&,,,,&&&-=%&,...........",
".........,,&=$%&&&,&,,%%!%*+*%!%%,,&,&&&%$=&,,...........",
"..........,&-)%&&&,&,,&&%!!,!!%&&,,&,&&&%)-&,............",
"..........,&%%)%&&,,&,,&&%,,,%&&,,&,,&&%)%%&,............",
"..........,&&%=%&&&,,,,,%%%)%%%,,,,,&&&%=%&&,............",
".........=,&&%)%%&&&,,,,=,$,$,=,,,,&&&%%)%&&,=...........",
".......==$,&&&%%%&&&,,,,$,@&@,$,,,,&&&%%%&&&,$==.........",
"......=$&&,,&&%=%&&&,..,$,,,,,$,..,&&&%=%&&,,&&$=........",
"......=&...,&&%)%%&&,..,@&@&@&@,..,&&%%)%&&,...&=........",
"......&....,&&)=%&&,,..&,$@=@$,&..,,&&%=)&&,....&........",
".........--,==$%&&,,....&,&$&,&....,,&&%$==,--...........",
".......%%==@**)&,,,......,,,,,......,,,&)**@==%%.........",
"......%%%&&%$$=&%%&.................&%%&=$$%&&%%%........",
"....&%%&,,)=))=%&%%,...............,%%&%=))=),,&%%&......",
"...&%,,,,=)%&&%)&&,,,.............,,,&&)%&&%)=,,,,%&.....",
"..&%&,..))%&,,&&--..,,...........,,..--&&,,&%))..,&%&....",
".&%&,..&)%,...,&&%&.................&%&&,...,%)&..,&%&...",
".,&,..&%&&.....,&&%&...............&%&&,.....&&%&..,&,...",
".@&..&,,&.......&&&,,.............,,&&&.......&,,&..&@...",
".*...&@&..........&&@.............@&&..........&@&...*...",
".....&*&...........&*.............*&...........&*&.......",
"......@.............@.............@.............@........"
};
