/* XPM */
static char *result[] = {
/* columns rows colors chars-per-pixel */
"64 64 28 1 ",
"  c #730000",
". c #670000",
"X c #5B0000",
"o c #8B0000",
"O c #7F0000",
"+ c #332B13",
"@ c #3F2F17",
"# c #43331B",
"$ c #2B230F",
"% c #272727",
"& c #9B0000",
"* c #430000",
"= c #2F2F2F",
"- c #4B371B",
"; c #170F07",
": c #4F3B23",
"> c #4F0000",
", c #1F170B",
"< c #070707",
"1 c #1B1B1B",
"2 c black",
"3 c #A70000",
"4 c #232323",
"5 c #131313",
"6 c #574333",
"7 c #373737",
"8 c #B30000",
"9 c #533F1F",
/* pixels */
"@+%%++%%##-9-##-6:@##@@@+=#+++=@$%#@=@@-+=++@@+$@@#+=@##$+%%++%%",
"%%%%$+%7$%#:-@+@$@+#-@#@$%%%+%#@$%##+@@@$%%+%#++$+#@+@#@$+%%1;1@",
"++==%=%2,$#-#@@<,$@:-+#<5$%@+@+<,%#@+@@;5%++=#+<,$#@+@#;,$+$$14+",
"+$%++=%1%+#-##@$$+#:-@:$$+%%+%%$%%#@+@@$$$+=%@+%$+#@+@=$$%=$%%%%",
"%%$$ OO  OO OO  OOOO  OO O OOO   O O O OOO O OO O O O   ooo.$%4%",
"%%+=O3oOOO&Oo&Oooooo&&&&OOOX..XXXXXX.O&ooOOo&&OO&&o&&&3&&&&O+%$+",
"++$%o&ooOOooooooOooOo&O.X.>*X********X ..OO&&o&ooo&&&3&&33&O==++",
"$$,$o&oOOOo&o&oOooOo .XX>***XXXXXXXX***X*X.o&Oo333&&3&&33&3 %%%%",
"#@;$O&&O&o&&o&OoooO X*XXXX;;&o&&&&oOXXXX>*X.&3&&&&&&&&&3&&3 127%",
"###=O&ooO&&&ooooooXX**X &&** o&&oooOo&o XXXX  &33&&&&&8833&O%,$#",
"@@@@OoOOooooo&oo X>*X.&&&o*X &&&ooOOoOO&&O .XX o&33&3&&&&&&O+$%#",
"=+++ oOO&&oOoOX***X&ooo&o&*XX  &33oOO&&oO&&oo XXX.O&&&&ooooO###-",
"+@@@ O&ooooo X**X.&ooo & o*Xo. &3&OOoOOOOOo&&O .>*.O&&8&&oO --:9",
"####O&o&oOoOX**X &oOoo   &*.&X.O&&&3&OOOO&o&&& X*;*X&&&&oo&O##--",
"@+$+O&ooOOO **X&oOOOoOOOo&*.&O. &&&&ooOOo&OoO.******&&&oOOoO#@@#",
"@$,$ ooOOOOX*XoOooOOoOOOo&*XoOXXO8OOooooOO XXX>**OX*.&ooOoo @@+#",
"$+<% OOOOO *XooOooOOOOOOoo*XO&O. .&&&oOo XXXXXX*X&OX* OO&o&O$<@-",
"++++ OOOOOX*&OOooOOOOOOOOO*X&&&O  &&O XXXXXX&O.XoOoO*XOOOOOO$,$6",
"@##@ Oo& **XoOOOOO O& OOOO*XoOoO XXXXX &&&&3 X*oo&o&X** o&&O+$@:",
"@%=% OOOX**o&&OOOOOOOOO& O*XOOO X**> &Oo&oo&OX.&&&OO&X*XOo& #@+@",
"+++= Oo **XOOOOOOOo&OOOOOO*X XXXX**XOOoOOo&&.*oO oO&&.** Oo ::##",
"+%++.O X**  OOOOOO.oO& &O **XXXX OOXOo&OOoooXX&oO O&&&X*XOO ---#",
"=%%$   **Xo OOOOOOOOOO   X**>XOOoO&X Oo&oOoOXOO&&&&&o&.** o @+@@",
"+$5$ OX**O   OOOOOOOO .X**** OO OO &.OOOo&O X&OooooOO&o>*Xo :##@",
"-@;$O&***OOOOOO  OOOXXX***;.  . oOO&X OOooOXo&OOo&oooOOX**& $<@@",
"@@@@..**       XXXXXX OO O**  ..o. OOXXOoOXXOOooOo&oOO  **. $5$+",
"@@@@ X**  OO XX>>**XO .   **.  .X.  OXX o XXOo&oOoooOO  **X +$%=",
"=+++ **X  O X>*** Oo      **.       OOXX XXoOoOo&oOOOOO X** %%%#",
"@#@@ **X.XXXX*  O     .  X*X.X.     &OOXX>X&&OoooOOoOOOO.**O%@%+",
"#### **>*X**    o  O      ** X. X . OOOX*>OoooooOoOOoo   ** ++++",
"%%%% *;*;** Oo   .    ... **. .     O&OX*>&OoOoOOoOO&&O O** %@%+",
"$$,% *2;***>   o.X OO    .*Xo. ..  .   X*>XOOOOOOOOOOOo  ** %+#=",
"@@<$.**  . XXXX>XX  oO  OO*X X   ..   XXX X.OOOoooO OOo&O** $<@@",
"=#+% **   X XXXXX>>.&oOOO **o O.  O  XXXo XXOOOOOO&&Oo oO** %,$$",
"+%@% **    .OOOXX**> OoooO*X  ..X ..XXXXOO XOo&OOOOoOo&  ** %%%%",
"++++.**X      OOOOX*XXX OO*X ..  .X.X>Xo.O X &OooOOooo  X** ####",
"+%@% >*X       OO OOXXXXXX*Xo X OXO.XXO oOO .oOOOOOOO  &X** @@#@",
"#%%% X**         . O&O  .X** OOX.O. >X&oOOOOX.O&OOoOO O **X +++=",
"=%$+..**           OOo&&O.***XX.XXOXXO&oOoo XX OO&OOO&  **X @@@@",
"+$5$  **X          OOOoooo*XOX>*X***  OoO OO& X OOO o&OX**o @@@@",
"@@<$. X**   .       O&OOoo*XOOO >****XOOOOOOOOX &ooo&O **>  $;@-",
"@##:.  **X oO        O OOO*X OO.  **XXXX O  OO . OO&O X**   $5$+",
"@@+@.  X**     .  OO .  OO*XO&O OX;> XXXXXXO  OXX.OoO >*>O  $%%=",
"#---X  X**>.     O&OO     *X O. .**  OOXXX*>X O XXoooX**  . ++%+",
"##::. . ***   O   O       *X .X X*XO   OOoXXX>XXXX &&**XO  O=+++",
"@+@#.   X**>o  O XX. OO   **   X;;  O OO OOoXXX*>*XoX**o    %=%@",
":@$+X    X>*X.. . O  O    *X OX**      O    OO&o&X****    ..@##@",
"6$,$.    .X**XXXXXXX X   O*X..**> X   .  X O  O Oo ** O   OX++++",
"-@<$.  ..XX***XXX XX.XXX  *X.X** X   OOO  O& OO O X*X&O. OOX%<+$",
"#+@@..  .XXX**>X.XXX.OXXX.**.*** XO    OOO     O X**O    .  $,$@",
"#@@#.   .XXXX***XXXXX. OO *XX;; XOX  OO        X***XX      .+$+@",
"--##X    XXX.X****X X O&OX*X***OXX  O  .O O  .X***X.o     .X####",
"9:--.    XXXX>*;;**XXX O  ***; O. OO    O O X*****O        .@@@+",
"-###X.X   X.X>X X*****XXX.*2* X X O X.   XXX**X OO O  . X...+++=",
"#%$+.O..X   XXX...******X *2*  X XX..  XXX**XX  oO X.   .  .@@@@",
"#$,% o..    XXXX  XX*****222.X>XXXXX>X>X***Xo   O  O   .XXX.=###",
"%721 &      XXX o .X.**;**22*************XXo ..O  O...   .XX$;@#",
"%%%% OX    OXX.   ....X****2;;;;********X    o.   . .   . ..$,$$",
"++==XXX.    . X..o  X OO.XX*********X.O  o o        ...XX..X%$++",
"+$%+XXXXXXXXXXXXXX.XXXXXXXXXXXXXXXXXXXX.XXXXX..X.XXXXXXXXXXX=+%%",
"%4%$=%$$=@+@#+$%+@%=+$$$@@+@#%%$%%+%%+$$:@-:#+$$@##-#+%1%=+$%$1%",
"%%%%+$,;#@+@#$,<+#=++%5;@@+@#%,<+@+@%$5<#+-:@$,<@@#-#$,2%=%%%1;+",
"+41$%+$@#@+@#+$++#%+%%$@@@+##%$@#%+%%%$@#@-#+@$@+@-:#%$7%+$4%41+",
"@1;1%+$##@=+#@@$+@@++=+-@@=@#%$@=+++#=+@@@##@:6-##-9-##%%++%%+@%"
};
