/* XPM */
static char *_4d5513b473d4b828bd196115af93e34ZtaVmuD5DDEvItFh[] = {
/* columns rows colors chars-per-pixel */
"256 32 27 1 ",
"  c #0B0B0B",
". c #131313",
"X c #1B1B1B",
"o c #232323",
"O c #272727",
"+ c #2F2F2F",
"@ c #373737",
"# c gray23",
"$ c #434343",
"% c gray28",
"& c gray31",
"* c gray34",
"= c #5B5B5B",
"- c gray39",
"; c gray42",
": c #6F6F6F",
"> c #777777",
", c gray50",
"< c #838383",
"1 c #8B8B8B",
"2 c #9C8A8A",
"3 c #939393",
"4 c #979797",
"5 c #9F9F9F",
"6 c #A7A7A7",
"7 c gray67",
"8 c #B7B7B7",
/* pixels */
"4<,:,>>:;;;;-;::,:;;;,-;1<,,>>>>:>:><<,<1<,:,>#=3;;;:>>>:>:;>>::;;,>:;;,,,-;;;>;:-,:<>>;;;:,>>;;:::><<,<+5446666666666666666666666666666664665;;;:>>>:>:;>>::;;,>:;;,,,-;;;>;:-,:<>>;;;:,>>;;:::><<,<+;;;:;:>>>:>:;>>::;;,>:;;,,,-;;;>;:-,:<>>;;;:,>>;;:::><<,<+",
"4<,:,>>:;;;;-;::,:;;;,-;1<,,>>>>:>:><<,<1<,:,>#=3;;;:>>>:>:;>>::;;,>:;;,,,-;;;>;:-,:<>>;;;:,>>;;:::><<,<+5446666666666666666666666666666664665$&%*******=***%&$-*=&&:&&&#%&-%&&&$;&-O$$%*&%%%%&=-=;--+$&%*%*******=***%&$-*=&&:&&&#%&-%&&&$;&-O$$%*&%%%%&=-=;--+",
"<>*****%&$%&%%%&&-$&%-#$::;&%****&=-=;--:>****o%<$&%*******=***%&$-*=&&:&&&#%&-%&&&$;&-O$$%*&%%%%&=-=;--+>                                   3%%%%-*&**==**-&%%*==&%&&&&&%%&$&&*&;-*@$$%&&&*-&&*===>:O%%%%%%-*&**==**-&%%*==&%&&&&&%%&$&&*&;-*@$$%&&&*-&&*===>:O",
"<>---**&%%&%%$%***&&%&=%>:;;%******===>:;>---*o&<%%%%-*&**==**-&%%*==&%&&&&&%%&$&&*&;-*@$$%&&&*-&&*===>:O> XXXXXXXXXXXXXXXXXXXXXXXXXXXXXXXXX 1#%&&#***&==**%&%#=*=&@&*=%*%%%@=&-&-*&$$+%=&%&&&-***->-o#%&&&&#***&==**%&%#=*=&@&*=%*%%%@=&-&-*&$$+%=&%&&&-***->-o",
",;->***&%#&#=%#%-*&=%=&%=*;;&****%***->--;->**o&<#%&&#***&==**%&%#=*=&@&*=%*%%%@=&-&-*&$$+%=&%&&&-***->-o> XXXXXXXXXXXXXXXXXXXXXXXXXXXXXXXXX <%&%&%**&*-***%&%%**=*&%&&%*%%%*-=-**;*$%O$*&%%%%&&&*:;-o%&%&%&%**&*-***%&%%**=*&%&&%*%%%*-=-**;*$%O$*&%%%%&&&*:;-o",
",>->*&**%%%&%%$%&-&%%&=%-;>-&&****&&*:;-->->*&o*<%&%&%**&*-***%&%%**=*&%&&%*%%%*-=-**;*$%O$*&%%%%&&&*:;-o: XXXXXXXXXXXXXXXXXXXXXXXXXXXXXXXXX <$&&*%*;*%--%&&-&$==-&*=-&&+@&>-&&;*--*$%*%&-&%$%*&**---+$&&*&*%*;*%--%&&-&$==-&*=-&&+@&>-&&;*--*$%*%&-&%$%*&**---+",
"<>;--&**&$&&%%$$&**&$&&%**-*-&**&&&**---:>;--&o*<$&&*%*;*%--%&&-&$==-&*=-&&+@&>-&&;*--*$%*%&-&%$%*&**---+: XXXXXXXXXXXXXXXXXXXXXXXXXXXXXXXXX <&%%**&*-&-=%%&&&&==*&&&=&&@&&%@$&;$;;*$%:%*-&&&&---=;-:O&%%*%**&*-&-=%%&&&&==*&&&=&&@&&%@$&;$;;*$%:%*-&&&&---=;-:O",
"<;**-*&*&&&&#%=$&=%&$&*$--&-****&*--=;-:;;**-*X*<&%%**&*-&-=%%&&&&==*&&&=&&@&&%@$&;$;;*$%:%*-&&&&---=;-:O: XXXXXXXXXXXXXXXXXXXXXXXXXXXXXXXXX <&%&&***-=:=*%&=$&=*=%&&-&*%%@#%&&-*-**#%&&&==*-&-==*-->O&%&&&&***-=:=*%&=$&=*=%&&-&*%%@#%&&-*-**#%&&&==*-&-==*-->O",
"<&-**-&*$&&&&@%**&&%&%&$=*O&-*&*&*==*-->;&-**-X*<&%&&***-=:=*%&=$&=*=%&&-&*%%@#%&&-*-**#%&&&==*-&-==*-->O: XXXXXXXXXXXXXXXXXXXXXXXXXXXXXXXXX 1%%&**&*-=-***&*$%*=-%&%&&%&%$%%&$-$;-&#%&&%-=*=&;=**-->o%%&*&**&*-=-***&*$%*=-%&%&&%&%$%%&$-$;-&#%&&%-=*=&;=**-->o",
",;;-&-**$%%&%&-&%&-%&%&$><--&***&*=**-->-;;-&-o*<%%&**&*-=-***&*$%*=-%&%&&%&%$%%&$-$;-&#%&&%-=*=&;=**-->o: XXXXXXXXXXXXXXXXXXXXXXXXXXXXXXXXX 1=%&&&***=-*&%&**==**=&%%&%%%%$$&$-*;-&%#&&&*==*===*--;;O=%&&&&&***=-*&%&**==**=&%%&%%%%$$&$-*;-&%#&&&*==*===*--;;O",
"<:;-*;***=$&&$%&&--&=$&&<>>$=;***-=*--;;;:;-*;o*1=%&&&***=-*&%&**==**=&%%&%%%%$$&$-*;-&%#&&&*==*===*--;;O> XXXXXXXXXXXXXXXXXXXXXXXXXXXXXXXXX <&%%&&***=-==&&*%&=**&%%&&%%%%@$&&$*;*&%$%%&-%=&=&-&*;>>O&%%&%&&***=-==&&*%&=**&%%&&%%%%@$&&$*;*&%$%%&-%=&=&-&*;>>O",
"<;-***&*%&%&$%$&*=&%%%-%>-;=;*****-&*;>>;;-***X*<&%%&&***=-==&&*%&=**&%%&&%%%%@$&&$*;*&%$%%&-%=&=&-&*;>>O: XXXXXXXXXXXXXXXXXXXXXXXXXXXXXXXXX <&&%&&***==-=$&&&&*&*&$&&-&%%%$$&$&&&-$@%&&%==&-*-*&&>:;o&&%&%&&***==-=$&&&&*&*&$&&-&%%%$$&$&&&-$@%&&%==&-*-*&&>:;o",
",;****&&&&&&$%%&&-&%%%-=->:;:******&&>:;-;****X&<&&%&&***==-=$&&&&*&*&$&&-&%%%$$&$&&&-$@%&&%==&-*-*&&>:;o: XXXXXXXXXXXXXXXXXXXXXXXXXXXXXXXXX <%%%&****--==$==$%&&&#%=*-&%$%%$&&-&;&*$%&-&&&&=-&%**:>;o%%%&%&****--==$==$%&&&#%=*-&%$%%$&&-&;&*$%&-&&&&=-&%**:>;o",
">--****=$%%%#%%%&&-$&%-=>>>::***&*%**:>;*--***o=<%%%&****--==$==$%&&&#%=*-&%$%%$&&-&;&*$%&-&&&&=-&%**:>;o: XXXXXXXXXXXXXXXXXXXXXXXXXXXXXXXXX <#%&*&&**;=-=$**%#***%$&&%&$%$$%=&&*;-*%%%#-&*%%%%&&&;>:o#%&*&*&&**;=-=$**%#***%$&&%&$%$$%=&&*;-*%%%#-&*%%%%&&&;>:o",
",*******%#%%%%$%***&&%&=>;:>;*-**%&&&;>:-*****o*<#%&*&&**;=-=$**%#***%$&&%&$%$$%=&&*;-*%%%#-&*%%%%&&&;>:o: XXXXXXXXXXXXXXXXXXXXXXXXXXXXXXXXX <%%%&&&**=;-=$==$%&*&%@*&&&%$###$&**;**&--@&&&%%%*&%=-;:o%%%&%&&&**=;-=$==$%&*&%@*&&&%$###$&**;**&--@&&&%%%*&%=-;:o",
",-*****=$%%-$@%#%-*&=%=&;:>;:**-&*&%=-;:--****o=<%%%&&&**=;-=$==$%&*&%@*&&&%$###$&**;**&--@&&&%%%*&%=-;:o: XXXXXXXXXXXXXXXXXXXXXXXXXXXXXXXXX <%&%&*&**%-=-%=-$%=**+@-&%%%$@#$&&*-*&*&*--*%&*%%-&&*;>:O%&%&%&*&**%-=-%=-$%=**+@-&%%%$@#$&&*-*&*&*--*%&*%%-&&*;>:O",
"<&-**&&-$%&&$&%$%&-&%%&=:*;--**;&*&&*;>:;&-**&X-<%&%&*&**%-=-%=-$%=**+@-&%%%$@#$&&*-*&*&*--*%&*%%-&&*;>:O: XXXXXXXXXXXXXXXXXXXXXXXXXXXXXXXXX <$%&&*&*;&-===-=&$=&%$%$%%$@%@$#$&*-*;**&@%>@&=%&&&&*;:>O$%&&&&*&*;&-===-=&$=&%$%$%%$@%@$#$&*-*;**&@%>@&=%&&&&*;:>O",
"<-**-**=&$&%&$%$$&**&$&&>->>-**-*&&&*;:>;-**-*o=<$%&&*&*;&-===-=&$=&%$%$%%$@%@$#$&*-*;**&@%>@&=%&&&&*;:>O: XXXXXXXXXXXXXXXXXXXXXXXXXXXXXXXXX 1%%&****-==;-&-=&%*&%%%$%%#@@#$+$$---*&&*%->%-&-%&%&&>;>+%%&*&****-==;-&-=&%*&%%%$%%#@@#$+$$---*&&*%->%-&-%&%&&>;>+",
"<:*****=&%*&&$%=$&=%&$&*-;;;&**-**%&&>;>::****o=<%%&****-==;-&-=&%*&%%%$%%#@@#$+$$---*&&*%->%-&-%&%&&>;>+: XXXXXXXXXXXXXXXXXXXXXXXXXXXXXXXXX 1%******--;;-%-*&%*&%%##%%@@$#$+&$&-;&$%&&&&*-=%*-&**:-;+%********--;;-%-*&%*&%%##%%@@$#$+&$&-;&$%&&&&*-=%*-&**:-;+",
"<-****-*&%&=*&%=$&=%&$&*,,--=*;***&**:-;:-****o*<%******--;;-%-*&%*&%%##%%@@$#$+&$&-;&$%&&&&*-=%*-&**:-;+; XXXXXXXXXXXXXXXXXXXXXXXXXXXXXXXXX <$*%***-;->;--&-*$=&*%@#&#+@$$$+&$&;**$&$*&%%-&-$%#&&;->+$*%*%***-;->;--&-*$=&*%@#&#+@$$$+&$&;**$&$*&%%-&-$%#&&;->+",
"1*-*-**-*$--%=%=$&=%&$&*,:--***;*&#&&;->>*-*-*o-1$*%***-;->;--&-*$=&*%@#&#+@$$$+&$&;**$&$*&%%-&-$%#&&;->+; XXXXXXXXXXXXXXXXXXXXXXXXXXXXXXXXX ,&*&*&*-*--=----*&&%-@+@#+@%$@%@$&&&;$$%%&&&&=&-$$&%=-:>+&*&*&*&*-*--=----*&&%-@+@#+@%$@%@$&&&;$$%%&&&&=&-$$&%=-:>+",
"1<-*-*--*&&-%&&--@&=*&#*::;&%*-;**&%=-:>,<-*-*o-1&*&*&*-*--=----*&&%-@+@#+@%$@%@$&&&;$$%%&&&&=&-$$&%=-:>+: XXXXXXXXXXXXXXXXXXXXXXXXXXXXXXXXX <$*&*&***%---&=-=$@%*@@@++#@@$#+$$-*-$$&%-&%&&&&-*%&*;;;o$*&*&*&***%---&=-=$@%*@@@++#@@$#+$$-*-$$&%-&%&&&&-*%&*;;;o",
",>-****-=$==$&&&-%&&@%$&>:;;%**;*&%&*;;;->-***o-1$*&*&***%---&=-=$@%*@@@++#@@$#+$$-*-$$&%-&%&&&&-*%&*;;;o; XXXXXXXXXXXXXXXXXXXXXXXXXXXXXXXXX 1#%&*&&**;=-=$**%#***%$&&%&$%$$%=&&*;-*%%%#-&*%%%%&&&;>:o#%&*&*&&**;=-=$**%#***%$&&%&$%$$%=&&*;-*%%%#-&*%%%%&&&;>:o",
"<;-****=&$==$&&&&=%%@@@-=*;;&****&$-&-;&;;-***o=<$*&*****===-%==&$#%-#$@@++$+@#@&&&**-$#%$&$&&=-&-$-&-;&O: XXXXXXXXXXXXXXXXXXXXXXXXXXXXXXXXX <%%%&&&------$==------@*&----###-------&--@------*&%=-;:o%%%&%&&&**=;-=$==$%&*&%@*&&&%$###$&**;**&--@&&&%%%*&%=-;:o",
",*-**-*&$&<<<&&*<-&#<@%&<;>-<**&<1<<<--=-*-**-o&<&*&***<<*=:<1=&<1<<<+%+<1<$#1<#&1<<<1<+<1%%%1<:**@%&--=o: XXXXXXXXXXXXXXXXXXXXXXXXXXXXXXXXX <%&%&*-<5<<<-%=-<<<<<-@--<<<<-#$-<<<<<<-*--<<<<<--&&*;>:O%&%&%&*&**%-=-%=-$%=**+@-&%%%$@#$&&*-*&*&*--*%&*%%-&&*;>:O",
",;;-****&33o33o333*333@333-333*33o.o33---;;-**o*<%*****33o--33o33X.X..$33.33+33.$$o33oX.33X&&33o*=#=%---o: XXXXXXXXXXXXXXXXXXXXXXXXXXXXXXXXX <$%&&*-55----=-2<<----%-<<<<5<-#----<<<-&-<88<---&&&*;:>O$%&&&&*&*;&-===-=&$=&%$%$%%$@%@$#$&*-*;**&@%>@&=%&&&&*;:>O",
",=;***-&555555o5555555.5555555o55o%&55o--=;***o&1$%&&**5555555o555555@555555.55.+$*55o$%5555555o-%%&%&--o: XXXXXXXXXXXXXXXXXXXXXXXXXXXXXXXXX <%%&**-55552-&-555-&%%%-55--55-+-58885-&*-588855-&%&&>;>+%%&*&****-==;-&-=&%*&%%%$%%#@@#$+$$---*&&*%->%-&-%&%&&>;>+",
",-*****&77oX77o77o7X77X77o7o77o77X%%77+;--****o&<@#&&**77ooo77o77.XX..77.X77.77.+$&77o&%77ooo77o&%%%%&;;o; XXXXXXXXXXXXXXXXXXXXXXXXXXXXXXXXX 1%****----88-%-888----#-885588-+-88-888-&-8885----&**:-;+%********--;;-%-*&%*&%%##%%@@$#$+&$&-;&$%&&&&*-=%*-&**:-;+",
">=*-&-*-88o&88o88o@.88X88XOo88o-88888o+-==*-&-o-<@&***&88o*-88o-88888+88.%88.8888$*88o$%88o==88o*&#%%-;-o- XXXXXXXXXXXXXXXXXXXXXXXXXXXXXXXXX 3$*%**-88888--&-88888-@#-8888-$+-88--88-$*-88888-%#&&;->+$*%*%***-;->;--&-*$=&*%@#&#+@$$$+&$&;**$&$*&%%-&-$%#&&;->+",
">=-****=&XX&%.X%Xo+@&oX#oX=--oo-*o.Xoo;;==-***o=<$%%%*&-oo===Xo=&XXoX.+..%@..+..oo**oo&$%oX&&%oo&&@$=-;;o; XXXXXXXXXXXXXXXXXXXXXXXXXXXXXXXXX <&*&*&----------------+@#----@%@--------%&&------$&%=-:>+&*&*&*&*-*--=----*&&%-@+@#+@%$@%@$&&&;$$%%&&&&=&-$$&%=-:>+",
",--****&&&@%&$&#%*O@=%##;>>*:*****@%*=;;---***o&<&%&%*&**-=%*=*&&&&&%@@@##O+#+$+$=-*-*&$%%%&%&&&&&@%*=;;o; XXXXXXXXXXXXXXXXXXXXXXXXXXXXXXXXX <$*&*&***%---&=-=$@%*@@@++#@@$#+$$-*-$$&%-&%&&&&-*%&*;;;o$*&*&*&***%---&=-=$@%*@@@++#@@$#+$$-*-$$&%-&%&&&&-*%&*;;;o",
",--*-*&=&&#%&%@#%&O#%%%%&=-,**&-**%%%-:;---*-*X=<&%%%*&&&=--:===&&#%%O@@#@+#@+@@$&-*--&%$$%%%&%%&=%%%-:;o- XXXXXXXXXXXXXXXXXXXXXXXXXXXXXXXXX <$*&*****===-%==&$#%-#$@@++$+@#@&&&**-$#%$&$&&=-&-$-&-;&O$*&*&*****===-%==&$#%-#$@@++$+@#@&&&**-$#%$&$&&=-&-$-&-;&O"
};
