/* XPM */
static char * ic_knife_xpm[] = {
"43 13 6 1",
" 	c None",
".	c #000000",
"+	c #050000",
"@	c #050000",
"#	c #050000",
"$	c #050000",
"............................++.............",
"............................++.............",
"............................++.............",
"++++++++++++++++++.+.+.+.+.+++.........++@.",
"@+++++++++++++++++++++++++++++++++++++++++.",
".@++++++++++++++++++++++++++++++++++++++++@",
"..@+++++++++++++++++++++++++++++++++++++++#",
"...@#++++++++++++++++++++++++++++++++++++++",
".....@#$+++++++++++++++++++++++++++++++++++",
".........@#$++++++++++++++++++..........#++",
"............................++.............",
"............................++.............",
"............................++............."};
