/* XPM */
static char * ic_pistol_xpm[] = {
"38 17 7 1",
" 	c None",
".	c #000000",
"+	c #050000",
"@	c #050000",
"#	c #050000",
"$	c #050000",
"%	c #050000",
".............................+++......",
"..++.......................+++++++....",
"..+++...............+++++++++++++++++.",
"+++++++++++++++++++++++++++++++++++++@",
"++++++++++++++++++++++++++++++++++++++",
"++++++++++++++++++++++++++++++++++++++",
"..................+++++++++++++++++++@",
"..................@++..++++++++++++...",
"...................#++++$++++++++++...",
"...................%#++++++++++++++...",
"..........................+++++++++@..",
"..........................@++++++++#..",
"...........................+++++++++..",
"...........................+++++++++@.",
"...........................+++++++++#.",
"...........................#++++++++#.",
"...........................@#++++++#@."};
