/* XPM */
static char *_eea40249d2d45238136a53e25efcb843nicDE0h9ISy7e9D[] = {
/* columns rows colors chars-per-pixel */
"76 191 91 1 ",
"  c black",
". c #170F07",
"X c #1F170B",
"o c #2B230F",
"O c #332B13",
"+ c #3F2F17",
"@ c gray23",
"# c #430000",
"$ c #470000",
"% c #4F0000",
"& c #530707",
"* c #5B0707",
"= c #5F0707",
"- c #670000",
"; c #670B0B",
": c #6B0F0F",
"> c #730000",
", c #7F0000",
"< c #731313",
"1 c #771717",
"2 c #7F1B1B",
"3 c #4B371B",
"4 c #533F1F",
"5 c #473323",
"6 c #5F4323",
"7 c #6B4727",
"8 c #774F2B",
"9 c #7F532F",
"0 c #675333",
"q c #434343",
"w c gray28",
"e c gray34",
"r c #676B4F",
"t c gray39",
"y c gray42",
"u c #7B7F63",
"i c gray50",
"p c #8B0000",
"a c #9B0000",
"s c #831F1F",
"d c #B30000",
"f c #BF0000",
"g c #8B2323",
"h c #8F2B2B",
"j c #972F2F",
"k c #9B3333",
"l c #A33B3B",
"z c #A73F3F",
"x c #D70000",
"c c #9B5B13",
"v c #875733",
"b c #8F5F37",
"n c #9B633B",
"m c #A36B3F",
"M c #AF4747",
"N c #B34F4F",
"B c #BB5757",
"V c #BF5B5B",
"C c #836B4B",
"Z c #8F7753",
"A c #AB6F43",
"S c #B37347",
"D c #BF7B4B",
"F c #CB7F4F",
"G c #C76363",
"H c #CB6B6B",
"J c #D37373",
"K c #DB7B7B",
"L c #FF8F3B",
"P c #9F8363",
"I c #CF8353",
"U c #D78B5B",
"Y c #FFA35B",
"T c #DF9363",
"R c #E79B6B",
"E c #EFA373",
"W c #F7AB7B",
"Q c #FFB37B",
"! c #000000",
"~ c #9F9F9F",
"^ c gray70",
"/ c #DF8787",
"( c #EB9797",
") c #FFB383",
"_ c #FFBB93",
"` c #FFBF9B",
"' c #FFC7A7",
"] c #FFD7BB",
"[ c #000000",
"{ c #CBCBCB",
"} c none",
/* pixels */
"!!!!!36667888887663!!!!![[!!!!!36667888887663!!!!![[!!!!!36667888887663!!!!!",
"!!!O649bADIIIDAn8646O!!![[!!!O649bADIIIDAn8646O!!![[!!!O649bADIIIDAn8646O!!!",
"!!O68bADFIDSnnnbb8843O!![[!!O68bADFIDSnnnbb8843O!![[!!O68bADFIDSnnnbb8843O!!",
"!!O8v8bnSvAbm888864OOo!![[!!O8v8bnSvAbm888864OOo!![[!!O8v8bnSvAbm888864OOo!!",
"!o+686bnbbbb3b6363Ooooo![[!o+686bnbbbb3b6363Ooooo![[!o+686bnbbbb3b6363Ooooo!",
"!o+346b4n77b7373+6oOO+o![[!o+346b4n77b7373+6oOO+o![[!o+346b4n77b7373+6oOO+o!",
"!o33884b47877bbbvv73+3o![[!o33884b47877bbbvv73+3o![[!o33884b47877bbbvv73+3o!",
"!o348b84m48bmSnmbbb733o![[!o348b84m48bmSnmbbb733o![[!o348b84m48bmSnmbbb733o!",
"!o36bASmmSSSSSSmmSAb43o![[!o36bASmmSSSSSSmmSAb43o![[!o36bASmmSSSSSSmmSAb43o!",
"!o38nIFFSmAAAAmSFFIn63o![[!o38nIFFSmAAAAmSFFIn63o![[!o38nIFFSmAAAAmSFFIn63o!",
"!o38nIERIDmbbmDIREIn83o![[!o38nIERIDmbbmDIREIn83o![[!o38nIERIDmbbmDIREIn83o!",
"!o38SR__RRIUUIRRn4 +83o![[!o38SR__RRIUUIRR__RS83o![[!o38+ 4nRRIUUIRR__RS83o!",
"S738++4mT_DWWD_n +8v837S[[S738774mTS8SS8STm477837S[[S738v8+ n_DWWD_Tm4++837S",
"S75Sv6+++ 6AA6   +6Sb57S[[S75bA6+++3+bb+3+++6Ab57S[[S75bS6+   6AA6 +++6vS57S",
"b70S8i~y  3443 e~y 8S07b[[b70S8y y@ 4UU4 y y^8S07b[[b70S8  ~e 3443   ~i8S07b",
"76vSbAEA76bIIb67AEAbSv67[[76vSbA(B76bIRb67B(AbSv67[[76vSbAEA76bIIb67AEAbSv67",
"v6vUUDAbAIAWWAIAbADUUv6v[[v6vKUDAbAFUYQUFAbADUKv6v[[v6vUUDAbAIAWWAIAbADUUv6v",
"b6bITETFR_R__R_RFTETIb6b[[b6bITETFY_RYQR_YFTETIb6b[[b6bITETFR_R__R_RFTETIb6b",
"!6vmADUE)TUQ]UT)EUDAmv6![[!6vmADUY'TUQ]UT'YUDAmv6![[!6vmADUE)TUQ]UT)EUDAmv6!",
"!68nmDE`UAnPPnAU`EDmn86![[!68nmDEWUAnPPnAUWEDmn86![[!68nmDE`UAnPPnAU`EDmn86!",
"!!8SnU_Rm48vv84mR_UnS8!![[!!8SnU_RD48vv84DR_UnS8!![[!!8SnU_Rm48vv84mR_UnS8!!",
"!!6FnRWDITDmmDTIDWRnF6!![[!!6FnRWIIUDmmDUIIWRnF6!![[!!6FnRWDITDmmDTIDWRnF6!!",
"!!4AmURIUW`UU`WUIRUmA4!![[!!4AmURIUW`TT`WUIRUmA4!![[!!4AmURIUW`UU`WUIRUmA4!!",
"!!!vAFUb8cccccc8bUFAv!!![[!!!vAFUb8cccccc8bUFAv!!![[!!!vAFUb8cccccc8bUFAv!!!",
"!!!4bSFFFURYYRUFFFSb4!!![[!!!4bSFFFURYYRUFFFSb4!!![[!!!4bSFFFURYYRUFFFSb4!!!",
"!!!!7nITFAb99bAFTIn7!!!![[!!!!7AITFAb99bAFTIA7!!!![[!!!!7nITFAb99bAFTIn7!!!!",
"!!!!!7mITFFRRFFTIm7!!!!![[!!!!!7AITFFRRFFTIA7!!!!![[!!!!!7mITFFRRFFTIm7!!!!!",
"!!!!!!4vSUR``RUSv4!!!!!![[!!!!!!4vSUR``RUSv4!!!!!![[!!!!!!4vSUR``RUSv4!!!!!!",
"!!!!!!!!7bmmmmb7!!!!!!!![[!!!!!!!!7bmmmmb7!!!!!!!![[!!!!!!!!7bmmmmb7!!!!!!!!",
"[[[[[[[[[[[[[[[[[[[[[[[[[[[[[[[[[[[[[[[[[[[[[[[[[[[[[[[[[[[[[[[[[[[[[[[[[[[[",
"[[[[[[[[[[[[[[[[[[[[[[[[[[[[[[[[[[[[[[[[[[[[[[[[[[[[[[[[[[[[[[[[[[[[[[[[[[[[",
"!!!!!36678888887663!!!!![[!!!!!36667888887663!!!!![[!!!!!36678888887663!!!!!",
"!!!O3689bmAASAn86446O!!![[!!!O649mSDFIIDAn8646O!!![[!!!O649bmSDSIISAn864O!!!",
"!!O389bmAmSnnnbb8873+O!![[!!O68bnDFImSnnnbb8843O!![[!!O478bnDFDmSnnnbb8873!!",
"!!O48bnSvAbm888867663o!![[!!O8v8bnSvAbm888864OOo!![[!!o3478bnSvAbm8888646O!!",
"!oo36b4Ab7bm8636344o3+o![[!o+686b4Ab7b3+6363Ooooo![[!o++336b4A+3b996363O3oo!",
"!OO4644n7+o7b73+6oO4O3o![[!o+34644n6+on373+6oOO+o![[!o+OO4684bO+o7373+63OOO!",
"!Oo8v4bA74OO7m7b744o++o![[!o338v4b474OOvmb3743+3o![[!ooO38v4bA74OO7m73744OO!",
"!O68bA4D7nv4O7mb7b86Ooo![[!o348bA4D4nv4O7mb7b433o![[!oo368bA4D4nv4O7mb7b8OO!",
"!36bASvmA7DbD7mmvAb63oo![[!o36bASvm7mD4D7mmvAb43o![[!oo39bASvm7mD4D7mmvSb33!",
"!38nSSSvvvbbnmbSSvn86+o![[!o38nSSSvmvbbnmbSSvn63o![[!oO6bnSSSvmvbbnmbSSvn83!",
"!o8AIERIDmbbmDUREIAn8+o![[!o38nIERIDmbbmDIREIn83o![[!o+8mmIERUDmbbmDIWEIA8o!",
"!ovSTR__TmUUmURn4+8nn3o![[!o38SR__RRIUUIRR__RS83o![[!o3mm8+4nRUmUUmT__RTSvo!",
"6677337vnDWWDnO6nAnnm37m[[S73877AI_S8SS8S_IA77837S[[A738vvmn6OnDWWDnv73376 6",
"663m7337v6AA6+6e w6Ab8Dv[[S75bA6+++3+88+3+++6Ab57S[[vD6bA6 te6+6AA6v7337m6+6",
"667biq  33868 e{~ 6Abvv7[[b70S8y y@ 4UU4 y y^8S07b[[7v6bA6 ~{e 86833  qib6+6",
"66bSA(B76bIIb67AB(bIbv67[[76vSSASb76bIRb67bSASSv67[[76vbIb(BA76bIIb67B(ASF66",
"66FRUDbAIAWRAIAbASUEmv6v[[v6vKUDAbAFUYQUFAbADUKv6v[[v6vmEUSAbAIARWAIAbDURF66",
"66SUIFFRUR__R_RFTEETmb6b[[b6bITETFY_RYQR_YFTETIb6b[[b6bmDEETFR_R__RURFDIUS66",
"!6vAAIE)UU''UU)EUDAAmvb![[!6vmAAUY)TUQ]UT'YUAbbv6![[!bvmAADUE)UU''UU)EUDmv6!",
"!68mSE`UAnPPbAU`EDnnn86![[!68nbDEWUAnPPnAUWEDvn86![[!68nnnDE`UAbPPnAU`EDS86!",
"!!8SS_Rm48vvgmmR_UnDm8!![[!!8SbU_Rm48vvg4mR_UbS8!![[!!8mDnU_Rmm8vvg4mR_US8!!",
"!!6FSWDITDmmsTIDWRnDm6!![[!!6FvRWSIUDmmsUISWRbF6!![[!!6mDnRWDITDmmsTIDWRF6!!",
"!!4AURIUW`UUNWUIRUmDm!!![[!!4AmURIURWTTNRUIRUmA!!![[!!!mDmURIUW`UUNWUIRUA!!!",
"!!!vFUb8ccccjc8bUFAAv!!![[!!!vAFUb8ccccjc8bUFAv!!![[!!!vAAFUUAb966jbAUUFv!!!",
"!!!4SFFFURYYRUFFFSbb4!!![[!!!4bSFSFURYYRUFSFSb4!!![[!!!!bbSFFFUW__WUFFFS!!!!",
"!!!!bITFAb99bAFTInn7!!!![[!!!!7AITFAb77bAFTIA7!!!![[!!!!!nnITFAb99bAFTIb!!!!",
"!!!!+mITFFRRFFTImn7!!!!![[!!!!!7AITFFRRFFTIA7!!!!![[!!!!!!nmITFFRRFFTIm!!!!!",
"!!!!!+mSUR``RUSmn4!!!!!![[!!!!!!4vSUTEETUSv4!!!!!![[!!!!!!!nmSUR``RUSm!!!!!!",
"!!!!!!!bSSSSSSb7!!!!!!!![[!!!!!!!!7bmmmmb7!!!!!!!![[!!!!!!!!!bSSSSSSb!!!!!!!",
"[[[[[[[[[[[[[[[[[[[[[[[[[[[[[[[[[[[[[[[[[[[[[[[[[[[[[[[[[[[[[[[[[[[[[[[[[[[[",
"[[[[[[[[[[[[[[[[[[[[[[[[[[[[[[[[[[[[[[[[[[[[[[[[[[[[[[[[[[[[[[[[[[[[[[[[[[[[",
"!!!!!36678888887663!!!!![[!!!!!36678888887663!!!!![[!!!!!36678888887663!!!!!",
"!!!34678bnnnnb876466O!!![[!!!O648vAASSAnb87646O!!![[!!!OO64678bnnnnb8764O!!!",
"!!O78bmmAADSAnbv88773O!![[!!O47vbmDFFDDAnbv8873O!![[!!O3478bmmAADSAnbv883O!!",
"!!38bmmSSDDDDSmbbv773O!![[!!O3vbmSFUUIFFAmbbv73o!![[!!O338bmmSSDDDDSmbbv3o!!",
"!o668bnDFImSnnnbb8733Oo![[!oO4vvSnAIAISmnAbb873oo![[!oOO488bnDFImSnnnbb87oo!",
"!o68v8bnSvAbm888866OOoo![[!ooO8vAbnIvASmb8n866OOo![[!oooO8v8bnSvAbm888866Oo!",
"!o3686b4Ab7b3+63633oooo![[!ooo68nb4A79bm763633oOo![[!oooo686b4Ab7b3+63633Oo!",
"!o334644nO+o7373+6O66Oo![[!oOO346n4nO+8b773+6OOOo![[!oOOO34644nO+o7373+6OOo!",
"!o338v4b474OO7m737466Oo![[!oO438v4b4n4O77b7374o3o![[!oOOo38v4b474OO7m73743o!",
"!o348bA4D4nv4O7mb7866Oo![[!oO648bA4D4nv479mb7863o![[!oOO648bA4D4nv4O7mb783o!",
"!o36bASvm7mD4D7mmvb663o![[!o377bASvm7mD4D7mmvb63o![[!o3366bASvm7mD4D7mmvb3o!",
"!o+8nSSSvmvbbnmbSSn87+o![[!o38vnSSSvmvbb4mbSSn83o![[!o++88nSSSvmvbbnmbSSn+o!",
"6 +8nIERIDmbbmDIREA87+7b[[S 38nnIERIDmbbmDIREn83 S[[S ++88nIERIDmbbmDIREn+ 6",
"6+3SR__)RImSIRTm4 bb63mv[[S+3bSR__)RImmIR)__RSb3+S[[vm36b4 4mTRISmIR)__RS3+6",
"6+34 4mT_SWIS_S7489b63v7[[b+3b4+4mT_SIWS_Tm4+4b6+b[[7v36b9847S_SIWS_Tm4 43+6",
"666+6+7S73mm37oooo+66667[[7666+6+7S73mm37S7+6+6667[[76666+oooo73mm37S7+6+666",
"666o2N   3443 2N  ovv66v[[v666oN  2 3443 2  No6v6v[[v66vvo  N2 3443   N2o666",
"66vbAur767AA767ruAbSSv6b[[b6vSbAur767AA767ruAbSv6b[[b6vSSbAur767AA767ruAbv66",
"!6vUUmbAIAWWAIAbmUUUSvb![[!6vUUUmbAIAWWAIAbmUUU86![[!bvSUUUmbAIAWWAIAbmUUv6!",
"!68AmU`R_R__R_R`UmAmn86![[!68mAmU`R_R__R_R`UmAm86![[!68nmAmU`R_R__R_R`UmA86!",
"!!8bD_Um8U''U8mU_Dbbn8!![[!!8bbD_Um8U''U8mU_Dbb8!![[!!8nbbD_Um8U''U8mU_Db8!!",
"!!8nUWmbmmRRmgbmWUnmn8!![[!!8mnUWmbmmRRmgbmWUnm8!![[!!8nmnUWmbmmRRmgbmWUn8!!",
"!!6bRRmITmSSMsImRRbFn6!![[!!6FbRRmITmSSMsImRRbF6!![[!!!nFbRRmITmSSMsImRRb6!!",
"!!4mURIBG`UUHNUIRUmAv!!![[!!4AmURIBG`UUHNUIRUmA4!![[!!!vAmURIBG`UUHNUIRUm!!!",
"!!!AFUAs2966jjAAUFAv!!!![[!!!vAFUAs2966jjAAUFAv!!![[!!!!vAFUAs2966jjAAUFA!!!",
"!!!bSFFGGW__WUFFFSb4!!!![[!!!4bSFFGGW__WUFFFSb4!!![[!!!!4bSFFGGW__WUFFFSb!!!",
"!!!7nITSAb99bASTIn7!!!!![[!!!!7nITSAb99bASTIn7!!!![[!!!!!7nITSAb99bASTIn7!!!",
"!!!!7mITmFRRFmTIm7!!!!!![[!!!!!7mITmFRRFmTIm7!!!!![[!!!!!!7mITmFRRFmTIm7!!!!",
"!!!!!4mSUR``RUSm4!!!!!!![[!!!!!!4mSUR``RUSm4!!!!!![[!!!!!!!4mSUR``RUSm4!!!!!",
"!!!!!!!bSSSSSSb!!!!!!!!![[!!!!!!!!bSSSSSSb!!!!!!!![[!!!!!!!!4bSSSSSSb4!!!!!!",
"[[[[[[[[[[[[[[[[[[[[[[[[[[[[[[[[[[[[[[[[[[[[[[[[[[[[[[[[[[[[[[[[[[[[[[[[[[[[",
"[[[[[[[[[[[[[[[[[[[[[[[[[[[[[[[[[[[[[[[[[[[[[[[[[[[[[[[[[[[[[[[[[[[[[[[[[[[[",
"!!!!!!6667b77bb876!!!!!![[!!!!!3667b7O7b87663!!!!![[!!!!!!6678878887663!!!!!",
"!!!O646688AbbAAb8vv4!!!![[!!!O64688Ab7bAb8vv46O!!![[!!!!4688Ab7bAb8vv466O!!!",
"!!O478nnbmnAAIIS8v8b7!!![[!!O478nbmnAbAIS8v8b73O!![[!!!78nbmnAbAIS8v8b773O!!",
"!!O38nbbmASDDAAmn888b4!![[!!O38nbmASDDDAmn888b4+!![[!!38nbmASDDDAmn888b3+o!!",
"!oO36bbbmnADTTIAbvv7v8!![[!o36bbmnADTTTIAbvv7v83o![[!!6bbmnADTTTIAbvv7v3+oo!",
"!oo38vbmnDITETIISvb84vo![[!o38vbmnDITRRTInvb84v3o![[!o8vbmnDITETIISvb843+Oo!",
"!oo489bb7nSITISmIb8b48o![[!o489bb7nSTTIFmmb8b483o![[!o89bb7nSITISmIb8b43+Oo!",
"!oo48977nAISISDSbI8b47o![[!o48977nAISISFSbm8b47+o![[!o8977nAISISDSbI8b43+Oo!",
"!oO+47+7bInAnnnDnS6736o![[!o+47+7bDnAnnnFnS6736Oo![[!o47+7bInAnnnDnS673+OOo!",
"!oOO+O39bAnb7bnA9n473Oo![[!oO+O39bAnb7bnF9n473O+o![[!o+O39bAnb7bnA9n473O++o!",
"!oOOOO38Avv9+9nm6v33O+o![[!oOOO38Avv9+9nm6v33O+3o![[!oOO38Avv9+9nm6v33OO++o!",
"!o3O6+36b8b6+68nO83O36o![[!oO6+36b8b6+68nO83O363o![[!o6+36b8b6+68nO83O363+o!",
"b7+368+687b48+8n6O6O86o6[[So368+687b48+8n6O6O863oS[[6o68+687b48+8n6O6O893+7b",
"vS338n8+66vOA+4vA6O6n8 6[[S+38n8+66vOA+4vA6O6n83+S[[6 8n8+66vOA+4vA6O6n863Sv",
"7vU38nI8O44OU+4bDUUbn8+6[[b+38SA8O44OU+4bDUUID83+b[[6+8nI8O44OU+4bDUUbn86Uv7",
"76m3bUR_6O4OnnO8DUTRUb+6[[7+3bURA6O4OnnO8DUTRUb6+7[[6+866bD6OODAO8DUTRUbvm67",
"v6vvbbbbbO4OObSAn334n666[[v66bbbbbO4O7bSnnbbbbb66v[[668n43384OOASnnbbbbbvv6v",
"bSvvb6&kg  34O3 &s  6v66[[b66b6J=  =34O3=  =J6bv6b[[6686  s& 3O43  gk&6bvvSb",
"!bvbSb7&&kh7bb76&gB&nv6![[!6vSb7JMkg7bb7gkMJ7bSv6![[!68n&jJ&67bb7kkM&7bSbvb!",
"!68bDEIn7bFUW_UFb77nA86![[!6vDUb77bFUW_UFb77bUD86![[!68An77bFU_WUFb7nIEDb86!",
"!688mU''EWRU__RRWE''U86![[!68mU''EWRR__RRWE''Um86![[!68U''EWRR__URWE''Um886!",
"!!8bbmU_WSbUE'UITW_RA8!![[!!8bnD_WTSU''USTW_Dnb8!![[!!8UR_WTIU'EUbSW_Dnb88!!",
"!!8bmbD'Tm8STRm8STWTA8!![[!!8mbDWTN8SRRm8NTWDbm8!![[!!8ATWTS8mRTS8mTWDbm87!!",
"!!4vb8nUIj=8UU8*jIUUv4!![[!!4b8DUIj=8UU8*jIUD8b4!![[!!4mUUIj=8UU8*jIUD8b4!!!",
"!!!7v7bFBS1*66::SBFS8+!![[!!!78SFBS1*66::SBFS87!!![[!!3bSFBS1*66::SBFS874!!!",
"!!!477vBMl&$6622lMBS8!!![[!!!!7SBMM&$6622lMBS7!!!![[!!!vSBMl&$6622lMBS74!!!!",
"!!!!+6vABBkMHHMkBBAn4!!![[!!!!4nABNkMHHMkBBAn4!!!![[!!!4nABBkMHHMkBBAn4!!!!!",
"!!!!!+6nTTgg44**TSA8!!!![[!!!!!4ASTgg44**TSA4!!!!![[!!!!7ASTgg44**TTA4!!!!!!",
"!!!!!!+7mSkNKWNNIm7!!!!![[!!!!!!7mSkNKWNNIm7!!!!!![[!!!!!7mSkNKWNNIm7!!!!!!!",
"!!!!!!!+4m2zUUhhm4!!!!!![[!!!!!!!4m2zUUhhm4!!!!!!![[!!!!!!4m2zUUhhm4!!!!!!!!",
"!!!!!!!!!+**vv**!!!!!!!![[!!!!!!!!+*gvv22+!!!!!!!![[!!!!!!!!**vv**!!!!!!!!!!",
"[[[[[[[[[[[[[[[[[[[[[[[[[[[[[[[[[[[[[[[[[[[[[[[[[[[[[[[[[[[[[[[[[[[[[[[[[[[[",
"[[[[[[[[[[[[[[[[[[[[[[[[[[[[[[[[[[[[[[[[[[[[[[[[[[[[[[[[[[[[[[[[[[[[[[[[[[[[",
"!!!!!36667b77bb8763!!!!![[!!!!!3667b7O7b87663!!!!![[!!!!!36678878887663!!!!!",
"!!!O646688AbbAAb8vv4O!!![[!!!O64688Ab7bAb8vv46O!!![[!!!O4688Ab7bAb8vv466O!!!",
"!!O478nnbmnAAIIS8v8b7O!![[!!O478nbmnAbAIS8v8b73O!![[!!O78nbmnAbAIS8v8b773O!!",
"!!O38nbbmASDDAAmn888b4!![[!!O38nbmASDDDAmn888b4+!![[!!38nbmASDDDAmn888b3+o!!",
"!oO36bbbmnADTTIAbvv7v8o![[!o36bbmnADTTTIAbvv7v83o![[!o6bbmnADTTTIAbvv7v3+oo!",
"!oo38vbmnDITETIISvb84vo![[!o38vbmnDITETIISvb84v3o![[!o8vbmnDITETIISvb843+Oo!",
"!oo489bb7nSITISmIb8b48o![[!o489bb7nSITISmIb8b483o![[!o89bb7nSITISmIb8b43+Oo!",
"!oo48977nAISISDSbI8b47o![[!o48977nAISISDSbI8b47+o![[!o8977nAISISDSbI8b43+Oo!",
"!oO+47+7bInAnnnDnS6736o![[!o+47+7bInAnnnDnS6736Oo![[!o47+7bInAnnnDnS673+OOo!",
"!oOO+O39bAnb7bnA9n473Oo![[!oO+O39bAnb7bnA9n473O+o![[!o+O39bAnb7bnA9n473O++o!",
"!oOOOO38Avv9+9nm6v33O+o![[!oOOO38Avv9+9nm6v33O+3o![[!oOO38Avv9+9nm6v33OO++o!",
"!o3O6+36b8b6+68nO83O36o![[!oOo+36b8b6+68nO83O*63o![[!oo+36b8b6+68nO83O363+o!",
"b7+399+687b46+8n6O6O*3o6[[So368+687b4O+8n6O$O*63oS[[6o68+687b46+8n6O6O*93+7b",
"vS338n%+66vO%+4vO6O623+6[[S 38n%+66vO%+4vO$-8283 S[[6 8n%+66vO%+4vO6O62863Sv",
"7vU68n=%O44O%+4bO<h%g3+6[[b+38n=%O44O%+4bO&&bg83+b[[6+8S=%O44O%+4bO<hbg86Uv7",
"76mvbUh=6O4O77O86kh6N6+6[[7+3bZh=6O4O77O86k;ZNb6+7[[6+86h=%6OO77O86khRNbvm67",
"v6vvbb22bO4OObSAn==4n666[[v66Cb22bO4OObSnn==bbC66v[[668n22384OObSnn==bbbvv6v",
"bSvvb6NN&  34O3 Gs  6v66[[b66b6N=  =34O3=  =M6bv6b[[6686  sG 3O43  &NN6bvvSb",
"!bvbSb7=7767bb767==7nv6![[!6vSZ7=3767bb767==7ZSv6![[!68n7=7767bb767==7bSbvb!",
"!68bDEI27bFUW_UFbssnA86![[!6vDZb27bFUW_UFbssbZD86![[!68An27bFU_WUFbssIEDb86!",
"!688mU'JEWRU__RRWJG'U86![[!68mUJJEWRR__RRW/V'Um86![[!68U'JEWRR__URWJG'Um886!",
"!!88bbNTWSbUE'UITNNRU8!![[!!8bbGTWTSU''USTBNDbb8!![[!!8UJTWTIU'EUbSNNTbb88!!",
"!!88mnNTTN8STRm8NzzTA8!![[!!8mnzTTN8SRRm8NzzDnm8!![[!!8AVTTN8mRTS8NzzDnm87!!",
"!!4vbmDsIj=8UU8*jkkUm4!![[!!!bmDNIj=8UU8*jkkDmb4!![[!!4mUVIj=8UU8*jkkDmb94!!",
"!!37vbSsB:1*66:::hhSb!!![[!!!7bSsB:1*66:::hhSb7!!![[!!3bSNB:1*66:::hhSbv7!!!",
"!!!47vS2MM&$6622lMjSv!!![[!!!!7S2MM&>ss>2lMjn7!!!![[!!!vS2MM&$6622lMjSv7!!!!",
"!!!!+7n2BNkMHHMkjBjn!!!![[!!!!4n2BNkMHHMkjBjv4!!!![[!!!4n2BNkMHHMkjBjn7+!!!!",
"!!!!!+72TTkjhgkzTSj8!!!![[!!!!!42STkjhgkzTSj4!!!!![[!!!!72STkjhgkzTTj7+!!!!!",
"!!!!!!+7mSjNJJNNImj!!!!![[!!!!!!7mSjNJJNNImj!!!!!![[!!!!!7mSjNJJNNImj+!!!!!!",
"!!!!!!!+4mhjzzjhm4!!!!!![[!!!!!!!47hjzzjNm4!!!!!!![[!!!!!!4mhjzzjhm4+!!!!!!!",
"!!!!!!!!!+*gggg2!!!!!!!![[!!!!!!!!+*gggg2+!!!!!!!![[!!!!!!!+*gggg2+!!!!!!!!!",
"[[[[[[[[[[[[[[[[[[[[[[[[[[[[[[[[[[[[[[[[[[[[[[[[[[[[[[[[[[[[[[[[[[[[[[[[[[[[",
"[[[[[[[[[[[[[[[[[[[[[[[[[[[[[[[[[[[[[[[[[[[[[[[[[[[[[[[[[[[[[[[[[[[[[[[[[[[[",
"!!!!!36678888887663!!!!!}}}}}}}}}}}}}}}}}}}}}}}}}}}}}}}}}}}}}}}}}}}}}}}}}}}}",
"!!!O64688nnnnnb87646O!!!}}}}}}}}}}}}}}}}}}}}}}}}}}}}}}}}}}}}}}}}}}}}}}}}}}}}",
"!!O478nbmAASSAnbv8873O!!}}}}}}}}}}}}}}}}}}}}}}}}}}}}}}}}}}}}}}}}}}}}}}}}}}}}",
"!!O38nbmASDDDAmnnv873o!!}}}}}}}}}}}}}}}}}}}}}}}}}}}}}}}}}}}}}}}}}}}}}}}}}}}}",
"!oO4bbmnASFFDAnbv8773oo!}}}}}}}}}}}}}}}}}}}}}}}}}}}}}}}}}}}}}}}}}}}}}}}}}}}}",
"!oo4vbmnASFFDAnbv873OOo!}}}}}}}}}}}}}}}}}}}}}}}}}}}}}}}}}}}}}}}}}}}}}}}}}}}}",
"!oo49bbnnSDDSAnbv873OOo!}}}}}}}}}}}}}}}}}}}}}}}}}}}}}}}}}}}}}}}}}}}}}}}}}}}}",
"!ooh9bbnnSSSSAnbv873OOo!}}}}}}}}}}}}}}}}}}}}}}}}}}}}}}}}}}}}}}}}}}}}}}}}}}}}",
"!oO=99bbmnAAnnnn7883oOo!}}}}}}}}}}}}}}}}}}}}}}}}}}}}}}}}}}}}}}}}}}}}}}}}}}}}",
"!oO=-+66bnbbbbv86j83O3o!}}}}}}}}}}}}}}}}}}}}}}}}}}}}}}}}}}}}}}}}}}}}}}}}}}}}",
"!oOO+#++6vbvv8jss*6OO3o!}}}}}}}}}}}}}}}}}}}}}}}}}}}}}}}}}}}}}}}}}}}}}}}}}}}}",
"!o3;###X+1787jg6*%4=63o!}}}}}}}}}}}}}}}}}}}}}}}}}}}}}}}}}}}}}}}}}}}}}}}}}}}}",
"So36#,#X.+v66g=3%+Op63oS}}}}}}}}}}}}}}}}}}}}}}}}}}}}}}}}}}}}}}}}}}}}}}}}}}}}",
"S 381d>#%#6=6==O>++x83 S}}}}}}}}}}}}}}}}}}}}}}}}}}}}}}}}}}}}}}}}}}}}}}}}}}}}",
"b+38sadp,#4=O=4O>+6f83+b}}}}}}}}}}}}}}}}}}}}}}}}}}}}}}}}}}}}}}}}}}}}}}}}}}}}",
"v+3bhap6O%277O86g+jfb6+v}}}}}}}}}}}}}}}}}}}}}}}}}}}}}}}}}}}}}}}}}}}}}}}}}}}}",
"766bkpbbO4OObSnnlbblb667}}}}}}}}}}}}}}}}}}}}}}}}}}}}}}}}}}}}}}}}}}}}}}}}}}}}",
"466bN9Umm934O39mUmb6bv64}}}}}}}}}}}}}}}}}}}}}}}}}}}}}}}}}}}}}}}}}}}}}}}}}}}}",
"!6vNH799767bb769997pSv6!}}}}}}}}}}}}}}}}}}}}}}}}}}}}}}}}}}}}}}}}}}}}}}}}}}}}",
"!6vDHx77bFUW_UFb77pdD86!}}}}}}}}}}}}}}}}}}}}}}}}}}}}}}}}}}}}}}}}}}}}}}}}}}}}",
"!68mNJJEWRR__LRW/V'Nm86!}}}}}}}}}}}}}}}}}}}}}}}}}}}}}}}}}}}}}}}}}}}}}}}}}}}}",
"!!8bbGBWTSU''USTBNRzb8!!}}}}}}}}}}}}}}}}}}}}}}}}}}}}}}}}}}}}}}}}}}}}}}}}}}}}",
"!!8mnzNTN8SRRm8NzzDjm8!!}}}}}}}}}}}}}}}}}}}}}}}}}}}}}}}}}}}}}}}}}}}}}}}}}}}}",
"!!4bmkjIj=8UU8*jkkDhb4!!}}}}}}}}}}}}}}}}}}}}}}}}}}}}}}}}}}}}}}}}}}}}}}}}}}}}",
"!!!vbgsB:a*66:aahhS2v!!!}}}}}}}}}}}}}}}}}}}}}}}}}}}}}}}}}}}}}}}}}}}}}}}}}}}}",
"!!!4v22Madas>adaMjS24!!!}}}}}}}}}}}}}}}}}}}}}}}}}}}}}}}}}}}}}}}}}}}}}}}}}}}}",
"!!!!2<2BNjMHHMjazjn2!!!!}}}}}}}}}}}}}}}}}}}}}}}}}}}}}}}}}}}}}}}}}}}}}}}}}}}}",
"!!!!!22ljgg==sjzSjb!!!!!}}}}}}}}}}}}}}}}}}}}}}}}}}}}}}}}}}}}}}}}}}}}}}}}}}}}",
"!!!!!!2jMsNJJNNImj!!!!!!}}}}}}}}}}}}}}}}}}}}}}}}}}}}}}}}}}}}}}}}}}}}}}}}}}}}",
"!!!!!!!2jsszzhhm4!!!!!!!}}}}}}}}}}}}}}}}}}}}}}}}}}}}}}}}}}}}}}}}}}}}}}}}}}}}",
"!!!!!!!!!*g==22!!!!!!!!!}}}}}}}}}}}}}}}}}}}}}}}}}}}}}}}}}}}}}}}}}}}}}}}}}}}}"
};
