/* XPM */
static char * north_xpm[] = {
"64 64 14 1",
" 	c #730000",
".	c #4F0000",
"+	c #670000",
"@	c #5B0000",
"#	c #7F0000",
"$	c #B30000",
"%	c #8B0000",
"&	c #9B0000",
"*	c #BF0000",
"=	c #A70000",
"-	c #CB0000",
";	c #D70000",
">	c #470000",
",	c #E30000",
"   # %&$*$$&=#@...@%==$**$&&&$-;,;;;;$**-$$$$$$%@+@+@@   +@@@...",
"..@@+ %%$*$$*&$$$=$$$$$;**--*$$=&@  ##%&=$$$$=%#+@@@@   @+@@@>..",
"..+@. +%&***$%  ##  #%$;-*-$$%@@  .@# ##%&$$=%..+@.@  +....@ @..",
"@@ ++ # &$&% +  # ++#%=$$$$&..  @ @. @+% %**&#>.+@.+  .@.@> @.@@",
".@ @ @+##&% +.@++ #%## $-$= ++++@+@@+  % #$*%.@..+++@@@@..>++>.>",
".+@..+  +&& #+####   =$*$@  +.@ @@.@    + -*#...+  +@.    ..@.>.",
"@@+..+@+ #%+ ###++%$;*$%@+ .+..#+@..+ #  #$-#.+. # +@++  @.@+...",
"+...@. @ +%=..@%$;-*=.+.   . .   @@ +#   +&$#. @ #+++..@. @++.@.",
"@@..+@ @+ %=%$$$-* +@@  +  .  +#+++@+# @@@&$#.@+# +@.@.+@@.+@..@",
"@ ..@@ @. @$$&*%+@#@@+#@+  + #  @@@    @ #&$% ++   @@@.@@ . @+@.",
"..++..++.@#%$&%.++  +@.@   +@  ++@. ## +%=-$&@.   +@@++@.@  @@..",
"+..++@+ .  +%$%+@@. ..@@#++ .+ .  # @#=$*$$$$.#@ #.....+@+ @.@..",
"+...@@@@.@  @&*## + ..+++   .@#   @=&*$$$$$$$+#   +... @+.+.@ @.",
".@... @@+  @#+&*$$%@+    ++   % @%=$*$%#  +&*=+@  ++..@@+ ...@.>",
"@....@+++@ ## .=**&#..  #%### #+&$%#%# ###  %*$%@  +@@.++ ..>@..",
"@@@...+   @###+&*$$$&#@@@## .+=*=%# ##  #%## =-*&@#  @@+ +@.>.+.",
"..@>+.. @ ##%#%&*$%.%$$$&&@@%$&&%@ ## +   ###+ =*&+@ ## @  +@.+.",
"@.@.@.@##%#%# $;$%@... %$&&$$$%.# +     .  @+ >#$*$.@#%%# ....+.",
"@@...  %## .%$,,-% . .  %$$--$#.+..     +  @@@ .%*-*=##&%.@...@+",
"@ +. # + #%&&&*$$$=$*&*-$-$*$$%.+@@## @+.#+ ..  .%$*;;&#&# .@.. ",
"+.+###=&$$&&#+ #++#   ++ # $$-*%+ +++ @+. +@..@@@=&==$-$###.... ",
"# ## =$$$$=#. ######%#%%#%#+=*;*&=  @   + @@@.@@%%#@@=$-$% ## @.",
"#  %&**$$&%. +     ##  ##%$%#$=&$*=+@     +@@.+.%#.  . &$$%###  ",
" =$&$& %$=@ +@   .+   ##%##%&%#  **%@+++ # @+ @#&#.# #   &*$$## ",
"=*=    .&$%+ ++ @ ++@ #   ++#%###%;*= @   +##@@%&++ + ##  #&&*$=",
" # +##% %$&+@+++@+#+++  + #@ ##%##%$$= #####++&&$ #    ## ++ ++#",
" #    ##@$*&+  ++  #@ #  # +@@@+ #%%--=@+%#++&$$=+# +++ +  ### +",
"# #++  #+#$$+  + ++%..   #  @@.+ #&%&-$%+ .%=***&.#+.+ @.@+@  % ",
" ++@ @  #@$*= + +++#+. +#  +@++..+ %##=-,*=$$--*&. ..@   @@..@ @",
"#+@@.@.@#+#*$.  ++@+ @ @%# +..@..@+%% %$,,;-***-& #.@+#+.@.@...@",
"# @...@@ #.$$#  .@@+#  +% @@......  ## #,-,**$**$+%#++  .@.+@@. ",
"##@.@.    .=$%@+@+++ +@+#+.@......@@ #+%-$$+ #%$&%+@   #%#  ++ #",
"%+  +@ +% +%$%+#... +  # @@@....@@@@ ++$$#@    %%$%.@#+ #+@..@+ ",
"#. ..... + $-$+%..@++ ##  @.@@...@@   #$&#+ @.@+&&&=# #+.......@",
"@. .@@.. #$*$$.% ..@###%# @++...@@@+  $$#@@ @>.@# %$$    ......@",
"@++..@.@+#=$$$. #@  @ ##+  @@....@  ##$$ ++  @.@@ #%=$&. ...+..@",
"  @@@..@> +%&$&  #+ #+  ++  +@@.@  %#$=%@ @@ @. @  %&&$%@  ..@.@",
" +  @.. @#+@@=*&  @+###  +@  +.  ##%$=% @ ++ +@@@+ #$%&$#+# @..@",
" . @...++  ##@$*& +#     + @+%   #$$&%  +@ +  +.@@++%##=%    @+@",
" @#+@.. ++  #+%$$ % @   .@@##%%#=$*=#@ +.+ @++@@.@++ # %$&@## ++",
" +  +@.@+@@@+ .%*& %#++ ..    ===$$% ## +@+ @+.++++++ # &$&.  .@",
"+. # @..+.@@  +#$$=#&#+++##%#=&&$&   ##  +  #    +...+  %&$%.  .",
"@.+ +@@. @+@ #@.&$*$#&$=%%%#%&=### +      + +     ..@+@  &$&&@  ",
"@.@+.@@@##%##  #&$-$$#$$=& &$$#+@+++##+  +@+++++ +.@.+.@  =$$%> ",
"#.. .  %##%#  #=$$*--*$%& $--*.  @.+ +  @+@.+@++  ....+. +#$$%+ ",
"   #######%$*-$=$$**-;,**-*;-$#. ### ++@@.@+++@@++++@.+@ +.=$&#.",
" # ## #**$-$**&# + %%&% #=****&#.+  #   .....@@++ ++++  +. $$$&#",
".  @$$$$$&#&&*#   #%%#=%#  #&**$&&%.. #  .....@@+ ++@ ##@ %&$$$&",
"&&&%$%%  +##$& @+#+#  #   ## &****&$%#+ #  ....@+   #   #%%%&&&$",
"&=&%%@# ##.#$%.@@ ##  # @  % &*$%  %&$$#.#  .@..@ +#%+.#$&+@#%&%",
"&%#.###++#.%$#.+  #. +@  +## *$# ####%=&% ## #    # .%$#+ # +#&&",
"&+# ##+@+ @$% + @+ . @ #    $;%+. +##&%=&&. #% + +  %&%@##  ##&&",
".  @  .@@+%$#+  @ +. + #  #$** +.++@ %$& $$%  . %$&%#  ##  #%&%#",
"..@@....@+$*#  @@+.+  +##.=;*# @+@+@##%&# $*-,**$% @@## @#  &*+.",
"@+ ..@....*$# #++  @+++ +.$$%# .@+   #%# #+$-;;$  ##  .   %&%  .",
"++.@...>.%*#+@+%@@.@++@++#$&  +   + @ ##@ ##=-$++ ++@  .#*$#.++@",
"+.+@@..@.$=#.@++@@+ ++@ @%$ +.@ #.@@@#+ @@ % $*+  @  .#$$=+. ..+",
"+.+@...+.$=@. ++...+  ++#*=+...@ ..@+ @@.@+%+@$=@ # +#$$%@# +.++",
"..+@.. @#$ @.@...@.+ +  =$ @.... ...@ +@..   ++$$& %**$%. @.>. .",
"..+  + .$& @@.....@ +@@ *%@@....+..@@++. + .+  $$-;--*%@@@. ..@.",
"@++. #+%=%.+.>..@.@@+  %*@ @....++.+. +@## @+++&%*--*$#@    @@@.",
"  #=# .$&#@@@.@.@..@@ %$$  #...@++.@+  @# @..++&&**-$&$#@@.  #+.",
".@.@@.$$&#.@@........ %*$&     #%###%# #%    +%&$$%++.%$&=#@ @@.",
"$$$$$$*$=&   @@@....#%$*$=%+ ++ #+.@+.@@+...#&$$=+##    +%&&$$%#"};
