/* XPM */
static char * pica_xpm[] = {
"47 95 17 1",
" 	c None",
".	c #000000",
"+	c #780800",
"@	c #400000",
"#	c #280000",
"$	c #501008",
"%	c #100000",
"&	c #401808",
"*	c #301000",
"=	c #584028",
"-	c #682818",
";	c #503018",
">	c #705830",
",	c #988060",
"'	c #786048",
")	c #803020",
"!	c #884028",
"...............................................",
"...............................................",
"...............................................",
"...............................................",
"...............................................",
"...............................................",
"...............................................",
"...............................................",
"...............................................",
"...............................................",
"...............................................",
"...............................................",
"...............................................",
"...............................................",
"...............................................",
"...............................................",
"...............................................",
"...............................................",
"...............................................",
"...............................................",
"...............................................",
"...............................................",
"...............................................",
"...............................................",
"...............................................",
"...............................................",
".......................+.......................",
".......................+.......................",
"......................@+.......................",
"......................++@......................",
"......................++@......................",
"......................@+@......................",
"......................@@@......................",
"......................@+@......................",
"......................#$@......................",
"......................%##......................",
"....................&*&@@*&##..................",
"...................@&$=--=$&#%.................",
"..................@@;@>>>>=$&%.................",
"..................@=>-,','>>*%.................",
".................@@-=>,,,,'=%#.................",
"................@@@-->,,,,'%#%.................",
"...............@@#@&>>>,';%#@..................",
"...............@*@@**=>>=&%#...................",
"...............#*@#%#*-=-%#@...................",
"...............#**%#;;&>&##+@..................",
"...............#*##&*&;>==&@++.................",
"...............#*****;;,;=,;@+#................",
"...............#*&&;;=>';&,>&##................",
"...............#&&;;;&;;%&>=;*@................",
"................#*;>;==>>&>=##@................",
"................##*;;=*%%>&=%%@................",
"................##*&=*%##*;;%%#................",
"................@##&;##++%;&#%#................",
"................@##&&%*#+*&%%.%................",
"................@###&%*#+%&#%.%................",
"................#%%#&*@@+&&%%..................",
"................#%###&@&@*%#%..................",
"................#.#@@@#&#&.%%..................",
"................#..%####@#.#...................",
"................#..%@#%@##.#...................",
"...................#@%%#@%.#...................",
"...................%#.%%%%.#...................",
"...................%#.%#%..#...................",
"....................#.%%#......................",
"....................%.###......................",
"......................%#&......................",
"......................##&......................",
"......................&@&......................",
"......................&&&......................",
"......................&;&......................",
"......................&;&......................",
"......................&;&......................",
"......................;=&......................",
"......................&=&......................",
"......................;'%......................",
"......................;=;......................",
"......................&=%......................",
"......................&;&......................",
"......................;&&......................",
".....................%;$%%.....................",
"....................#@$&#)@....................",
"..................#;!!)&%$#....................",
".................%;!!))&%&*&#..................",
".................$-$$-))%###%#.................",
".............-)!&@@$$!)--%##&@&@...............",
"............))!!$*#$+-!))$###@##...............",
"...........@))))$###&-$))-##%#######%%%%%......",
"........#%-$-+++$$%#@$--)--&#%###@@@@@@#%%%%...",
"........$$-$++$$+)-&%@$$++&$%%%@@++$$$$@@#@#.#%",
"...%#@###+++++@$-)--##@&$@$@#%##@$&$@@###%%%#..",
"%@+++)++@%@$@@#%$@-$$%##%###%%%%#@#######%.....",
"%#@@$++@@$@%@@##%%#@##%%%#%#@@@###@###.........",
"...#####@@@@@###@###@#@####@#######%#..........",
"..................##%#%#%##...................."};
