/* XPM */
static char * south_xpm[] = {
"64 64 43 1",
" 	c #2B230F",
".	c #2F2F2F",
"+	c #373737",
"@	c #4F3B2B",
"#	c #3F2B1B",
"$	c #473323",
"%	c #332B13",
"&	c #372313",
"*	c #5B0000",
"=	c #4F0000",
"-	c #574333",
";	c #533F2F",
">	c #43331B",
",	c #3F472B",
"'	c #2F371F",
")	c #670000",
"!	c #272727",
"~	c #4B371B",
"{	c #2F1B0B",
"]	c #4F3B23",
"^	c #4F3B27",
"/	c #1F170B",
"(	c #730000",
"_	c #373F27",
":	c #5B472B",
"<	c #53573B",
"[	c #7F0000",
"}	c #474747",
"|	c #474F33",
"1	c #232B0F",
"2	c #1B1B1B",
"3	c #6B4727",
"4	c #5F4B37",
"5	c #8B0000",
"6	c #3B3B3B",
"7	c #67533F",
"8	c #432F1B",
"9	c #675333",
"0	c #434343",
"a	c #575757",
"b	c #3F2F17",
"c	c #872300",
"d	c #9B0000",
"+#++#*))))(*** ./ $=*)((()***)(()())()(()()(()().% .. &@#.+&+. .",
"+%+. +**)()()*****))))((()((())*=.#;@#==(((())*=. .+ &.+&++. #+ ",
".+#&.+,*)()()=%--;%@=**)()())* .#-.$#+$-=))()*&+ .+ ..1+.+ .@%+ ",
".+@&.@++*))*+,+++#%$#$$*(()* .@-%@& &.+-@*)()=  +...+' + . $%..2",
" .&@#  -=**]  $ +&;]#&.*))*+.+ ++ + +  #@=((* . # + . @&+ +. .. ",
"%+@ &%&++** &.#@:#$& *)))$%+@  . .+%+%.@%#)(= . '+ % +&$@%.{ .+%",
"+..+ ,$ -**#&&$# +*))()*'+@ .   .&.+%$%@%@)(=$#+ $!+  .&#$ . . %",
"... &.&&+.**. @*)(()* . +%$  +$ .. $%+%%+#*(=.&./ ! $ _$ # ..++$",
"+ . %@&~#-=**)))()@  +@& >%+ .  . +&,#%$%'*)* +  +! .&+#$&$  +. ",
"&$ +&+@$ -.)()(*{++&+ #,+ %.% +  . $$.. %*)(*% {+{{+_ ., # %..'$",
"{.. .%%% @%*(** +$-..,&.&  >%. . %.#;#&$=)[(*&   .   +... ]#..%%",
"#+  @ %]..@%*(*  + &. @&&% $ . .&&&@  **)([()+#/+ + % +. $# %/%.",
"% '.% $%...+.*(==@ @._>,  $&. @$#&.)*)))))))).&@$$ ++ ~++.+  {> ",
"^%+ +#${+  &4+*(***.&$&# . #$&@>+*)))*=~@^#*)*$ $# % +.$%$. .' .",
"%+ ... $. %&@+ )()*=+ @#$~@$@@&+*)**=+ >-+-%)(**$%$ $ +%.%.+ $ {",
"+  $+% &+  @#$&**()(*=.&+%]$ .*))*=#@^@>+---%*()*&@@ . .&$&. '@ ",
"^%+ #> %%]#$@@=(((* *)(()*, **))=,@#++&^+&.>+@&()*{&$3~$  %+{.,.",
"%+. .& $&-@#$ )()*%  $#*(***)() @#,@&@ %_.'+.++=)()% $3#$,'{ >+ ",
".& .#$#;@~&.=*(((*# &.&&*)([[(). . +&#@#+.+&$+#.=(()*$#9~$$ %%..",
" @%%#->.&=****))***)()))())([().+ %$#@+. @ &# %#$*))()*&-]$ %..$",
".'#@~~*)))**=.^ {&@##@@#@#&*)[()...>+++..%%++ .  *)**)(*@$#$ /# ",
"$>@&&*))))*=.@..#@+$;-$-$@6%&)())*%^++&@@&+&+  2=*=%%*)()*$~]#  ",
"&$&*)))))*=.+@.+..$#@%#@#-}6@&**()*#+#@%.       **%>@%@)()*##&&$",
".*)*=*==)* +$ . {!+++#@@#.$}706.&))*.. @$#,  & =*= @@-$+;*(**@#&",
"))=.. ..))*!+> @/&+ +$##>&%@-@-:.#))* ,#&$ @% +**. ++&#<&#***))*",
"@%>+@-.+=)*  ..  $+ +##;+>$.+#$--+&*)*..];$$ +*)*#@+ .+@$-@.~+@ ",
"%@@$-++4 ))*!. +.@&@ @@&@%.  + #@};&)(*^.##.+*)()++ {& @..#@-#+#",
" $+%#,&-@*)*.$'... ++.+#+&##   ]%-@+&()*.. =*)((*%;+++ .#.%+#@@.",
" + $& &@@ ))=.@&. + . @##@#. . ...---&)(()*)))[(*{@ .!+ $&^./@+ ",
"{%+. '.%-%=))@>%+&! +.%.+@ .. .+ >@$-#=*(())([[(*@+%.+#>$&# ..+ ",
"+$.+ $^ @- ))=$&.+ +%@$@#+.   . +%++$} *(())))(()@+;+.+'.@2. .  ",
".+   %. @- *))+$&  .%%$.+ .  %. $.&%%-%=(**.&=*))=+.;.+%     +.+",
"@ $   &_#+ =)*+## +&%,++.@&+ %% ,&, @#%*)=.1@.+*)*=  &+ +.+  +. ",
"&.#+  ..#..))) ; .+%.&#:@&+...+% ,%$.#%**= +1!'%*))*=&#+ .. + ..",
"{.$!$%.  +*)() $$ ,.@@#%.. ]+' $+%$%^% *= +../.+#-**)=##$.@.%+{ ",
" .%'$& _  *)() #$+&#@.;>++2. $ .. &]#%**@&   +  @#-@*)*.#+% $   ",
"&.+$.  &+.#**)*$&@.+@+.+.%. ..+# &@#>)*=.+++ . +#@+<<))*+@$   ./",
"$%+>@++  +. +*)*@#+..+'+>@!.+%.##@#$)**&+@ . +.   #-@<*(=+@&+. .",
"%+%+## .2.+#@ ))*# %@++.. . .@#$#~***=%#+&@+ +.%! & <@-**&#;&+  ",
"+ .@@  ++ &@#.*)(##, ++&$&.~&$#$*))*= $..+@+ +.! 2.+.-^*)* $#++ ",
":.@.@^    & +@/*)*@$@.@> {]~^#*))*==.$.+!    @ @ +! .:@-*)*+#@..",
"'.@'!+   .+&#..*)))#~3##+&$;%**)*=.,&@'#;  @  + @+ .  @+**)*{@@ ",
"+ #$   . ..+#;. *((*$3^^~;-#*)**..&.&#.#++.%.' .&@.+ .&|#*)**.~&",
" +..&+ .&&$@@@$=)([)*$-^--@)))&%+  @&]@@.+      +  .'#+&+#*))*%;",
"# .@ #$#@$@&#&*))[[[))*@-$)()( &$ .].%+#.. $! . .  +.'++-@=))*%&",
"@>@##;#@$#=)(()))())(()(((((((=$&;#@$# +@ + +  . +  '$  %#+))*= ",
"#;###&#***))))*@+@-$7@$-%*))((*=$ $$;#:&+ %% .& +,    $#+ =)()*=",
" >#+*)***=#*))$###+@$.;@$;#@*(())*=$.$8;$.@%# . .. $$,...=**)[))",
"****)*=&@.*=)*$ .&. ++.&@.<;#*((()*)** @@$]+$ .  +!. $+ ==**([[)",
"***** .-$-.=)= ..._ ~>&.+.+-;)()<+@*)))=.$#>$ .+$&>&#_ =*=@$**[*",
"**=+#|@.@#_*);  +{+.&.&@# #|#();%:;}<****&@;$#&#>&$  =*= +@.+=(*",
"*$><$#% .-%)*&+&  @ ~@#@.+@#)(7%+.@@4;@***+#@@&#]  =**=+@@%@%=))",
"++@,&@ .+%*)=+ /  %b+.@%@&.*():+..+@+}a-;((*%,.==*)*=@.@#.&@=**=",
".&&. . +. *)@@./.. @$%..$ *()@+.  #~>$;}@$)[((((**+$ +@%+%@=*),.",
"&+&+ ... +)*$   .&&$%;.+% ))@- !$#$%@$@%@@+*[d[*#@-##@ $@&*)*,  ",
" ++@/1/ !*)@>' # @%&@%+ %@))-.   +$%.+|%.#$%*[* ++$..%$ =))* -##",
".@%.+/1&+)*&+  .! .+%+&,+*)$%  &+  $$#.$&.#-%*)+!. @^&*))* +.{#&",
"$ %+ !+%.)c. .$ %+ +.%$$#)*. +   +.$.%.&.+.;#^** %&$'=))*&-+#$. ",
". %&+/&+=)#+.++.++'+&.$&*)@ % %! $  &  + .$%-+@)(*.=)((* ; ..&&#",
" ++&+&#.)*# .2+.. ^.,$ %)*&. ! %+%&&++..+ $%+#+*)(((((* $&]+ +/ ",
"#+. @8]*)* ..2. . +.+$$*)+&... ...,%. .$'@.+ %@*)555((=&&@&&$ +%",
"$@:~#; )*~+  .&. .  &,=)*&@ %+%  + % ,. @%,. |+**55()***'& #&&~]",
".+!.! ))*~ ,/ +$ . .$#*)*=&]%%@$@@#$$$@$%@#]@#*))*= +.*)**=  '+%",
")))))))()*@&%%&.. . **)(***    $ .  +     > %*)() @-+@^@ =**)*)="};
