/* XPM */
static char * tree_xpm[] = {
"50 87 17 1",
" 	c None",
".	c #000000",
"+	c #282018",
"@	c #080800",
"#	c #102008",
"$	c #000000",
"%	c #100808",
"&	c #181010",
"*	c #403828",
"=	c #302820",
"-	c #081800",
";	c #202010",
">	c #081808",
",	c #001000",
"'	c #300000",
")	c #280000",
"!	c #180000",
".............................+@...................",
".............................#$...................",
".............................#@.......@...........",
".............................+%@....&%@...........",
"........................%...&@@@...+&&@@..........",
".......................@&&..@@$$....&&@...........",
".......................@&&.##$@@$..@%@$...........",
".......................@&%#&%@@$@$@+&@@...........",
"......................@@@&#@@$$@+*%&@$............",
"..................$$@@%@$@%@@%@%++&+$@............",
"...................$.%&&$%=+@@@&=#&%$$............",
".....................@&@@%+&$@%@-;&@@$$...........",
".....................@%$@#+>%%@$+>>@@$@$$.........",
"....................$$%$%+#>@%%&&*-$$%$&@$$.......",
".....................$@$@>#&%@%%+=#>@%@@$$@.......",
".....................$%@%&&>@%&&+=+&,%@$$.........",
".....................@%%%&+&,%&+++=;>@@@@.........",
".....................$&,-;##,@#&&+>+-@%@$.........",
"....................@@,,&&+&-,+&&+=&&&@@@.........",
"...................$@>>$-++&->+&#++=&>%@@.%.......",
".....%..........$$$%>-@#>;+@%@&&#&++%&@$$@@@$%....",
"....$%..........@&%>,@$&%#=#&-&#%&&&=&@$@$%$$$%&%&",
".....@$.@......$@&>-@$#&%#+&&@&+*+&+&&@@$.$....$$.",
"......$$%&....%&%&+&@&>%++=&%>%''+&+&%$$..........",
"......#$$@&.&&@@%&@$&>-&#=+&&#@'%$%@%@@$..........",
"....##&&-,---&@&%&&$,,%&=>&&@-&)%)@%@@$@..........",
".&>&->&@>@@%,,,%$$&@@@&&++;&&@++%)@@%@%...........",
".%&&%@@@@@$$@@$$$@%,,%&&>>#)%->++'$@$%@...........",
"&@@%@%@....$@%@$@$%,@&$&##+%&%,&+)'%$@%...........",
".....$......$$%%@$%,%&@,->+#)&@&+=)@@@$%..........",
".............%@%@@%,%&,-&&>+%%-&+&+*,%@@..........",
".............$%@$$$,$&>%@#&=#%&&#=+*>-$@..........",
"..............$@%%$,,&,&-#>++)&>&#>++@&$%.........",
"...............@%$$$,@-&&>#+&)&-#+*&&>%$@.........",
"...............$%$$$,%,%%&##>#&-&+**&-&%@$........",
"...........@&&%&$$@$,$-%&&#>+'&&++**&&%@@$........",
"...........$$@%@@..$@$$-&&#>+&&>&===&&-%$.........",
"...........$.$@$$...$%$&#&+#=+%-;+*>&@,%$.........",
"................$...$@&>%+*=+&&&&#=&&,,%@.........",
".....................$&&%>=&#&&#=;*%&,&%@.....&&%$",
".......#.............$->&&;*>&-&&#*&@>$$,,>@.,>@$.",
".......%.............@%#%&*&&&&++*+&-@$@$$>,,-%...",
".......$@@...........@&>&>*+-%&&>*+&,$$.$$$%@$....",
".........@%......%+++@#&&#*&>@&&+*&&@%@....$$.....",
".........$%......@#%@%>--=&&-@&%*=#%$%$...........",
".........$@+.....$$$$&-%>#&=&%@&&&&,$@@...........",
".........@%#+..%+@$$%-@&=+&=#&@&#&$$@@%$..........",
".........@@%@+.++$@$@%&&>-==+&&@=&&%!%%$..........",
"..........$%@%&&$&@@%&&&=&&=>&&@&&@,!!$@@.........",
"...........$@@$%$&%$@%&&+&++#&%%&%%,!!$...........",
"............$@$$%&&%@&&>=#+=&&&*&&&@$@$...........",
".............$$$$%%$$>&&+&+=&#+++@&%@$$...........",
"..............$$$@%%,%%&=#++;;+++&%&$@$...........",
"...............$$@%@>%&&+&++&&*+&&@)%$$...........",
"................$%$&>$>&#&)&>#=+**%);%$$..........",
"................$$$%-@-&=)#&#>*&&&,->#@$..........",
".................$$$>$,,@)&&&#=++#@,&#%$@$@.......",
"..................$@&@,-&%%@+>*&+&&,&&&@$$>.......",
"...................$%%@,@&@%##++#+&-@&&@$.........",
"...................@$,@,@#@%#&+++;&&&&&@..........",
"...................$$@%,&#$&##=**>;#&&&@..........",
"...................@$@&-&%%%@+*++&;%&#%@..........",
"...................@$&&>)@&#%*%$@$,@;>%@..........",
"...................@$&&&)%%#*+@@%&-%++-@..........",
"...................$@&-!=@#*))#=*=#;+=@&@.........",
"..................@$$%&#*$*+'**=##>&+*,&&@........",
"..................@@@@&&*$++&*%%%@@@=*%,+%........",
".................$@@>&#=+&;=&&%@@%-&*&$,%&........",
"................@@%%@#>+=%+*%&@%@@&+*=,,@%@.......",
"................$@$!>;#*&%>=+&@@%%>=>=-,$@$.......",
"...............@%$%&#>#==,#+=&@%@@#**>+>$$%$......",
"...............%%,##+=#=&->#=+%&%-&*>+#@$$@$......",
"..............%&$#,>#=>='>@&*+@@@-#*=+&$$$@@......",
"..............&@%>#&;##&'->@++%#%%@*>+>-$$$$......",
"..............%$,,+;;#*+'@-%#+&&@@,+#+#&-$@$......",
".............%$@->==>#+&-,@-%##%+%-@=>>->@$$......",
"............@%@,-@@*++&>@@>,@#&&-@@,+##>@$@.......",
"............$@@-,@%>+&--@$,,%&++@-#@@@$-,&$.......",
"............@&,-,$@*&&->$@-,@&+=&->%$%&>-,$.......",
"............$-,>$%%*#-@%,,-,-@#=#>--@$@@>,$$......",
"...........$&>@-$@&*>>-@,@%->%&+=&--$@$%,-,$@$....",
"...........@--,@@%*#>-%@@$%-,@-&**-&%$@$-,@,,$....",
"..........$>@,%@$&+&>@@%@$@&@>@%+=#>-%@$%@,,,$....",
"..........&-,-$$%+#>-@%@$@%&%--@#=#--%$$@$@@,$....",
".........&&%@@@@&;>&&%$$@%%@%@%@&#+&#&&@@@$$@$@...",
"...............@+>->@@@$$@@%%$.@%&+&@&%&%@........",
"...............&+&&.............@@@&%@%@@........."};
