/* XPM */
static char *b9dbb65c51d844958adcd982e7c59d35AlpcIxeN8CFowe4J[] = {
/* columns rows colors chars-per-pixel */
"101 101 54 1 ",
"  c #070707",
". c #0B0B0B",
"X c #170F07",
"o c #0B1707",
"O c #1F170B",
"+ c #131313",
"@ c #1B1B1B",
"# c #2B230F",
"$ c #232B0F",
"% c #332B13",
"& c #3F2F17",
"* c #3F2B1B",
"= c #2F371F",
"- c #2F2F2F",
"; c #373737",
": c #43331B",
"> c #4B371B",
", c #533F1F",
"< c #473323",
"1 c #533F2F",
"2 c #5F4323",
"3 c #5B472B",
"4 c #474F33",
"5 c #5F4B37",
"6 c #6B4727",
"7 c #774F2B",
"8 c #7F532F",
"9 c #775F3F",
"0 c #434343",
"q c #4B4B4B",
"w c #6F5743",
"e c #875733",
"r c #8F5F37",
"t c #9B633B",
"y c #A36B3F",
"u c #836B4B",
"i c #8F7753",
"p c #AB6F43",
"a c #B37347",
"s c #BF7B4B",
"d c #937B63",
"f c #CB7F4F",
"g c #9F876F",
"h c #CF8353",
"j c #D78B5B",
"k c #DF9363",
"l c #E79B6B",
"z c #EFA373",
"x c #F7AB7B",
"c c none",
"v c #FFB383",
"b c #FFBB93",
"n c #FFBF9B",
"m c #FFC79B",
/* pixels */
"ccccccccccccccccccccccccccccccccccccccccccccccccccccccccccccccccccccccccccccccccccccccccccccccccccccc",
"ccccccccccccccccccccccccccccccccccccccccccccccccccccccccccccccccccccccccccccccccccccccccccccccccccccc",
"ccccccccccccccccccccccccccccccccccccccccccccccccccccccccccccccccccccccccccccccccccccccccccccccccccccc",
"ccccccccccccccccccccccccccccccccccccccccccccccccccccccccccccccccccccccccccccccccccccccccccccccccccccc",
"cccccccccccccccccc@@+  cccccccccccccccccccccccccccccccccccccccccccccccccccccccccccccccccccccccccccccc",
"ccccccccccccccccc---+.   cccccccccccccccccccccccccccccccccccccccccccccccccccccccccccccccccccccccccccc",
"cccccccccccccccc+0;@@@.   ccccccccccccccccccccccccccccccccccccccccccccccccccccccccccccccccccccccccccc",
"ccccccccccccccc+@0q-%www<==%%cccccccccccccccccccccccccccccccccccccccccccccccccccccccccccccccccccccccc",
"ccccccccccccccc+@-;w9w<%=+++  ccccccccccccccccccccccccccccccccccccccccccccccccccccccccccccccccccccccc",
"ccccccccccccccc @@5dw======%+++ ccccccccccccccccccccccccccccccccccccccccccccccccccccccccccccccccccccc",
"ccccccccccccccc  1ud5w4%%%=%%%%%+cccccccccccccccccccccccccccccccccccccccccccccccccccccccccccccccccccc",
"ccccccccccccccc $515d5<4==wwww==<%ccccccccccccccccccccccccccccccccccccccccccccccccccccccccccccccccccc",
"ccccccccccccccc %1====w<<w=%++++%==cccccccccccccccccccccccccccccccccccccccccccccccccccccccccccccccccc",
"ccccccccccccccc$5%%%%<<=w%....++++=cccccccccccccccccccccccccccccccccccccccccccccccccccccccccccccccccc",
"ccccccccccccccc%==+%+==w%@;@-0-++   ccccccccccccccccccccccccccccccccccccccccccccccccccccccccccccccccc",
"cccccccccccccccw=++%.==%.@;-+;-@++    ccccccccccccccccccccccccccccccccccccccccccccccccccccccccccccccc",
"cccccccccccccccw=+++.=w. @-;-+0<555====%ccccccccccccccccccccccccccccccccccccccccccccccccccccccccccccc",
"ccccccccccccccc=4=+=+=d ++-00@5w1%====4=%%ccccccccccccccccccccccccccccccccccccccccccccccccccccccccccc",
"ccccccccccccccc%<%%%+=d ++@;$9i11%===%+%=w%%.cccccccccccccccccccccccccccccccccccccccccccccccccccccccc",
"ccccccccccccccc%=%%%+=g   +@5wwuw5=====+%=w%%$ cccccccccccccccccccccccccccccccccccccccccccccccccccccc",
"ccccccccccccccc+%%%%+<d   +@i55wiw55==<%O%=5%$$ ccccccccccccccccccccccccccccccccccccccccccccccccccccc",
"ccccccccccccccc+$%%%%=d   @<i=5wdd9wwwww4+=%11%$ cccccccccccccccccccccccccccccccccccccccccccccccccccc",
"ccccccccccccccc+$$%%%=9    5w==5wd9wd9= ..=%5$    ccccccccccccccccccccccccccccccccccccccccccccccccccc",
"ccccccccccccccc +%$%$=w    w5%%55wwd9%.....=%      cccccccccccccccccccccccccccccccccccccccccccccccccc",
"ccccccccccccccc  O%$%$5%   i%$%%5wi9=+......        ccccccccccccccccccccccccccccccccccccccccccccccccc",
"ccccccccccccccc  O$%$$1%   9$$%%5wi=% ..... .       ccccccccccccccccccccccccccccccccccccccccccccccccc",
"ccccccccccccccc   O$$$15   1 O$%%55%  .O$%====%O++  ccccccccccccccccccccccccccccccccccccccccccccccccc",
"cccccccccccccccc  ++$$%5O  < OOO%u%. +%=========%++ ccccccccccccccccccccccccccccccccccccccccccccccccc",
"cccccccccccccccc  +$+$$<$  <  OO%9$ +<94444=======O+. ccccccccccccccccccccccccccccccccccccccccccccccc",
"ccccccccccccccccc  +$+$$*  $  OOO9..=w994444======%+++ cccccccccccccccccccccccccccccccccccccccccccccc",
"ccccccccccccccccc   +OO.#+ +  O$$9..=w9994444u9u99www%+cccccccccccccccccccccccccccccccccccccccccccccc",
"cccccccccccccccccc  +++++# +   $$u $==ww999uuuuu99wwwwwwccccccccccccccccccccccccccccccccccccccccccccc",
"cccccccccccccccccc   ++++#++   $ u $==5ww99uu9uu99www9wwwcccccccccccccccccccccccccccccccccccccccccccc",
"ccccccccccccccccccc  .++..*+     u %===5ww9=O    .oo.+=999ccccccccccccccccccccccccccccccccccccccccccc",
"ccccccccccccccccccc  .++++*+ +   u %===5w9=         ...=u9ccccccccccccccccccccccccccccccccccccccccccc",
"cccccccccccccccccccc   +++%. +   9 $$%=59=          ...O=99cccccccccccccccccccccccccccccccccccccccccc",
"cccccccccccccccccccc    +++.++   w $$%55w+          ....Ouucccccccccccccccccccccccccccccccccccccccccc",
"ccccccccccccccccccccc  + ++++O   w $O%5w%      %%=%O ....=uuccccccccccccccccccccccccccccccccccccccccc",
"ccccccccccccccccccccc   + ++++ + w $ %55+     %==4=%O....Ouiccccccccccccccccccccccccccccccccccccccccc",
"cccccccccccccccccccccc . ++++++O w $ 115.    %==4uuu4%....=iicccccccccccccccccccccccccccccccccccccccc",
"cccccccccccccccccccccc    + ++OO u   <1$     %==w4O$44=...Oiicccccccccccccccccccccccccccccccccccccccc",
"ccccccccccccccccccccccc .+++++OO$u   11$     $%w4O=<O44....uicccccccccccccccccccccccccccccccccccccccc",
"ccccccccccccccccccccccc  .+ O+$O$i ..11.     $$w+===4i4....4icccccccccccccccccccccccccccccccccccccccc",
"cccccccccccccccccccccccc   + OO$$i ..55.     .%w+===<u4+.++$icccccccccccccccccccccccccccccccccccccccc",
"cccccccccccccccccccccccc    OO$O$u $.15       Ou4O==u44++..$icccccccccccccccccccccccccccccccccccccccc",
"ccccccccccccccccccccccccc  + OO$$u $.55        %949944=.....iiccccccccccccccccccccccccccccccccccccccc",
"ccccccccccccccccccccccccc  .+ +O$9 $ 15         %4444%......uuccccccccccccccccccccccccccccccccccccccc",
"cccccccccccccccccccc>>>666##++OOO9 $.15.              ......9uccccccccccccccccccccccccccccccccccccccc",
"cccccccccccccccccc,66yahhat66 O O< $ 5w+              ......99ccccccccccccccccccccccccccccccccccccccc",
"ccccccccccccccccc>6rsjjjjjjat,OOO< $%55+             . ..   99ccccccccccccccccccccccccccccccccccccccc",
"ccccccccccccccccc>paahjjjjjjat,OO< $%5w.                    w9ccccccccccccccccccccccccccccccccccccccc",
"ccccccccccccccccc>ptaahhjhhhfaa,O< $$55+                   %99ccccccccccccccccccccccccccccccccccccccc",
"ccccccccccccccccc7trtashhhhjjjat$1 $$55$                   %99wcccccccccccccccccccccccccccccccccccccc",
"cccccccccccccccc>7trtashhhhjjjja,1 $$15$         ++...++.  %w9wcccccccccccccccccccccccccccccccccccccc",
"cccccccccccccccc>7r62tashhjjjkkka, $O11$       ..+...+++.. +w9wcccccccccccccccccccccccccccccccccccccc",
"cccccccccccccccc>7726tpasshhklzzkt,$$<<$       ..........+ +w99cccccccccccccccccccccccccccccccccccccc",
"cccccccccccccccc>7666tpaajjlzvvvzf6O$<<<        ......+.++ +2w9&ccccccccccccccccccccccccccccccccccccc",
"ccccccccccccccc&>7762ryaashlvvnnnzf,O<<*         ..O.$+$+$+ 2w9&&cccccccccccccccccccccccccccccccccccc",
"ccccccccccccccc>77636etaaajxnnnnvxkaO<**     . . O.......++ %wu&&&ccccccccccccccccccccccccccccccccccc",
"ccccccccccccccc>76636etaaajxnnvvxzkfs<**          .O.O.O.$+ %w9&22ccccccccccccccccccccccccccccccccccc",
"ccccccccccccccc>7723,etaaajlxnvvxzlkht**    . . +OOOOO$$$$% %92&22&cccccccccccccccccccccccccccccccccc",
"ccccccccccccccc>7662%68tppfjlnnvxzllkht*     ..++O$O%$%$%$% +99&22&cccccccccccccccccccccccccccccccccc",
"cccccccccccccccO>76>>68tppafjxnvxzlllkjs     .O+O+OOOO$$$$$ +92&222&ccccccccccccccccccccccccccccccccc",
"cccccccccccccccO>>%>%,38ryypjlvzlkkkkkjjs#   ++$+$O$O%$%$%$  92&222&ccccccccccccccccccccccccccccccccc",
"ccccccccccccccccO>>%>%38ryyyfjzljjjhhjjjff6  .O+$+$$$%%%%%%  2&&222&&cccccccccccccccccccccccccccccccc",
"ccccccccccccccccc >>>&338rtyafzljhfhfhhsffft6+OO$O$$$%%%%%%  &&22222&cccccccccccccccccccccccccccccccc",
"ccccccccccccccccccccc,338rttyakkhshhssfsaaafft6+$%%%%====== &&222272&&ccccccccccccccccccccccccccccccc",
"cccccccccccccccccccOOOX:7ettyajjhssphfjkkhsaaastt66%%====%%&222227722&ccccccccccccccccccccccccccccccc",
"ccccccccccccccccc>OO##X:3erttpjjhsshjkllllkhaasssssttrrypaaytrr7772222ccccccccccccccccccccccccccccccc",
"cccccccccccccccc>,>&&#X:3788ryfhsphhkkllllkhaapppaaappptettrreeee22222&cccccccccccccccccccccccccccccc",
"cccccccccccccccc>,,,&#O#3388etaasahhllzxzzljjhpphhsppaatrrree772222822&cccccccccccccccccccccccccccccc",
"cccccccccccccccc>,,>&#O:>266eerrrypjljhsaatttppppptyypyryarr6677888882:cccccccccccccccccccccccccccccc",
"cccccccccccccccc&,>&##O#:>,,27eeerraaprrssshhhtttajklhhaaryaye88ettt882&ccccccccccccccccccccccccccccc",
"cccccccccccccccc&&&###OO#&>>,66776>2,66phhhpppaahklhhssssaarrayttpptt8,>&cccccccccccccccccccccccccccc",
"ccccccccccccccccc&OX#OO X#&&&,226,,&&6ahpprrrtjjhhytttppppaaaerppppatt,,&cccccccccccccccccccccccccccc",
"cccccccccccccccccc #XOO  #%%&>,2,&&>eyr8e6thhsaattetyypapyyyateryaaast,,&cccccccccccccccccccccccccccc",
"cccccccccccccccccc #OOO  #%%%&:>>&>>eyr66phhhsaattahxxlzlkjjateryaatya6>&cccccccccccccccccccccccccccc",
"cccccccccccccccccccOOOO  X##%%&::6>2re66aahaataahxxkhpt8tphlkhaertttty6>&#ccccccccccccccccccccccccccc",
"ccccccccccccccccccccOOO     X##&>&6,%6rtpppttppp8eeeetttppteerphfyer726,##ccccccccccccccccccccccccccc",
"cccccccccccccccccccccc      XX#&>&O>88ttee7pp8rrtkxkhhhlvvlhperypyyprr2,##ccccccccccccccccccccccccccc",
"cccccccccccccccccccccc       X#>&O&8re626pp86pkxkteeeeyyhlvvkkhsspprtat,>##cccccccccccccccccccccccccc",
"cccccccccccccccccccccc        #% &682:2tt86ppptte626akklvvkhprtttrr6etaate2#ccccccccccccccccccccccccc",
"cccccccccccccccccccccc          #,62#266rpteee,,6eflkhyyr662222etaaajjate62&2#ccccccccccccccccccccccc",
"cccccccccccccccccccccc         ##,,&>66rtt866,rpfhpyy7668rahlxxkjhfssate662&22#cccccccccccccccccccccc",
"ccccccccccccccccccccccc        ##,,&>6tpt866pfffhy768668rahlxxkhapyreeee77>&%%#cccccccccccccccccccccc",
"ccccccccccccccccccccccccc      X&&&%2rat86epfyppr76>etajkzxlhpteeee2,,,,&&&&####ccccccccccccccccccccc",
"ccccccccccccccccccccccccc       ## >6psy6yffyr66>>etahxxlhae62222eeeerppee66,>##ccccccccccccccccccccc",
"ccccccccccccccccccccccccc         #,7fjypjfyr6>>etpfhhpr2&2yaaparttathlhppapr6##ccccccccccccccccccccc",
"ccccccccccccccccccccccccc         #,7pjjjt66>6eafjhhp7&&2typsjkjaaaaefkjpptpse6>ccccccccccccccccccccc",
"cccccccccccccccccccccccccc        #,7ysat,>>8affjhpe2&26yypfskzkkaaaefkfpprfftf6ccccccccccccccccccccc",
"cccccccccccccccccccccccccccc      #,7eyr,>68akfsye2%&,67tappfljkhhfpykaapppzpyzp6,ccccccccccccccccccc",
"ccccccccccccccccccccccccccccccX   #,7et7&8aakarre2%&,67rahtphljzksspfztattakhjppr62cccccccccccccccccc",
"cccccccccccccccccccccccccccccc+   #,7e2&2askar882%@,67ryhspyhklzlfpffjetkkakpfjja886ccccccccccccccccc",
"ccccccccccccccccccccccccccccccc    >22&&7haar22>%@>267ryysrpskklkjjhzkyazzkzxzkhlfar6cccccccccccccccc",
"ccccccccccccccccccccccccccccccc    #&%&>aptt22%%@@,666rryyrrpzklhzhkzzahbbkkzlhllljkp76cccccccccccccc",
"cccccccccccccccccccccccccccccccc    ###2tr77>&  @%>766rerspphlzzkkkjklakmmkllsjzkjkjjyr6ccccccccccccc",
"ccccccccccccccccccccccccccccccccc   ###7r866>%  @%>67678rsyphkkxjsslvkzzzskljlkjxlasjhat66ccccccccccc",
"cccccccccccccccccccccccccccccccccccc ##26622>O %O%277877eaytjkklasszzzkkapshzskxkllkhshstr6cccccccccc",
"ccccccccccccccccccccccccccccccccccccc #>,2>>%O %OO>7e777rarpskzkhpalzxkhrhhhxklzzkklhhjasty6ccccccccc",
"cccccccccccccccccccccccccccccccccccccc%&>,>>#O%%#OO2ee77ryppsfklhyaklksjyrajlzllllxzllklalpptcccccccc",
"cccccccccccccccccccccccccccccccccccccc %&,>>#OO%##O#2772repaphklarpklakhmtslzlhlzzkjszjjjlasrtccccccc"
};
