/* XPM */
static char *_c52adb5115b420cab73a83e62f5f66bekMDiSicAGafb29p[] = {
/* columns rows colors chars-per-pixel */
"82 142 67 1 ",
"  c #070707",
". c #0B0B0B",
"X c #170F07",
"o c #1F170B",
"O c #131313",
"+ c #1B1B1B",
"@ c #2B230F",
"# c #232B0F",
"$ c #332B13",
"% c #3F2F17",
"& c #3F2B1B",
"* c #2F371F",
"= c #232323",
"- c #2F2F2F",
"; c #373737",
": c #43331B",
"> c #4B371B",
", c #533F1F",
"< c #732B00",
"1 c #473323",
"2 c #533F2F",
"3 c #5F4323",
"4 c #5B472B",
"5 c #474F33",
"6 c #574333",
"7 c #5F4B37",
"8 c #6B4727",
"9 c #774F2B",
"0 c #7F532F",
"q c #675333",
"w c #775F3F",
"e c #434343",
"r c gray34",
"t c #6F5743",
"y c gray42",
"u c #9F3700",
"i c #9B5B13",
"p c #AF7B1F",
"a c #875733",
"s c #8F5F37",
"d c #9B633B",
"f c #A36B3F",
"g c #836B4B",
"h c #8F7753",
"j c #AB6F43",
"k c #B37347",
"l c #BF7B4B",
"z c #CB7F4F",
"x c #C39B2F",
"c c #FFFF23",
"v c #9F8363",
"b c #9F876F",
"n c #CF8353",
"m c #D78B5B",
"M c #D7BB43",
"N c #DF9363",
"B c #E79B6B",
"V c #EFA373",
"C c #F7AB7B",
"Z c none",
"A c #939393",
"S c #FFB383",
"D c #FFBB93",
"F c #FFBF9B",
"G c #FFC79B",
"H c gray86",
"J c #E7E7E7",
/* pixels */
"ZZZZZZZZZZZZZZZZZZZZZZZZZZZZZZZZZZZZZZZZZZZZZZZZZZZZZZZZZZZZZZZZZZZZZZZZZZZZZZZZZZ",
"ZZZZZZZZZ       ZZZZZZZZZZZZZZZZZZZZZZZZZZZZZZZZZZZZZZZZZZZZZZZZZZZZZZZZZZZZZZZZZZ",
"ZZZZZZZZ -r-r--  ZZZZZZZZZZZZZZZZZZZZZZZZZZZZZZZZZZZZZZZZZZZZZZZZZZZZZZZZZZZZZZZZZ",
"ZZZZZZZ rr- --    ZZZZZZZZZZZZZZZZZZZZZZZZZZZZZZZZZZZZZZZZZZZZZZZZZZZZZZZZZZZZZZZZ",
"ZZZZZZ r-r-  -    ZZZZZZZZZZZZZZZZZZZZZZZZZZZZZZZZZZZZZZZZZZZZZZZZZZZZZZZZZZZZZZZZ",
"ZZZZZZ - --        ZZZZZZZZZZZZZZZZZZZZZZZZZZZZZZZZZZZZZZZZZZZZZZZZZZZZZZZZZZZZZZZ",
"ZZZZZ -  - **$$ooooZZZZZZZZZZZZZZZZZZZZZZZZZZZZZZZZZZZZZZZZZZZZZZZZZZZZZZZZZZZZZZZ",
"ZZZZZ -   *******$oooZZZZZZZZZZZZZZZZZZZZZZZZZZZZZZZZZZZZZZZZZZZZZZZZZZZZZZZZZZZZZ",
"ZZZZZ   o*w*******$oooZZZZZZZZZZZZZZZZZZZZZZZZZZZZZZZZZZZZZZZZZZZZZZZZZZZZZZZZZZZZ",
"ZZZZZ  oo*h********ooooZZZZZZZZZZZZZZZZZZZZZZZZZZZZZZZZZZZZZZZZZZZZZZZZZZZZZZZZZZZ",
"ZZZZZ ooo*hw*$*****ooooZZZZZZZZZZZZZZZZZZZZZZZZZZZZZZZZZZZZZZZZZZZZZZZZZZZZZZZZZZZ",
"ZZZZZooooohh*$$***$$ooooZZZZZZZZZZZZZZZZZZZZZZZZZZZZZZZZZZZZZZZZZZZZZZZZZZZZZZZZZZ",
"ZZZZoo$$oowbw*$$$$$$ooooZZZZZZZZZZZZZZZZZZZZZZZZZZZZZZZZZZZZZZZZZZZZZZZZZZZZZZZZZZ",
"ZZZZo$**$o*gbw*$$$oooooooZZZZZZZZZZZZZZZZZZZZZZZZZZZZZZZZZZZZZZZZZZZZZZZZZZZZZZZZZ",
"ZZZo$****o*wbbbhhgggwwt*oZZZZZZZZZZZZZZZZZZZZZZZZZZZZZZZZZZZZZZZZZZZZZZZZZZZZZZZZZ",
"ZZZo****$o*wbgt&OOOOOO&w*oZZZZZZZZZZZZZZZZZZZZZZZZZZZZZZZZZZZZZZZZZZZZZZZZZZZZZZZZ",
"ZZo$****$o*wg&OOOOOOOOOOt*ZZZZZZZZZZZZZZZZZZZZZZZZZZZZZZZZZZZZZZZZZZZZZZZZZZZZZZZZ",
"ZZo*****ootgOOOOO.....OOOtZZZZZZZZZZZZZZZZZZZZZZZZZZZZZZZZZZZZZZZZZZZZZZZZZZZZZZZZ",
"ZZ$****$o*g&OOO.-eeeee-OO&&ZZZZZZZZZZZZZZZZZZZZZZZZZZZZZZZZZZZZZZZZZZZZZZZZZZZZZZZ",
"Zo*****$otgOOO.eyyyAyye.OO&ZZZZZZZZZZZZZZZZZZZZZZZZZZZZZZZZZZZZZZZZZZZZZZZZZZZZZZZ",
"Z#*****o*hwOO.eyyyeyy--e.OO&ZZZZZZZZZZZZZZZZZZZZZZZZZZZZZZZZZZZZZZZZZZZZZZZZZZZZZZ",
"Z$*****o*h&OO-yyAyeey-+-.OO&ZZZZZZZZZZZZZZZZZZZZZZZZZZZZZZZZZZZZZZZZZZZZZZZZZZZZZZ",
"Z$$$***othOO.eyeAeeeee+O+.O.ZZZZZZZZZZZZZZZZZZZZZZZZZZZZZZZZZZZZZZZZZZZZZZZZZZZZZZ",
"Z$$$***ohwOO.y-eAe-O-e+.+.O.ZZZZZZZZZZZZZZZZZZZZZZZZZZZZZZZZZZZZZZZZZZZZZZZZZZZZZZ",
"oO$****ohwOO.y+-Ae-OOe-.O...ZZZZZZZZZZZZZZZZZZZZZZZZZZZZZZZZZZZZZZZZZZZZZZZZZZZZZZ",
"oO$*$**ob7OO.e++eyOOOO-..O..ZZZZZZZZZZZZZZZZZZZZZZZZZZZZZZZZZZZZZZZZZZZZZZZZZZZZZZ",
"OO$****$b7OO.-+O-AOO..+..O-.ZZZZZZZZZZZZZZZZZZZZZZZZZZZZZZZZZZZZZZZZZZZZZZZZZZZZZZ",
"OO$****$b7OO.-+O+yeO..+O.-e.ZZZZZZZZZZZZZZZZZZZZZZZZZZZZZZZZZZZZZZZZZZZZZZZZZZZZZZ",
"OO#$****b7OO.-+O.eyO...OO-y..ZZZZZZZZZZZZZZZZZZZZZZZZZZZZZZZZZZZZZZZZZZZZZZZZZZZZZ",
"OO#*$***b7OO.+-O.-A-...O-eAe-ZZZZZZZZZZZZZZZZZZZZZZZZZZZZZZZZZZZZZZZZZZZZZZZZZZZZZ",
"ZO#$$***bw&OO.-O.+y-....OOy-.ZZZZZZZZZZZZZZZZZZZZZZZZZZZZZZZZZZZZZZZZZZZZZZZZZZZZZ",
"ZOO#$$**bw7OO.-+..eeO...O.e-..ZZZZZZZZZZZZZZZZZZZZZZZZZZZZZZZZZZZZZZZZZZZZZZZZZZZZ",
"ZOO#$$**wb7OO.+-..-e+...O.-...ZZZZZZZZZZZZZZZZZZZZZZZZZZZZZZZZZZZZZZZZZZZZZZZZZZZZ",
"ZZO##***2b7&OO.-...e+..........ZZZZZZZZZZZZZZZZZZZZZZZZZZZZZZZZZZZZZZZZiiipZZZZZZZ",
"ZZO##$$**bw7OO.++..-+....7gggg22ZZZZZZZZZZZZZZZZZZZZZZZZZZZZZZZZZZZZZZi6dMMpZZZZZZ",
"ZZOO#$$**wb7OO..+..++..7hhw1111122ZZZZZZZZZZZZZZZZZZZZZZZZZZZZZZZZZZZii6qdHMpZZZZZ",
"ZZZO##$**2b7&OO.+...+.7hhw2*******2ZZZZZZZZZZZZZZZZZZZZZZZZZZZZZZZZZZii66vMcpZZZZZ",
"ZZZOO#$***bw7OO..+...tbbw2*********$ZZZZZZZZZZZZZZZZZZZZZZZZZZZZZZZZZqi6;qMHMpZZZZ",
"ZZZZO##***wb7&OO.+..thbhw****$******$ZZZZZZZZZZZZZZZZZZZZZZZZZZZZZZZZqi6;qdMcpZZZZ",
"ZZZZO##$**2b77OO...1hbbw2****o**2***$ZZZZZZZZZZZZZZZZZZZZZZZZZZZZZZZZZip66dMHMpZZZ",
"ZZZZOO#$***hh7OOO..7bbbw2****o#*72***oZZZZZZZZZZZZZZZZZZZZZZZZZZZZZZZZip66qMHcpZZZ",
"ZZZZZO##$**th7&OO.1hhbbw7****$o*17***$ZZZZZZZZZZZZZZZZZZZZZZZZZZZZZZZZqi6;6dMHMpZZ",
"ZZZZZO#$$**2h77OO.7hwhbwt*****o$*72***oZZZZZZZZZZZZZZZZZZZZZZZZZZZZZZZqi6;6qMHMpZZ",
"ZZZZZOO##$**h771OOww77bht*****#o*17***oZZZZZZZZZZZZZZZZZZZZZZZZZZZZZZZqip66iddqipZ",
"ZZZZZZO##$**tg7&O1w777wht1*****o$*72**$ZZZZZZZZZZZZZZZZZZZZZZZZZZZZZZZqipxi<;;66dZ",
"ZZZZZZO##***2g771771277hg7*****oo*1t***oZZZZZZZZZZZZZZZZZZZZZZZZZZZZZZZixi;===;6uZ",
"ZZZZZZO##$***g771t71127wgt1****#o$*t7**oZZZZZZZZZZZZZZZZZZZZZZZZZZZZZZZip<==Jq;udZ",
"ZZZZZZZO##***2w77t21*177gw7****$oo*1w**$oZZZZZZZZZZZZZZZZZZZZZZZZZZZZZZqi<==d66pdZ",
"ZZZZZZZOO#$$**w7721*1*27gwt7****#o$*w7*$oZZZZZZZZZZZZZZZZZZZZZZZZZZZZZZqi6==66dxiZ",
"ZZZZZZZOO#$$**2772*1*117whwt7***$oo*7w*$ooZZZZZZZZZZZZZZZZZZZZZZZZZZZZZqpu6;;dxiZZ",
"ZZZZZZZZO###***t711*1*12wbhwwwtt$oo*2w$$$oZZZZZZZZZZZZZZZZZZZZZZZZZZZZZZqiiippidZZ",
"ZZZZZZZZOO##***271*****2wbhhht2&..o$2o..#ooZZZZZZZZZZZZZZZZZZZZZZZZZZZZZZqqddqqZZZ",
"ZZZZZZZZOOO#$***7***1*11wbbb2......oo....ooZZZZZZZZZZZZZZZZZZZZZZZZZZZZZZZZZZZZZZZ",
"ZZZZZZZZZOO#****2******1wbb2..............oZZZZZZZZZZZZZZZZZZZZZZZZZZZZZZZZZZZZZZZ",
"ZZZZZZZZZOO##$********11hb2...............ooZZZZZZZZZZZZZZZZZZZZZZZZZZZZZZZZZZZZZZ",
"ZZZZZZZZZZOO#$$$*****$*7bw.................oZZZZZZZZZZZZZZZZZZZZZZZZZZZZZZZZZZZZZZ",
"ZZZZZZZZZZOO#$$$$****#1wb2.....#$******#...oZZZZZZZZZZZZZZZZZZZZZZZZZZZZZZZZZZZZZZ",
"ZZZZZZZZZZOO###$$***$#*hw....#*277777722*...ZZZZZZZZZZZZZZZZZZZZZZZZZZZZZZZZZZZZZZ",
"ZZZZZZZZZZZOO###$***#$2h2....*277222****2$..ZZZZZZZZZZZZZZZZZZZZZZZZZZZZZZZZZZZZZZ",
"ZZZZZZZZZZ4OOO##****#$7h&...#27222***$$$$2O.ZZZZZZZZZZZZZZZZZZZZZZZZZZZZZZZZZZZZZZ",
"ZZZZZZZZ404OOO#$$**$#*th....*2t22*******$$$OZZZZZZZZZZZZZZZZZZZZZZZZZZZZZZZZZZZZZZ",
"ZZZZZZZ4494sOO##$**$#*h2...#27t7*********$$#ZZZZZZZZZZZZZZZZZZZZZZZZZZZZZZZZZZZZZZ",
"ZZZZZZ49994fOOo$$$*#$2h&...$22t7********$$##OZZZZZZZZZZZZZZZZZZZZZZZZZZZZZZZZZZZZZ",
"ZZZZZ4sslnnfOOo#$$*#$7w...#*22tt2*********$#OZZZZZZZZZZZZZZZZZZZZZZZZZZZZZZZZZZZZZ",
"ZZZZ4slnBSGf.OO##$$#*7w...#**2tt7*********$$#OZZZZZZZZZZZZZZZZZZZZZZZZZZZZZZZZZZZZ",
"ZZZ4dNFDDCSf.OOO####*w2...$**27g72********$##OZZZZZZZZZZZZZZZZZZZZZZZZZZZZZZZZZZZZ",
"ZZZ,NGGGDCCs.OOO####2w&..#***27gt7*******$$###OZZZZZZZZZZZZZZZZZZZZZZZZZZZZZZZZZZZ",
"ZZZaNDFSCNNs..OO####2w...#****7gt72*******$$$#OZZZZZZZZZZZZZZZZZZZZZZZZZZZZZZZZZZZ",
"ZZZaNNSNnnns..OO####2w...$****7tgt72********$#OZZZZZZZZZZZZZZZZZZZZZZZZZZZZZZZZZZZ",
"ZZZadmnnnnj4..OOO##*t2...$****2tgt7772****$$$$#OZZZZZZZZZZZZZZZZZZZZZZZZZZZZZZZZZZ",
"ZZZ9ddlllff4...OOO#*t&..#*****2tggt777722****$$O8ZZZZZZZZZZZZZZZZZZZZZZZZZZZZZZZZZ",
"ZZZ,adffffs:...OOO#*t&..#*****2tgggttggggggg**$O88ZZZZZZZZZZZZZZZZZZZZZZZZZZZZZZZZ",
"ZZZZ49a9sss.....OO##2...$*****2tggggggggggggg2*OO89ZZZZZZZZZZZZZZZZZZZZZZZZZZZZZZZ",
"ZZZZZZ:4444....oOO##2...$*****2tgggggg2....1gg2#Oa99ZZZZZZZZZZZZZZZZZZZZZZZZZZZZZZ",
"ZZZZZZZZZZ....ooOOOO2..#******2tgggg2....  .1gt$O9da9ZZZZZZZZZZZZZZZZZZZZZZZZZZZZZ",
"ZZZZZZZZZooooooooOOO&..#*$****2tggg2......  .tg2O8jjd0ZZZZZZZZZZZZZZZZZZZZZZZZZZZZ",
"ZZZZZZZZoooooooooOOO&..$$*$**2tggg2.......   1tt#OfjdldsZZZZZZZZZZZZZZZZZZZZZZZZZZ",
"ZZZZZZZooooooooooOOO&..$*$$*$2tggg........   .tt$OjfdzmzaZZZZZZZZZZZZZZZZZZZZZZZZZ",
"ZZZZZZooooooooooooOO..#$$$$*$2ggg2...###oo.  .tt2OfjfjlnlsZZZZZZZZZZZZZZZZZZZZZZZZ",
"ZZZZZoooooo33jjf8>OO..#$$$$$*7ggg...o###ooo   177Ofjfkmmf8ZZZZZZZZZZZZZZZZZZZZZZZZ",
"ZZZZoo@@@3dfknnmnj8O..#$$$$$2ggg1..o#*555*o   .77#affkmkf8ZZZZZZZZZZZZZZZZZZZZZZZZ",
"ZZZo@@@@3fnmmCFGGna8..#$$$$$2gtg...o*5*****#  .77$afffkljs8ZZZZZZZZZZZZZZZZZZZZZZZ",
"ZZo@%%@3skBCVFGGGmf9>.###$$*ttg2...o**$OO#**   121ajjfkkf88ZZZZZZZZZZZZZZZZZZZZZZZ",
"ZZo%%%@sfNVCBFGGGDka9.####$*ttt1...o**OOO***   122affdffd888ZZZZZZZZZZZZZZZZZZZZZZ",
"ZZo%%%3dmBNBnNBGGDVsa>#####1ttt.....**O$*5**   .22affddds888ZZZZZZZZZZZZZZZZZZZZZZ",
"ZZo%%@sflmNkfnNVFDNls8#####7tt2.....#**55**#   .22alfffsss88ZZZZZZZZZZZZZZZZZZZZZZ",
"ZZo%%@sfklkffnNVGNmnj9####*7tt1......#****#.    21kNlfffsaa88ZZZZZZZZZZZZZZZZZZZZZ",
"ZZo@@osjjkkdfnBVNNlmks8###*7771.............    21lmkfffdaas8ZZZZZZZZZZZZZZZZZZZZZ",
"ZZoo@odlllfdfknmnmlllks###1777..............    11nmkfffdsas>ZZZZZZZZZZZZZZZZZZZZZ",
"ZZZooodjkda9sjllnkkllld9##1277..............    1kBVnjffffsas>ZZZZZZZZZZZZZZZZZZZZ",
"ZZZZoofds8>>9fkmnnnzlnka>#2221..............    fnCVljffffsad>ZZZZZZZZZZZZZZZZZZZZ",
"ZZZZZo3a8>o>dnnNzzzBzjnkf#1221..............   0kBVNkfffffsad>ZZZZZZZZZZZZZZZZZZZZ",
"ZZZZoo@>>@o>lnznznNNmlnnf8112...............   klVVmkfffffsad>ZZZZZZZZZZZZZZZZZZZZ",
"ZZZZooo@@oo8klnBVNNBNBVmjf811............... 0jCDBVnlkjjffda8>ZZZZZZZZZZZZZZZZZZZZ",
"ZZZoooooo%%9jklmNmNBVSDNNjd11..............o8jBGDCmljkfffjd88>ZZZZZZZZZZZZZZZZZZZZ",
"ZZZoooooo>>9jkkNBVCSSDDDBlkj%.............8djmDDVmnzlzjfjkj98,ZZZZZZZZZZZZZZZZZZZZ",
"ZZZoo@@oo%38fkklmVDSFFGGGBmlf8..........3sdmSSDVlklkzjlkflf09,ZZZZZZZZZZZZZZZZZZZZ",
"ZZZoo%@@oX%8skkkmCFFFFDDGCBmmf88$$>8880fjzBVCVCmlllljklBnNks9,ZZZZZZZZZZZZZZZZZZZZ",
"ZZZoo%%@oX>8akkkmCFFSSCCVSVNmlmlfdfllmmmnNNmnnldkkzklmmBmNks9,ZZZZZZZZZZZZZZZZZZZZ",
"ZZZZo%%@ o39akkkmBCFSSCVVVVlmjjkllNVBNmnNNmnnlfdkljklmmNNzk98>ZZZZZZZZZZZZZZZZZZZZ",
"ZZZZoo@@  8>8djjzmBFFSCVBVVVllljkklNmmmmmnzljfdffjjkknNNBzj93%ZZZZZZZZZZZZZZZZZZZZ",
"ZZZZZoo%X X%8djjkzmCFSCVBBVVCNkfdddjlllzllljffddkljjknNVBmj98>ZZZZZZZZZZZZZZZZZZZZ",
"ZZZZZZooX o@>9sffjmBSVBNNNNBNBzffddfffkjjjjfdddffjjjjnNNnnf93%ZZZZZZZZZZZZZZZZZZZZ",
"ZZZZZZZZo  o,9sfffzmVBmmmnnmmmzzdddddddddddssdkklzlkkknlfds3>$ZZZZZZZZZZZZZZZZZZZZ",
"ZZZZZZZZX  @>,0sdfkVBmnznznnlzzjjdddssaaaasdjknllfjjjjffs993%,ZZZZZZZZZZZZZZZZZZZZ",
"ZZZZZZZZ.X $%,9sddfNNnlnnllzlkkkzkjjddsaassdjkkkjfddddda993>$>ZZZZZZZZZZZZZZZZZZZZ",
"ZZZZZZZZ.o   %8addfmmnlljnzmNNnlkkllldddsssfjkkfdssssaaa983>$$ZZZZZZZZZZZZZZZZZZZZ",
"ZZZZZZZZ.oo  @,asddmmnllnmNBBBBNkklllllddssfjkkfdssssaa983>$@@ZZZZZZZZZZZZZZZZZZZZ",
"ZZZZZZZ..oo  @,800szljnnNNBBBBNkkjjjkkkjjjdaddssaa09883803$@oZZZZZZZZZZZZZZZZZZZZZ",
"ZZZZZZZ...o oo,,00aklknnBBVCVVBmnjjnnljjkkdsssaa9983330s3%@X@ZZZZZZZZZZZZZZZZZZZZZ",
"ZZZZZZZ....   %,38assfjmBmnlkkddjjjjjdffjfsfkss8899000dj9:$@@ZZZZZZZZZZZZZZZZZZZZZ",
"ZZZZZZZ.....   %>,3aasskkjssllnnndddkmNBnnkksfkfa00addjja:%$@ZZZZZZZZZZZZZZZZZZZZZ",
"ZZZZZZZ.....    >>,898>3,88jnnjjjkknNBnnllllkksskfddjjjl9,@@@ZZZZZZZZZZZZZZZZZZZZZ",
"ZZZZZZZ......   %%%38,,%%8knjsssdmmnnkkkkkkkksssdjjjjjj99,@@ZZZZZZZZZZZZZZZZZZZZZZ",
"ZZZZZZZZ......  $$%,,%%>afs08dnnlkkfdddjjjjkkkasjjjjklj,,%@@ZZZZZZZZZZZZZZZZZZZZZZ",
"ZZZZZZZZ......  $$$:>%>>afs8jnnnlkkadffjkjfffkdasfkkklj,,%@@ZZZZZZZZZZZZZZZZZZZZZZ",
"ZZZZZZZZ....... X@$%:8>3sa8kknkkdkkknCCBVBNmmkdasfkkdfk8>%@ZZZZZZZZZZZZZZZZZZZZZZZ",
"ZZZZZZZZZ......  X@%%8,$sdjjjddjjj0CNnjd0djnBNnkasddddf8>%@ZZZZZZZZZZZZZZZZZZZZZZZ",
"ZZZZZZZZZ......  X@%%o>0ddaa9jj0ssdaadddjjdaasjnzfas938,@@ZZZZZZZZZZZZZZZZZZZZZZZZ",
"ZZZZZZZZZ......   @>o0sa838jj08jNCNNnnnBSSBnfaaaass333@@@ZZZZZZZZZZZZZZZZZZZZZZZZZ",
"ZZZZZZZZZZ.....   @$803:3dd08jjjddaaaaffnBjasfjffffs3,@@@ZZZZZZZZZZZZZZZZZZZZZZZZZ",
"ZZZZZZZZZZ......   @83@388sjdaaa,,88kNNBSSNNnlljjsdkd,>@@@ZZZZZZZZZZZZZZZZZZZZZZZZ",
"ZZZZZZZZZZZ.....  @@,%>88sdd088,sjzBNnffs8jsdddss8adkkda3@@ZZZZZZZZZZZZZZZZZZZZZZZ",
"ZZZZZZZZZZZZ....X @@,%>8djd088jzzznff9880s333adkkkmmkda83%3@ZZZZZZZZZZZZZZZZZZZZZZ",
"ZZZZZZZZZZZZ....  %%,%8ddd08ddzzjjs80880skBCCNmnzllkda883%33@ZZZZZZZZZZZZZZZZZZZZZ",
"ZZZZZZZZZZZZZ.... %%$3skd08ajzfjss>>adkmNVCCNnkjfsaaaa99>%$$@ZZZZZZZZZZZZZZZZZZZZZ",
"ZZZZZZZZZZZZZZ... @@>8jlf8fzzfs888adknCCBnnjdaaaa3,,,,%%%%@@@@ZZZZZZZZZZZZZZZZZZZZ",
"ZZZZZZZZZZZZZZZ...  ,9zmfjmzfs8>>azznnjs3%83333aaaasjjaa88,>@@ZZZZZZZZZZZZZZZZZZZZ",
"ZZZZZZZZZZZZZZZZ..  ,9jmmmd88>8akmmnj9%%3dkkjksddkdnBnjjkjs8@@ZZZZZZZZZZZZZZZZZZZZ",
"ZZZZZZZZZZZZZZZZZZZ ,9flkd,>>0kzzmfa3%38fflmNmkkkkazNmjjdjla8>ZZZZZZZZZZZZZZZZZZZZ",
"ZZZZZZZZZZZZZZZZZZZZ,9afs,>80kNzffa$%,89dklNVNNkkkazNzjjszzdz80ZZZZZZZZZZZZZZZZZZZ",
"ZZZZZZZZZZZZZZZZZZZZ,9ad9%0kkNkssa3%,89sknzBmNnnzjfNkkjjjVjfVj8,ZZZZZZZZZZZZZZZZZZ",
"ZZZZZZZZZZZZZZZZZZZZ,9a3%3klNks003$$89sfnlnBmVNlljzVdkddkNnmjjs83ZZZZZZZZZZZZZZZZZ",
"ZZZZZZZZZZZZZZZZZZZZ>33%%9nkks33>++389sfflnNBVBzjzzmadNNkNjzmmk008ZZZZZZZZZZZZZZZZ",
"ZZZZZZZZZZZZZZZZZZZZ@%$%>kjdd33$$+$$88ssfflNNBNmmnVNfkVVNVCVNnBzks8ZZZZZZZZZZZZZZZ",
"ZZZZZZZZZZZZZZZZZZZZ @@@3ds99>%  ++988sasljVNBnVnNVVknDDNNVBnBBBmNj98ZZZZZZZZZZZZZ",
"ZZZZZZZZZZZZZZZZZZZZ @@@9s088>$  $399890slnBVVNNNmNBkNGGNBBlmVNmNmmfs8ZZZZZZZZZZZZ",
"ZZZZZZZZZZZZZZZZZZZZZ @@38833>o $39$9099aknNNCmllBSNVVVlNBmBNmCBklmnkd88ZZZZZZZZZZ",
"ZZZZZZZZZZZZZZZZZZZZZZ @>,3>>$o $$39a999skmNNBkllVVVNNkjlnVlNCNBBNnlnlds8ZZZZZZZZZ",
"ZZZZZZZZZZZZZZZZZZZZZZZ$%>,>>@o$$333aa99sflNVNnjkBVCNnsnnnCNBVVNNBnnmkldf8ZZZZZZZZ",
"ZZZZZZZZZZZZZZZZZZZZZZZ $%,>>@oo$$$33993salzNBnfkNBNlmfskmBVBBBBCVBBNBkBjjd8ZZZZZZ",
"ZZZZZZZZZZZZZZZZZZZZZZZZZZZZZZZZZZZZZZZZZZjnNBksjNBkNnGdlBVBnBVVNmlVmmmBklsd8ZZZZZ"
};
