/* XPM */
static char * west_xpm[] = {
"64 64 45 1",
" 	c #2B230F",
".	c #373737",
"+	c #2F2F2F",
"@	c #4F3B2B",
"#	c #3F2B1B",
"$	c #473323",
"%	c #332B13",
"&	c #372313",
"*	c #8B0000",
"=	c #574333",
"-	c #533F2F",
";	c #43331B",
">	c #3F472B",
",	c #2F371F",
"'	c #4B371B",
")	c #9B0000",
"!	c #272727",
"~	c #2F1B0B",
"{	c #4F3B23",
"]	c #4F3B27",
"^	c #1F170B",
"/	c #7F0000",
"(	c #B30000",
"_	c #373F27",
":	c #5B472B",
"<	c #A70000",
"[	c #53573B",
"}	c #474747",
"|	c #1B1B1B",
"1	c #730000",
"2	c #232B0F",
"3	c #BF0000",
"4	c #6B4727",
"5	c #474F33",
"6	c #67533F",
"7	c #5F4B37",
"8	c #CB0000",
"9	c #432F1B",
"0	c #872300",
"a	c #675333",
"b	c #E30000",
"c	c #D70000",
"d	c #EF0000",
"e	c #3F2F17",
"f	c #575757",
".#..#)))))<))* +^ $*))<<<))**)<<)<))<)<<)<)<<)<)+% ++ &@#+.&.+ +",
".%.+ .)))<)<)))))*))))<<<)<<<))**+#-@#**)<(3())*+ +. &+.&..+ #. ",
"+.#&+.>*)<)<)*%==-%@**))<)<))* +#=+$#.$=*)3b3)&. +. ++2.+. +@%. ",
"+.@&+@..*))*.>...#%$#$$*<<)* +@=%@& &+.=@*(c)*  .+++., . + $%++|",
" +&@#  =*)*{  $ .&-{#&+*))*.+. .. . .  #@*<3* + # . + @&. .+ ++ ",
"%.@ &%&..** &+#@:#$& *)))$%.@  + +.%.%+@%#)<* + ,. % .&$@%+~ +.%",
".++. >$ =*)#&&$# .*))<)),.@ +   +&+.%$%@%@)<*$#. $!.  +&#$ + + %",
"+++ &+&&.+**+ @*)<<)* + .%$  .$ ++ $%.%%.#)<*+&+^ ! $ _$ # ++..$",
". + %@&'#=*)))))<)@  .@& ;%. +  + .&>#%$%,*)* .  .! +&.#$&$  .+ ",
"&$ .&.@$ =+)<)<*~..&. #>. %+% .  + $$++ %*))*% ~.~~._ +> # %++,$",
"~++ +%%% @%*<)* .$=++>&+&  ;%+ + %+#-#&$*)())&   +   .+++ {#++%%",
"#.  @ %{++@%*<)  . &+ @&&% $ + +&&&@  *))(3().#^. . % .+ $# %^%+",
"% ,+% $%+++.+*<**@ @+_;>  $&+ @$#&+)))))))(<)+&@$$ .. '..+.  ~; ",
"]%. .#$~.  &7.*<***+&$&# + #$&@;.*)))**'@]#))*$ $# % .+$%$+ +, +",
"%. +++ $+ %&@. )<))*. @#$'@$@@&.*)***. ;=.=.@<)*$%$ $ .%+%+. $ ~",
".  $.% &.  @#$&))))<)*+&.%{$ +)))**#@]@;.===%*<))&@@ + +&$&+ ,@ ",
"]%. #; %%{#$@@*0)<* *)<<)*> ))))*>@#..&].&+;.@&<)*~&$4'$  %.~+>+",
"%.+ +& $&=@#$ )()*%  $#*<*)))<* @#>@&@ %_+,.+..*)<)% $4#$>,~ ;. ",
"+& +#$#-@'&+**<<<*# &+&&*)))<)*+ + .&#@#.+.&$.#+*<<)*$#a'$$ %%++",
" @%%#=;+&**)))))))))<)))<))))<)+. %$#@.+ @ &# %#$)))<)*&={$ %++$",
"+,#@''*))(<**+] ~&@##@@#@##*)<)*+++;...++%%.. +  *))))<*@$#$ ^# ",
"$;@&&*)<(<)*+@++#@.$-=$=$@=%*)<)**%]..&@@&.&.  |***%%*)<)*$'{#  ",
"&$&*)))<(<*+.@+.++$#@%#@#=}#@***<)*#.#@%+       **%;@%@)<)*##&&$",
"+*))<*$*)) .$ + ~!...#@@#+$}6#..@))*++ @$#>  & *** @@=$.-)<**@#&",
")))++ ++))*!.; @^&. .$##;&%@=@=:+@))* >#&$ @% .**+ ..&#[&#*)*)))",
"@%;.@=+.*))  ++  $. .##-.;$+.#$==.#))*++{-$$ .*))#@. +.@$=@+'.@ ",
"%@@$=..7 ))*!+ .+@&@ @@&@%+  . #@}-@)<*]+##+.*)<).. ~& @++#@=#.#",
" $.%#>&=@*))+$,+++ ..+.#.&##   {%=@.*<)*++ **)<<)%-... +#+%.#@@+",
" . $& &@@ ))*+@&+ . + @##@#+ + +++===&)<()))(((<)~@ +!. $&]+^@. ",
"~%.+ ,+%=%*))@;%.&! .+%+.@ ++ +. ;@$=#**<()(8d8<)@.%+.#;$&# ++. ",
".$+. $] @= ))*$&+. .%@$@#.+   + .%..$}%*(())(8(<)@.-.+.,+@|+ +  ",
"+.   %+ @= *)).$&  +%%$+. +  %+ $+&%%=%*()*11**))*.+-+.%     .+.",
"@ $   &_#. *)*.## .&%>..+@&. %% >&> @#%*)*12@+.*)**  &. .+.  .+ ",
"&+#.  ++#++))) - +.%+&#:@&.+++.% >%$+#-*** .2!,%1))**&#. ++ . ++",
"~+$!$%+  .*)<) $$ >+@@#%++ {., $.%$%]%***1.++^+.#=*))*##$+@+%.~ ",
" +%,$& _  ))<) #$.&#@+-;..|+ $ ++ &{#%**1&   .  @#=@*)*+#.% $   ",
"&+.$+  &.+#*)))$&@+.@.+.+%+ ++.# &@#;)*1+... + .#@..[))).@$   +^",
"$%.;@..  .+ .*))@#.++.,.;@!+.%+##@#$)*1&.@ + .+   #.@[)<*.@&.+ +",
"%.%.## +|+.#@ )))# %@..++ + +@#$#'*)*1%#.&@. .+%! & .@=)*&#-&.  ",
". +@@  .. &@#+*)<##> ..&$&+'&$#$*))*1 $++.@. .+! |+.+.]*)* $#.. ",
":+@+@]    & .@^*)*@$@+@; ~{']#*))**1+$+.!    @ @ .! +.@=*)).#@++",
",+@,!.   +.&#++*)))#'4##.&$-%*)))1+>&@,#-  @  . @. +  ..**)*~@@ ",
". #$   + ++.#-+ *<<)$4]]'-=#*)**++&+&#+#..+%+, +&@+. +&.#*))*+'&",
" .++&. +&&$@@@$*)(<)*$=]==@)))*%.  @&{@@+.      .  +,#.&.#*))*%-",
"# +@ #$#@$@&#&*)(3(<<)*@=$)<(<*&$ +{+%.#++ $! + +  .+,..=@/))*%&",
"@;@##-#@$#*)<<)))<))<<)<<<<(((*$&-#@$# .@ . .  + .  ,$  %#/)))* ",
"#-###&#*)*))))*@.@=$6@$=%*))(<**$ $$-#:&. %% +& .>    $#./*)<))*",
" ;#.))*))**)))$###.@$+-@$-#@*<<))//$+$9-$+@%# + ++ $$>++/***))))",
")))))**&@+**)*$ +&+ ..+&@+[-#)<<<)))// @@${.$ +  .!+ $./****))))",
")))** +=$=+*)* +++_ ';&+.+.=-)()[.@))))/+$#;$ +.$&;&#_/*)*@$**))",
")**.#5@+@#_*)-  .~.+&+&@# #5#<)-%:-}[**)/&@-$#&#;&$  /** .@+.*)*",
"*$;[$#% +=%)*&.&  @ '@#@+.@#)<6%.+@@7-@*)/.#@@&#{  /***.@@%@%*))",
"..@>&@ +.%*)*. ^  %e.+@%@&+)<):.++.@.}f=-))/%>+//*))*@+@#+&@**)*",
"+&&+ + .+ *)@@+^++ @$%++$ *<)@.+  #';$-}@$)<)<<<**.$ .@%.%@*))>+",
"&.&. +++ .)*$   +&&$%-+.% ))@= !$#$%@$@%@@.)<<<*#@=##@ $@&*))>  ",
" ..@^2^ !*)@;, # @%&@%. %@))=+   .$%+.5%+#$%)<* ..$++%$ *))* =##",
"+@%+.^2&.))&.  +! +.%.&>.))$%  &.  $$#+$&+#=%)).!+ @]&*))) .+~#&",
"$ %. !.%+)0+ +$ %. .+%$$#)*+ .   .+$+%+&+.+-#]*) %&$,*))*&=.#$+ ",
"+ %&.^&.*)#.+..+..,.&+$&))@ % %! $  &  . +$%=.@)<*+*)<<* - ++&&#",
" ..&.&#+))# +|.++ ]+>$ %)*&+ ! %.%&&..++. $%.#.*)<<<<<* $&{. .^ ",
"#.+ @9{*)* ++|+ + .+.$$*).&+++ +++>%+ +$,@+. %@*)))<<)*&&@&&$ .%",
"$@:'#- ))'.  +&+ +  &>*))&@ %.%  . % >+ @%>+ 5.*))<<)))*,& #&&'{",
"+.!+! )))' >^ .$ + +$#*)**&{%%@$@@#$$$@$%@#{@#*))** .+*))**  ,.%",
")))))))<)*@&%%&++ + **)<)**    $ +  .     ; %))<) @=.@]@ **))))*"};
